%TF.GenerationSoftware,KiCad,Pcbnew,7.0.1*%
%TF.CreationDate,2023-03-14T08:07:43-04:00*%
%TF.ProjectId,Macropad,4d616372-6f70-4616-942e-6b696361645f,rev?*%
%TF.SameCoordinates,Original*%
%TF.FileFunction,Drillmap*%
%TF.FilePolarity,Positive*%
%FSLAX45Y45*%
G04 Gerber Fmt 4.5, Leading zero omitted, Abs format (unit mm)*
G04 Created by KiCad (PCBNEW 7.0.1) date 2023-03-14 08:07:43*
%MOMM*%
%LPD*%
G01*
G04 APERTURE LIST*
%ADD10C,0.100000*%
%ADD11C,0.200000*%
%ADD12C,0.102000*%
%ADD13C,0.150000*%
G04 APERTURE END LIST*
D10*
X10150000Y-7350000D02*
X20550000Y-7350000D01*
X20550000Y-13200000D01*
X10150000Y-13200000D01*
X10150000Y-7350000D01*
D11*
D12*
X17686000Y-7830000D02*
X17788000Y-7932000D01*
X17788000Y-7830000D02*
X17686000Y-7932000D01*
X17686000Y-8084000D02*
X17788000Y-8186000D01*
X17788000Y-8084000D02*
X17686000Y-8186000D01*
X17686000Y-8338000D02*
X17788000Y-8440000D01*
X17788000Y-8338000D02*
X17686000Y-8440000D01*
X17686000Y-8592000D02*
X17788000Y-8694000D01*
X17788000Y-8592000D02*
X17686000Y-8694000D01*
X17686000Y-8846000D02*
X17788000Y-8948000D01*
X17788000Y-8846000D02*
X17686000Y-8948000D01*
X17686000Y-9100000D02*
X17788000Y-9202000D01*
X17788000Y-9100000D02*
X17686000Y-9202000D01*
X17686000Y-9354000D02*
X17788000Y-9456000D01*
X17788000Y-9354000D02*
X17686000Y-9456000D01*
X17686000Y-9608000D02*
X17788000Y-9710000D01*
X17788000Y-9608000D02*
X17686000Y-9710000D01*
X17686000Y-9862000D02*
X17788000Y-9964000D01*
X17788000Y-9862000D02*
X17686000Y-9964000D01*
X17686000Y-10116000D02*
X17788000Y-10218000D01*
X17788000Y-10116000D02*
X17686000Y-10218000D01*
X17686000Y-10370000D02*
X17788000Y-10472000D01*
X17788000Y-10370000D02*
X17686000Y-10472000D01*
X17686000Y-10624000D02*
X17788000Y-10726000D01*
X17788000Y-10624000D02*
X17686000Y-10726000D01*
X17686000Y-10878000D02*
X17788000Y-10980000D01*
X17788000Y-10878000D02*
X17686000Y-10980000D01*
X17686000Y-11132000D02*
X17788000Y-11234000D01*
X17788000Y-11132000D02*
X17686000Y-11234000D01*
X17686000Y-11386000D02*
X17788000Y-11488000D01*
X17788000Y-11386000D02*
X17686000Y-11488000D01*
X17686000Y-11640000D02*
X17788000Y-11742000D01*
X17788000Y-11640000D02*
X17686000Y-11742000D01*
X17686000Y-11894000D02*
X17788000Y-11996000D01*
X17788000Y-11894000D02*
X17686000Y-11996000D01*
X17686000Y-12148000D02*
X17788000Y-12250000D01*
X17788000Y-12148000D02*
X17686000Y-12250000D01*
X17686000Y-12402000D02*
X17788000Y-12504000D01*
X17788000Y-12402000D02*
X17686000Y-12504000D01*
X17686000Y-12656000D02*
X17788000Y-12758000D01*
X17788000Y-12656000D02*
X17686000Y-12758000D01*
X18321000Y-12633000D02*
X18423000Y-12735000D01*
X18423000Y-12633000D02*
X18321000Y-12735000D01*
X18575000Y-12633000D02*
X18677000Y-12735000D01*
X18677000Y-12633000D02*
X18575000Y-12735000D01*
X18829000Y-12633000D02*
X18931000Y-12735000D01*
X18931000Y-12633000D02*
X18829000Y-12735000D01*
X19464000Y-7830000D02*
X19566000Y-7932000D01*
X19566000Y-7830000D02*
X19464000Y-7932000D01*
X19464000Y-8084000D02*
X19566000Y-8186000D01*
X19566000Y-8084000D02*
X19464000Y-8186000D01*
X19464000Y-8338000D02*
X19566000Y-8440000D01*
X19566000Y-8338000D02*
X19464000Y-8440000D01*
X19464000Y-8592000D02*
X19566000Y-8694000D01*
X19566000Y-8592000D02*
X19464000Y-8694000D01*
X19464000Y-8846000D02*
X19566000Y-8948000D01*
X19566000Y-8846000D02*
X19464000Y-8948000D01*
X19464000Y-9100000D02*
X19566000Y-9202000D01*
X19566000Y-9100000D02*
X19464000Y-9202000D01*
X19464000Y-9354000D02*
X19566000Y-9456000D01*
X19566000Y-9354000D02*
X19464000Y-9456000D01*
X19464000Y-9608000D02*
X19566000Y-9710000D01*
X19566000Y-9608000D02*
X19464000Y-9710000D01*
X19464000Y-9862000D02*
X19566000Y-9964000D01*
X19566000Y-9862000D02*
X19464000Y-9964000D01*
X19464000Y-10116000D02*
X19566000Y-10218000D01*
X19566000Y-10116000D02*
X19464000Y-10218000D01*
X19464000Y-10370000D02*
X19566000Y-10472000D01*
X19566000Y-10370000D02*
X19464000Y-10472000D01*
X19464000Y-10624000D02*
X19566000Y-10726000D01*
X19566000Y-10624000D02*
X19464000Y-10726000D01*
X19464000Y-10878000D02*
X19566000Y-10980000D01*
X19566000Y-10878000D02*
X19464000Y-10980000D01*
X19464000Y-11132000D02*
X19566000Y-11234000D01*
X19566000Y-11132000D02*
X19464000Y-11234000D01*
X19464000Y-11386000D02*
X19566000Y-11488000D01*
X19566000Y-11386000D02*
X19464000Y-11488000D01*
X19464000Y-11640000D02*
X19566000Y-11742000D01*
X19566000Y-11640000D02*
X19464000Y-11742000D01*
X19464000Y-11894000D02*
X19566000Y-11996000D01*
X19566000Y-11894000D02*
X19464000Y-11996000D01*
X19464000Y-12148000D02*
X19566000Y-12250000D01*
X19566000Y-12148000D02*
X19464000Y-12250000D01*
X19464000Y-12402000D02*
X19566000Y-12504000D01*
X19566000Y-12402000D02*
X19464000Y-12504000D01*
X19464000Y-12656000D02*
X19566000Y-12758000D01*
X19566000Y-12656000D02*
X19464000Y-12758000D01*
D13*
X11136000Y-8890000D02*
G75*
G03*
X11136000Y-8890000I-75000J0D01*
G01*
X11136000Y-10910000D02*
G75*
G03*
X11136000Y-10910000I-75000J0D01*
G01*
X11771000Y-8636000D02*
G75*
G03*
X11771000Y-8636000I-75000J0D01*
G01*
X11771000Y-10656000D02*
G75*
G03*
X11771000Y-10656000I-75000J0D01*
G01*
X13156000Y-8890000D02*
G75*
G03*
X13156000Y-8890000I-75000J0D01*
G01*
X13156000Y-10910000D02*
G75*
G03*
X13156000Y-10910000I-75000J0D01*
G01*
X13791000Y-8636000D02*
G75*
G03*
X13791000Y-8636000I-75000J0D01*
G01*
X13791000Y-10656000D02*
G75*
G03*
X13791000Y-10656000I-75000J0D01*
G01*
X15176000Y-8890000D02*
G75*
G03*
X15176000Y-8890000I-75000J0D01*
G01*
X15176000Y-10910000D02*
G75*
G03*
X15176000Y-10910000I-75000J0D01*
G01*
X15811000Y-8636000D02*
G75*
G03*
X15811000Y-8636000I-75000J0D01*
G01*
X15811000Y-10656000D02*
G75*
G03*
X15811000Y-10656000I-75000J0D01*
G01*
D11*
X10392619Y-13517524D02*
X10392619Y-13317524D01*
X10392619Y-13317524D02*
X10440238Y-13317524D01*
X10440238Y-13317524D02*
X10468810Y-13327048D01*
X10468810Y-13327048D02*
X10487857Y-13346095D01*
X10487857Y-13346095D02*
X10497381Y-13365143D01*
X10497381Y-13365143D02*
X10506905Y-13403238D01*
X10506905Y-13403238D02*
X10506905Y-13431809D01*
X10506905Y-13431809D02*
X10497381Y-13469905D01*
X10497381Y-13469905D02*
X10487857Y-13488952D01*
X10487857Y-13488952D02*
X10468810Y-13508000D01*
X10468810Y-13508000D02*
X10440238Y-13517524D01*
X10440238Y-13517524D02*
X10392619Y-13517524D01*
X10592619Y-13517524D02*
X10592619Y-13384190D01*
X10592619Y-13422286D02*
X10602143Y-13403238D01*
X10602143Y-13403238D02*
X10611667Y-13393714D01*
X10611667Y-13393714D02*
X10630714Y-13384190D01*
X10630714Y-13384190D02*
X10649762Y-13384190D01*
X10716429Y-13517524D02*
X10716429Y-13384190D01*
X10716429Y-13317524D02*
X10706905Y-13327048D01*
X10706905Y-13327048D02*
X10716429Y-13336571D01*
X10716429Y-13336571D02*
X10725952Y-13327048D01*
X10725952Y-13327048D02*
X10716429Y-13317524D01*
X10716429Y-13317524D02*
X10716429Y-13336571D01*
X10840238Y-13517524D02*
X10821190Y-13508000D01*
X10821190Y-13508000D02*
X10811667Y-13488952D01*
X10811667Y-13488952D02*
X10811667Y-13317524D01*
X10945000Y-13517524D02*
X10925952Y-13508000D01*
X10925952Y-13508000D02*
X10916429Y-13488952D01*
X10916429Y-13488952D02*
X10916429Y-13317524D01*
X11173571Y-13517524D02*
X11173571Y-13317524D01*
X11173571Y-13317524D02*
X11240238Y-13460381D01*
X11240238Y-13460381D02*
X11306905Y-13317524D01*
X11306905Y-13317524D02*
X11306905Y-13517524D01*
X11487857Y-13517524D02*
X11487857Y-13412762D01*
X11487857Y-13412762D02*
X11478333Y-13393714D01*
X11478333Y-13393714D02*
X11459286Y-13384190D01*
X11459286Y-13384190D02*
X11421190Y-13384190D01*
X11421190Y-13384190D02*
X11402143Y-13393714D01*
X11487857Y-13508000D02*
X11468809Y-13517524D01*
X11468809Y-13517524D02*
X11421190Y-13517524D01*
X11421190Y-13517524D02*
X11402143Y-13508000D01*
X11402143Y-13508000D02*
X11392619Y-13488952D01*
X11392619Y-13488952D02*
X11392619Y-13469905D01*
X11392619Y-13469905D02*
X11402143Y-13450857D01*
X11402143Y-13450857D02*
X11421190Y-13441333D01*
X11421190Y-13441333D02*
X11468809Y-13441333D01*
X11468809Y-13441333D02*
X11487857Y-13431809D01*
X11583095Y-13384190D02*
X11583095Y-13584190D01*
X11583095Y-13393714D02*
X11602143Y-13384190D01*
X11602143Y-13384190D02*
X11640238Y-13384190D01*
X11640238Y-13384190D02*
X11659286Y-13393714D01*
X11659286Y-13393714D02*
X11668809Y-13403238D01*
X11668809Y-13403238D02*
X11678333Y-13422286D01*
X11678333Y-13422286D02*
X11678333Y-13479428D01*
X11678333Y-13479428D02*
X11668809Y-13498476D01*
X11668809Y-13498476D02*
X11659286Y-13508000D01*
X11659286Y-13508000D02*
X11640238Y-13517524D01*
X11640238Y-13517524D02*
X11602143Y-13517524D01*
X11602143Y-13517524D02*
X11583095Y-13508000D01*
X11764048Y-13498476D02*
X11773571Y-13508000D01*
X11773571Y-13508000D02*
X11764048Y-13517524D01*
X11764048Y-13517524D02*
X11754524Y-13508000D01*
X11754524Y-13508000D02*
X11764048Y-13498476D01*
X11764048Y-13498476D02*
X11764048Y-13517524D01*
X11764048Y-13393714D02*
X11773571Y-13403238D01*
X11773571Y-13403238D02*
X11764048Y-13412762D01*
X11764048Y-13412762D02*
X11754524Y-13403238D01*
X11754524Y-13403238D02*
X11764048Y-13393714D01*
X11764048Y-13393714D02*
X11764048Y-13412762D01*
D12*
X10043000Y-13794000D02*
X10145000Y-13896000D01*
X10145000Y-13794000D02*
X10043000Y-13896000D01*
D11*
X10497381Y-13937524D02*
X10383095Y-13937524D01*
X10440238Y-13937524D02*
X10440238Y-13737524D01*
X10440238Y-13737524D02*
X10421190Y-13766095D01*
X10421190Y-13766095D02*
X10402143Y-13785143D01*
X10402143Y-13785143D02*
X10383095Y-13794667D01*
X10583095Y-13918476D02*
X10592619Y-13928000D01*
X10592619Y-13928000D02*
X10583095Y-13937524D01*
X10583095Y-13937524D02*
X10573571Y-13928000D01*
X10573571Y-13928000D02*
X10583095Y-13918476D01*
X10583095Y-13918476D02*
X10583095Y-13937524D01*
X10716429Y-13737524D02*
X10735476Y-13737524D01*
X10735476Y-13737524D02*
X10754524Y-13747048D01*
X10754524Y-13747048D02*
X10764048Y-13756571D01*
X10764048Y-13756571D02*
X10773571Y-13775619D01*
X10773571Y-13775619D02*
X10783095Y-13813714D01*
X10783095Y-13813714D02*
X10783095Y-13861333D01*
X10783095Y-13861333D02*
X10773571Y-13899428D01*
X10773571Y-13899428D02*
X10764048Y-13918476D01*
X10764048Y-13918476D02*
X10754524Y-13928000D01*
X10754524Y-13928000D02*
X10735476Y-13937524D01*
X10735476Y-13937524D02*
X10716429Y-13937524D01*
X10716429Y-13937524D02*
X10697381Y-13928000D01*
X10697381Y-13928000D02*
X10687857Y-13918476D01*
X10687857Y-13918476D02*
X10678333Y-13899428D01*
X10678333Y-13899428D02*
X10668810Y-13861333D01*
X10668810Y-13861333D02*
X10668810Y-13813714D01*
X10668810Y-13813714D02*
X10678333Y-13775619D01*
X10678333Y-13775619D02*
X10687857Y-13756571D01*
X10687857Y-13756571D02*
X10697381Y-13747048D01*
X10697381Y-13747048D02*
X10716429Y-13737524D01*
X10859286Y-13756571D02*
X10868810Y-13747048D01*
X10868810Y-13747048D02*
X10887857Y-13737524D01*
X10887857Y-13737524D02*
X10935476Y-13737524D01*
X10935476Y-13737524D02*
X10954524Y-13747048D01*
X10954524Y-13747048D02*
X10964048Y-13756571D01*
X10964048Y-13756571D02*
X10973571Y-13775619D01*
X10973571Y-13775619D02*
X10973571Y-13794667D01*
X10973571Y-13794667D02*
X10964048Y-13823238D01*
X10964048Y-13823238D02*
X10849762Y-13937524D01*
X10849762Y-13937524D02*
X10973571Y-13937524D01*
X11097381Y-13737524D02*
X11116429Y-13737524D01*
X11116429Y-13737524D02*
X11135476Y-13747048D01*
X11135476Y-13747048D02*
X11145000Y-13756571D01*
X11145000Y-13756571D02*
X11154524Y-13775619D01*
X11154524Y-13775619D02*
X11164048Y-13813714D01*
X11164048Y-13813714D02*
X11164048Y-13861333D01*
X11164048Y-13861333D02*
X11154524Y-13899428D01*
X11154524Y-13899428D02*
X11145000Y-13918476D01*
X11145000Y-13918476D02*
X11135476Y-13928000D01*
X11135476Y-13928000D02*
X11116429Y-13937524D01*
X11116429Y-13937524D02*
X11097381Y-13937524D01*
X11097381Y-13937524D02*
X11078333Y-13928000D01*
X11078333Y-13928000D02*
X11068810Y-13918476D01*
X11068810Y-13918476D02*
X11059286Y-13899428D01*
X11059286Y-13899428D02*
X11049762Y-13861333D01*
X11049762Y-13861333D02*
X11049762Y-13813714D01*
X11049762Y-13813714D02*
X11059286Y-13775619D01*
X11059286Y-13775619D02*
X11068810Y-13756571D01*
X11068810Y-13756571D02*
X11078333Y-13747048D01*
X11078333Y-13747048D02*
X11097381Y-13737524D01*
X11249762Y-13937524D02*
X11249762Y-13804190D01*
X11249762Y-13823238D02*
X11259286Y-13813714D01*
X11259286Y-13813714D02*
X11278333Y-13804190D01*
X11278333Y-13804190D02*
X11306905Y-13804190D01*
X11306905Y-13804190D02*
X11325952Y-13813714D01*
X11325952Y-13813714D02*
X11335476Y-13832762D01*
X11335476Y-13832762D02*
X11335476Y-13937524D01*
X11335476Y-13832762D02*
X11345000Y-13813714D01*
X11345000Y-13813714D02*
X11364048Y-13804190D01*
X11364048Y-13804190D02*
X11392619Y-13804190D01*
X11392619Y-13804190D02*
X11411667Y-13813714D01*
X11411667Y-13813714D02*
X11421190Y-13832762D01*
X11421190Y-13832762D02*
X11421190Y-13937524D01*
X11516429Y-13937524D02*
X11516429Y-13804190D01*
X11516429Y-13823238D02*
X11525952Y-13813714D01*
X11525952Y-13813714D02*
X11545000Y-13804190D01*
X11545000Y-13804190D02*
X11573571Y-13804190D01*
X11573571Y-13804190D02*
X11592619Y-13813714D01*
X11592619Y-13813714D02*
X11602143Y-13832762D01*
X11602143Y-13832762D02*
X11602143Y-13937524D01*
X11602143Y-13832762D02*
X11611667Y-13813714D01*
X11611667Y-13813714D02*
X11630714Y-13804190D01*
X11630714Y-13804190D02*
X11659286Y-13804190D01*
X11659286Y-13804190D02*
X11678333Y-13813714D01*
X11678333Y-13813714D02*
X11687857Y-13832762D01*
X11687857Y-13832762D02*
X11687857Y-13937524D01*
X12078333Y-13728000D02*
X11906905Y-13985143D01*
X12335476Y-13737524D02*
X12354524Y-13737524D01*
X12354524Y-13737524D02*
X12373572Y-13747048D01*
X12373572Y-13747048D02*
X12383095Y-13756571D01*
X12383095Y-13756571D02*
X12392619Y-13775619D01*
X12392619Y-13775619D02*
X12402143Y-13813714D01*
X12402143Y-13813714D02*
X12402143Y-13861333D01*
X12402143Y-13861333D02*
X12392619Y-13899428D01*
X12392619Y-13899428D02*
X12383095Y-13918476D01*
X12383095Y-13918476D02*
X12373572Y-13928000D01*
X12373572Y-13928000D02*
X12354524Y-13937524D01*
X12354524Y-13937524D02*
X12335476Y-13937524D01*
X12335476Y-13937524D02*
X12316429Y-13928000D01*
X12316429Y-13928000D02*
X12306905Y-13918476D01*
X12306905Y-13918476D02*
X12297381Y-13899428D01*
X12297381Y-13899428D02*
X12287857Y-13861333D01*
X12287857Y-13861333D02*
X12287857Y-13813714D01*
X12287857Y-13813714D02*
X12297381Y-13775619D01*
X12297381Y-13775619D02*
X12306905Y-13756571D01*
X12306905Y-13756571D02*
X12316429Y-13747048D01*
X12316429Y-13747048D02*
X12335476Y-13737524D01*
X12487857Y-13918476D02*
X12497381Y-13928000D01*
X12497381Y-13928000D02*
X12487857Y-13937524D01*
X12487857Y-13937524D02*
X12478333Y-13928000D01*
X12478333Y-13928000D02*
X12487857Y-13918476D01*
X12487857Y-13918476D02*
X12487857Y-13937524D01*
X12621191Y-13737524D02*
X12640238Y-13737524D01*
X12640238Y-13737524D02*
X12659286Y-13747048D01*
X12659286Y-13747048D02*
X12668810Y-13756571D01*
X12668810Y-13756571D02*
X12678333Y-13775619D01*
X12678333Y-13775619D02*
X12687857Y-13813714D01*
X12687857Y-13813714D02*
X12687857Y-13861333D01*
X12687857Y-13861333D02*
X12678333Y-13899428D01*
X12678333Y-13899428D02*
X12668810Y-13918476D01*
X12668810Y-13918476D02*
X12659286Y-13928000D01*
X12659286Y-13928000D02*
X12640238Y-13937524D01*
X12640238Y-13937524D02*
X12621191Y-13937524D01*
X12621191Y-13937524D02*
X12602143Y-13928000D01*
X12602143Y-13928000D02*
X12592619Y-13918476D01*
X12592619Y-13918476D02*
X12583095Y-13899428D01*
X12583095Y-13899428D02*
X12573572Y-13861333D01*
X12573572Y-13861333D02*
X12573572Y-13813714D01*
X12573572Y-13813714D02*
X12583095Y-13775619D01*
X12583095Y-13775619D02*
X12592619Y-13756571D01*
X12592619Y-13756571D02*
X12602143Y-13747048D01*
X12602143Y-13747048D02*
X12621191Y-13737524D01*
X12859286Y-13804190D02*
X12859286Y-13937524D01*
X12811667Y-13728000D02*
X12764048Y-13870857D01*
X12764048Y-13870857D02*
X12887857Y-13870857D01*
X13002143Y-13737524D02*
X13021191Y-13737524D01*
X13021191Y-13737524D02*
X13040238Y-13747048D01*
X13040238Y-13747048D02*
X13049762Y-13756571D01*
X13049762Y-13756571D02*
X13059286Y-13775619D01*
X13059286Y-13775619D02*
X13068810Y-13813714D01*
X13068810Y-13813714D02*
X13068810Y-13861333D01*
X13068810Y-13861333D02*
X13059286Y-13899428D01*
X13059286Y-13899428D02*
X13049762Y-13918476D01*
X13049762Y-13918476D02*
X13040238Y-13928000D01*
X13040238Y-13928000D02*
X13021191Y-13937524D01*
X13021191Y-13937524D02*
X13002143Y-13937524D01*
X13002143Y-13937524D02*
X12983095Y-13928000D01*
X12983095Y-13928000D02*
X12973572Y-13918476D01*
X12973572Y-13918476D02*
X12964048Y-13899428D01*
X12964048Y-13899428D02*
X12954524Y-13861333D01*
X12954524Y-13861333D02*
X12954524Y-13813714D01*
X12954524Y-13813714D02*
X12964048Y-13775619D01*
X12964048Y-13775619D02*
X12973572Y-13756571D01*
X12973572Y-13756571D02*
X12983095Y-13747048D01*
X12983095Y-13747048D02*
X13002143Y-13737524D01*
X13145000Y-13756571D02*
X13154524Y-13747048D01*
X13154524Y-13747048D02*
X13173572Y-13737524D01*
X13173572Y-13737524D02*
X13221191Y-13737524D01*
X13221191Y-13737524D02*
X13240238Y-13747048D01*
X13240238Y-13747048D02*
X13249762Y-13756571D01*
X13249762Y-13756571D02*
X13259286Y-13775619D01*
X13259286Y-13775619D02*
X13259286Y-13794667D01*
X13259286Y-13794667D02*
X13249762Y-13823238D01*
X13249762Y-13823238D02*
X13135476Y-13937524D01*
X13135476Y-13937524D02*
X13259286Y-13937524D01*
X13335476Y-13737524D02*
X13335476Y-13775619D01*
X13411667Y-13737524D02*
X13411667Y-13775619D01*
X13706905Y-14013714D02*
X13697381Y-14004190D01*
X13697381Y-14004190D02*
X13678334Y-13975619D01*
X13678334Y-13975619D02*
X13668810Y-13956571D01*
X13668810Y-13956571D02*
X13659286Y-13928000D01*
X13659286Y-13928000D02*
X13649762Y-13880381D01*
X13649762Y-13880381D02*
X13649762Y-13842286D01*
X13649762Y-13842286D02*
X13659286Y-13794667D01*
X13659286Y-13794667D02*
X13668810Y-13766095D01*
X13668810Y-13766095D02*
X13678334Y-13747048D01*
X13678334Y-13747048D02*
X13697381Y-13718476D01*
X13697381Y-13718476D02*
X13706905Y-13708952D01*
X13868810Y-13804190D02*
X13868810Y-13937524D01*
X13821191Y-13728000D02*
X13773572Y-13870857D01*
X13773572Y-13870857D02*
X13897381Y-13870857D01*
X13954524Y-13737524D02*
X14078334Y-13737524D01*
X14078334Y-13737524D02*
X14011667Y-13813714D01*
X14011667Y-13813714D02*
X14040238Y-13813714D01*
X14040238Y-13813714D02*
X14059286Y-13823238D01*
X14059286Y-13823238D02*
X14068810Y-13832762D01*
X14068810Y-13832762D02*
X14078334Y-13851809D01*
X14078334Y-13851809D02*
X14078334Y-13899428D01*
X14078334Y-13899428D02*
X14068810Y-13918476D01*
X14068810Y-13918476D02*
X14059286Y-13928000D01*
X14059286Y-13928000D02*
X14040238Y-13937524D01*
X14040238Y-13937524D02*
X13983095Y-13937524D01*
X13983095Y-13937524D02*
X13964048Y-13928000D01*
X13964048Y-13928000D02*
X13954524Y-13918476D01*
X14316429Y-13937524D02*
X14316429Y-13737524D01*
X14402143Y-13937524D02*
X14402143Y-13832762D01*
X14402143Y-13832762D02*
X14392619Y-13813714D01*
X14392619Y-13813714D02*
X14373572Y-13804190D01*
X14373572Y-13804190D02*
X14345000Y-13804190D01*
X14345000Y-13804190D02*
X14325953Y-13813714D01*
X14325953Y-13813714D02*
X14316429Y-13823238D01*
X14525953Y-13937524D02*
X14506905Y-13928000D01*
X14506905Y-13928000D02*
X14497381Y-13918476D01*
X14497381Y-13918476D02*
X14487857Y-13899428D01*
X14487857Y-13899428D02*
X14487857Y-13842286D01*
X14487857Y-13842286D02*
X14497381Y-13823238D01*
X14497381Y-13823238D02*
X14506905Y-13813714D01*
X14506905Y-13813714D02*
X14525953Y-13804190D01*
X14525953Y-13804190D02*
X14554524Y-13804190D01*
X14554524Y-13804190D02*
X14573572Y-13813714D01*
X14573572Y-13813714D02*
X14583096Y-13823238D01*
X14583096Y-13823238D02*
X14592619Y-13842286D01*
X14592619Y-13842286D02*
X14592619Y-13899428D01*
X14592619Y-13899428D02*
X14583096Y-13918476D01*
X14583096Y-13918476D02*
X14573572Y-13928000D01*
X14573572Y-13928000D02*
X14554524Y-13937524D01*
X14554524Y-13937524D02*
X14525953Y-13937524D01*
X14706905Y-13937524D02*
X14687857Y-13928000D01*
X14687857Y-13928000D02*
X14678334Y-13908952D01*
X14678334Y-13908952D02*
X14678334Y-13737524D01*
X14859286Y-13928000D02*
X14840238Y-13937524D01*
X14840238Y-13937524D02*
X14802143Y-13937524D01*
X14802143Y-13937524D02*
X14783096Y-13928000D01*
X14783096Y-13928000D02*
X14773572Y-13908952D01*
X14773572Y-13908952D02*
X14773572Y-13832762D01*
X14773572Y-13832762D02*
X14783096Y-13813714D01*
X14783096Y-13813714D02*
X14802143Y-13804190D01*
X14802143Y-13804190D02*
X14840238Y-13804190D01*
X14840238Y-13804190D02*
X14859286Y-13813714D01*
X14859286Y-13813714D02*
X14868810Y-13832762D01*
X14868810Y-13832762D02*
X14868810Y-13851809D01*
X14868810Y-13851809D02*
X14773572Y-13870857D01*
X14945000Y-13928000D02*
X14964048Y-13937524D01*
X14964048Y-13937524D02*
X15002143Y-13937524D01*
X15002143Y-13937524D02*
X15021191Y-13928000D01*
X15021191Y-13928000D02*
X15030715Y-13908952D01*
X15030715Y-13908952D02*
X15030715Y-13899428D01*
X15030715Y-13899428D02*
X15021191Y-13880381D01*
X15021191Y-13880381D02*
X15002143Y-13870857D01*
X15002143Y-13870857D02*
X14973572Y-13870857D01*
X14973572Y-13870857D02*
X14954524Y-13861333D01*
X14954524Y-13861333D02*
X14945000Y-13842286D01*
X14945000Y-13842286D02*
X14945000Y-13832762D01*
X14945000Y-13832762D02*
X14954524Y-13813714D01*
X14954524Y-13813714D02*
X14973572Y-13804190D01*
X14973572Y-13804190D02*
X15002143Y-13804190D01*
X15002143Y-13804190D02*
X15021191Y-13813714D01*
X15097381Y-14013714D02*
X15106905Y-14004190D01*
X15106905Y-14004190D02*
X15125953Y-13975619D01*
X15125953Y-13975619D02*
X15135477Y-13956571D01*
X15135477Y-13956571D02*
X15145000Y-13928000D01*
X15145000Y-13928000D02*
X15154524Y-13880381D01*
X15154524Y-13880381D02*
X15154524Y-13842286D01*
X15154524Y-13842286D02*
X15145000Y-13794667D01*
X15145000Y-13794667D02*
X15135477Y-13766095D01*
X15135477Y-13766095D02*
X15125953Y-13747048D01*
X15125953Y-13747048D02*
X15106905Y-13718476D01*
X15106905Y-13718476D02*
X15097381Y-13708952D01*
D13*
X10145000Y-14109000D02*
G75*
G03*
X10145000Y-14109000I-75000J0D01*
G01*
D11*
X10497381Y-14201524D02*
X10383095Y-14201524D01*
X10440238Y-14201524D02*
X10440238Y-14001524D01*
X10440238Y-14001524D02*
X10421190Y-14030095D01*
X10421190Y-14030095D02*
X10402143Y-14049143D01*
X10402143Y-14049143D02*
X10383095Y-14058667D01*
X10583095Y-14182476D02*
X10592619Y-14192000D01*
X10592619Y-14192000D02*
X10583095Y-14201524D01*
X10583095Y-14201524D02*
X10573571Y-14192000D01*
X10573571Y-14192000D02*
X10583095Y-14182476D01*
X10583095Y-14182476D02*
X10583095Y-14201524D01*
X10773571Y-14001524D02*
X10678333Y-14001524D01*
X10678333Y-14001524D02*
X10668810Y-14096762D01*
X10668810Y-14096762D02*
X10678333Y-14087238D01*
X10678333Y-14087238D02*
X10697381Y-14077714D01*
X10697381Y-14077714D02*
X10745000Y-14077714D01*
X10745000Y-14077714D02*
X10764048Y-14087238D01*
X10764048Y-14087238D02*
X10773571Y-14096762D01*
X10773571Y-14096762D02*
X10783095Y-14115809D01*
X10783095Y-14115809D02*
X10783095Y-14163428D01*
X10783095Y-14163428D02*
X10773571Y-14182476D01*
X10773571Y-14182476D02*
X10764048Y-14192000D01*
X10764048Y-14192000D02*
X10745000Y-14201524D01*
X10745000Y-14201524D02*
X10697381Y-14201524D01*
X10697381Y-14201524D02*
X10678333Y-14192000D01*
X10678333Y-14192000D02*
X10668810Y-14182476D01*
X10906905Y-14001524D02*
X10925952Y-14001524D01*
X10925952Y-14001524D02*
X10945000Y-14011048D01*
X10945000Y-14011048D02*
X10954524Y-14020571D01*
X10954524Y-14020571D02*
X10964048Y-14039619D01*
X10964048Y-14039619D02*
X10973571Y-14077714D01*
X10973571Y-14077714D02*
X10973571Y-14125333D01*
X10973571Y-14125333D02*
X10964048Y-14163428D01*
X10964048Y-14163428D02*
X10954524Y-14182476D01*
X10954524Y-14182476D02*
X10945000Y-14192000D01*
X10945000Y-14192000D02*
X10925952Y-14201524D01*
X10925952Y-14201524D02*
X10906905Y-14201524D01*
X10906905Y-14201524D02*
X10887857Y-14192000D01*
X10887857Y-14192000D02*
X10878333Y-14182476D01*
X10878333Y-14182476D02*
X10868810Y-14163428D01*
X10868810Y-14163428D02*
X10859286Y-14125333D01*
X10859286Y-14125333D02*
X10859286Y-14077714D01*
X10859286Y-14077714D02*
X10868810Y-14039619D01*
X10868810Y-14039619D02*
X10878333Y-14020571D01*
X10878333Y-14020571D02*
X10887857Y-14011048D01*
X10887857Y-14011048D02*
X10906905Y-14001524D01*
X11097381Y-14001524D02*
X11116429Y-14001524D01*
X11116429Y-14001524D02*
X11135476Y-14011048D01*
X11135476Y-14011048D02*
X11145000Y-14020571D01*
X11145000Y-14020571D02*
X11154524Y-14039619D01*
X11154524Y-14039619D02*
X11164048Y-14077714D01*
X11164048Y-14077714D02*
X11164048Y-14125333D01*
X11164048Y-14125333D02*
X11154524Y-14163428D01*
X11154524Y-14163428D02*
X11145000Y-14182476D01*
X11145000Y-14182476D02*
X11135476Y-14192000D01*
X11135476Y-14192000D02*
X11116429Y-14201524D01*
X11116429Y-14201524D02*
X11097381Y-14201524D01*
X11097381Y-14201524D02*
X11078333Y-14192000D01*
X11078333Y-14192000D02*
X11068810Y-14182476D01*
X11068810Y-14182476D02*
X11059286Y-14163428D01*
X11059286Y-14163428D02*
X11049762Y-14125333D01*
X11049762Y-14125333D02*
X11049762Y-14077714D01*
X11049762Y-14077714D02*
X11059286Y-14039619D01*
X11059286Y-14039619D02*
X11068810Y-14020571D01*
X11068810Y-14020571D02*
X11078333Y-14011048D01*
X11078333Y-14011048D02*
X11097381Y-14001524D01*
X11249762Y-14201524D02*
X11249762Y-14068190D01*
X11249762Y-14087238D02*
X11259286Y-14077714D01*
X11259286Y-14077714D02*
X11278333Y-14068190D01*
X11278333Y-14068190D02*
X11306905Y-14068190D01*
X11306905Y-14068190D02*
X11325952Y-14077714D01*
X11325952Y-14077714D02*
X11335476Y-14096762D01*
X11335476Y-14096762D02*
X11335476Y-14201524D01*
X11335476Y-14096762D02*
X11345000Y-14077714D01*
X11345000Y-14077714D02*
X11364048Y-14068190D01*
X11364048Y-14068190D02*
X11392619Y-14068190D01*
X11392619Y-14068190D02*
X11411667Y-14077714D01*
X11411667Y-14077714D02*
X11421190Y-14096762D01*
X11421190Y-14096762D02*
X11421190Y-14201524D01*
X11516429Y-14201524D02*
X11516429Y-14068190D01*
X11516429Y-14087238D02*
X11525952Y-14077714D01*
X11525952Y-14077714D02*
X11545000Y-14068190D01*
X11545000Y-14068190D02*
X11573571Y-14068190D01*
X11573571Y-14068190D02*
X11592619Y-14077714D01*
X11592619Y-14077714D02*
X11602143Y-14096762D01*
X11602143Y-14096762D02*
X11602143Y-14201524D01*
X11602143Y-14096762D02*
X11611667Y-14077714D01*
X11611667Y-14077714D02*
X11630714Y-14068190D01*
X11630714Y-14068190D02*
X11659286Y-14068190D01*
X11659286Y-14068190D02*
X11678333Y-14077714D01*
X11678333Y-14077714D02*
X11687857Y-14096762D01*
X11687857Y-14096762D02*
X11687857Y-14201524D01*
X12078333Y-13992000D02*
X11906905Y-14249143D01*
X12335476Y-14001524D02*
X12354524Y-14001524D01*
X12354524Y-14001524D02*
X12373572Y-14011048D01*
X12373572Y-14011048D02*
X12383095Y-14020571D01*
X12383095Y-14020571D02*
X12392619Y-14039619D01*
X12392619Y-14039619D02*
X12402143Y-14077714D01*
X12402143Y-14077714D02*
X12402143Y-14125333D01*
X12402143Y-14125333D02*
X12392619Y-14163428D01*
X12392619Y-14163428D02*
X12383095Y-14182476D01*
X12383095Y-14182476D02*
X12373572Y-14192000D01*
X12373572Y-14192000D02*
X12354524Y-14201524D01*
X12354524Y-14201524D02*
X12335476Y-14201524D01*
X12335476Y-14201524D02*
X12316429Y-14192000D01*
X12316429Y-14192000D02*
X12306905Y-14182476D01*
X12306905Y-14182476D02*
X12297381Y-14163428D01*
X12297381Y-14163428D02*
X12287857Y-14125333D01*
X12287857Y-14125333D02*
X12287857Y-14077714D01*
X12287857Y-14077714D02*
X12297381Y-14039619D01*
X12297381Y-14039619D02*
X12306905Y-14020571D01*
X12306905Y-14020571D02*
X12316429Y-14011048D01*
X12316429Y-14011048D02*
X12335476Y-14001524D01*
X12487857Y-14182476D02*
X12497381Y-14192000D01*
X12497381Y-14192000D02*
X12487857Y-14201524D01*
X12487857Y-14201524D02*
X12478333Y-14192000D01*
X12478333Y-14192000D02*
X12487857Y-14182476D01*
X12487857Y-14182476D02*
X12487857Y-14201524D01*
X12621191Y-14001524D02*
X12640238Y-14001524D01*
X12640238Y-14001524D02*
X12659286Y-14011048D01*
X12659286Y-14011048D02*
X12668810Y-14020571D01*
X12668810Y-14020571D02*
X12678333Y-14039619D01*
X12678333Y-14039619D02*
X12687857Y-14077714D01*
X12687857Y-14077714D02*
X12687857Y-14125333D01*
X12687857Y-14125333D02*
X12678333Y-14163428D01*
X12678333Y-14163428D02*
X12668810Y-14182476D01*
X12668810Y-14182476D02*
X12659286Y-14192000D01*
X12659286Y-14192000D02*
X12640238Y-14201524D01*
X12640238Y-14201524D02*
X12621191Y-14201524D01*
X12621191Y-14201524D02*
X12602143Y-14192000D01*
X12602143Y-14192000D02*
X12592619Y-14182476D01*
X12592619Y-14182476D02*
X12583095Y-14163428D01*
X12583095Y-14163428D02*
X12573572Y-14125333D01*
X12573572Y-14125333D02*
X12573572Y-14077714D01*
X12573572Y-14077714D02*
X12583095Y-14039619D01*
X12583095Y-14039619D02*
X12592619Y-14020571D01*
X12592619Y-14020571D02*
X12602143Y-14011048D01*
X12602143Y-14011048D02*
X12621191Y-14001524D01*
X12868810Y-14001524D02*
X12773572Y-14001524D01*
X12773572Y-14001524D02*
X12764048Y-14096762D01*
X12764048Y-14096762D02*
X12773572Y-14087238D01*
X12773572Y-14087238D02*
X12792619Y-14077714D01*
X12792619Y-14077714D02*
X12840238Y-14077714D01*
X12840238Y-14077714D02*
X12859286Y-14087238D01*
X12859286Y-14087238D02*
X12868810Y-14096762D01*
X12868810Y-14096762D02*
X12878333Y-14115809D01*
X12878333Y-14115809D02*
X12878333Y-14163428D01*
X12878333Y-14163428D02*
X12868810Y-14182476D01*
X12868810Y-14182476D02*
X12859286Y-14192000D01*
X12859286Y-14192000D02*
X12840238Y-14201524D01*
X12840238Y-14201524D02*
X12792619Y-14201524D01*
X12792619Y-14201524D02*
X12773572Y-14192000D01*
X12773572Y-14192000D02*
X12764048Y-14182476D01*
X12973572Y-14201524D02*
X13011667Y-14201524D01*
X13011667Y-14201524D02*
X13030714Y-14192000D01*
X13030714Y-14192000D02*
X13040238Y-14182476D01*
X13040238Y-14182476D02*
X13059286Y-14153905D01*
X13059286Y-14153905D02*
X13068810Y-14115809D01*
X13068810Y-14115809D02*
X13068810Y-14039619D01*
X13068810Y-14039619D02*
X13059286Y-14020571D01*
X13059286Y-14020571D02*
X13049762Y-14011048D01*
X13049762Y-14011048D02*
X13030714Y-14001524D01*
X13030714Y-14001524D02*
X12992619Y-14001524D01*
X12992619Y-14001524D02*
X12973572Y-14011048D01*
X12973572Y-14011048D02*
X12964048Y-14020571D01*
X12964048Y-14020571D02*
X12954524Y-14039619D01*
X12954524Y-14039619D02*
X12954524Y-14087238D01*
X12954524Y-14087238D02*
X12964048Y-14106286D01*
X12964048Y-14106286D02*
X12973572Y-14115809D01*
X12973572Y-14115809D02*
X12992619Y-14125333D01*
X12992619Y-14125333D02*
X13030714Y-14125333D01*
X13030714Y-14125333D02*
X13049762Y-14115809D01*
X13049762Y-14115809D02*
X13059286Y-14106286D01*
X13059286Y-14106286D02*
X13068810Y-14087238D01*
X13259286Y-14201524D02*
X13145000Y-14201524D01*
X13202143Y-14201524D02*
X13202143Y-14001524D01*
X13202143Y-14001524D02*
X13183095Y-14030095D01*
X13183095Y-14030095D02*
X13164048Y-14049143D01*
X13164048Y-14049143D02*
X13145000Y-14058667D01*
X13335476Y-14001524D02*
X13335476Y-14039619D01*
X13411667Y-14001524D02*
X13411667Y-14039619D01*
X13706905Y-14277714D02*
X13697381Y-14268190D01*
X13697381Y-14268190D02*
X13678334Y-14239619D01*
X13678334Y-14239619D02*
X13668810Y-14220571D01*
X13668810Y-14220571D02*
X13659286Y-14192000D01*
X13659286Y-14192000D02*
X13649762Y-14144381D01*
X13649762Y-14144381D02*
X13649762Y-14106286D01*
X13649762Y-14106286D02*
X13659286Y-14058667D01*
X13659286Y-14058667D02*
X13668810Y-14030095D01*
X13668810Y-14030095D02*
X13678334Y-14011048D01*
X13678334Y-14011048D02*
X13697381Y-13982476D01*
X13697381Y-13982476D02*
X13706905Y-13972952D01*
X13887857Y-14201524D02*
X13773572Y-14201524D01*
X13830714Y-14201524D02*
X13830714Y-14001524D01*
X13830714Y-14001524D02*
X13811667Y-14030095D01*
X13811667Y-14030095D02*
X13792619Y-14049143D01*
X13792619Y-14049143D02*
X13773572Y-14058667D01*
X13964048Y-14020571D02*
X13973572Y-14011048D01*
X13973572Y-14011048D02*
X13992619Y-14001524D01*
X13992619Y-14001524D02*
X14040238Y-14001524D01*
X14040238Y-14001524D02*
X14059286Y-14011048D01*
X14059286Y-14011048D02*
X14068810Y-14020571D01*
X14068810Y-14020571D02*
X14078334Y-14039619D01*
X14078334Y-14039619D02*
X14078334Y-14058667D01*
X14078334Y-14058667D02*
X14068810Y-14087238D01*
X14068810Y-14087238D02*
X13954524Y-14201524D01*
X13954524Y-14201524D02*
X14078334Y-14201524D01*
X14316429Y-14201524D02*
X14316429Y-14001524D01*
X14402143Y-14201524D02*
X14402143Y-14096762D01*
X14402143Y-14096762D02*
X14392619Y-14077714D01*
X14392619Y-14077714D02*
X14373572Y-14068190D01*
X14373572Y-14068190D02*
X14345000Y-14068190D01*
X14345000Y-14068190D02*
X14325953Y-14077714D01*
X14325953Y-14077714D02*
X14316429Y-14087238D01*
X14525953Y-14201524D02*
X14506905Y-14192000D01*
X14506905Y-14192000D02*
X14497381Y-14182476D01*
X14497381Y-14182476D02*
X14487857Y-14163428D01*
X14487857Y-14163428D02*
X14487857Y-14106286D01*
X14487857Y-14106286D02*
X14497381Y-14087238D01*
X14497381Y-14087238D02*
X14506905Y-14077714D01*
X14506905Y-14077714D02*
X14525953Y-14068190D01*
X14525953Y-14068190D02*
X14554524Y-14068190D01*
X14554524Y-14068190D02*
X14573572Y-14077714D01*
X14573572Y-14077714D02*
X14583096Y-14087238D01*
X14583096Y-14087238D02*
X14592619Y-14106286D01*
X14592619Y-14106286D02*
X14592619Y-14163428D01*
X14592619Y-14163428D02*
X14583096Y-14182476D01*
X14583096Y-14182476D02*
X14573572Y-14192000D01*
X14573572Y-14192000D02*
X14554524Y-14201524D01*
X14554524Y-14201524D02*
X14525953Y-14201524D01*
X14706905Y-14201524D02*
X14687857Y-14192000D01*
X14687857Y-14192000D02*
X14678334Y-14172952D01*
X14678334Y-14172952D02*
X14678334Y-14001524D01*
X14859286Y-14192000D02*
X14840238Y-14201524D01*
X14840238Y-14201524D02*
X14802143Y-14201524D01*
X14802143Y-14201524D02*
X14783096Y-14192000D01*
X14783096Y-14192000D02*
X14773572Y-14172952D01*
X14773572Y-14172952D02*
X14773572Y-14096762D01*
X14773572Y-14096762D02*
X14783096Y-14077714D01*
X14783096Y-14077714D02*
X14802143Y-14068190D01*
X14802143Y-14068190D02*
X14840238Y-14068190D01*
X14840238Y-14068190D02*
X14859286Y-14077714D01*
X14859286Y-14077714D02*
X14868810Y-14096762D01*
X14868810Y-14096762D02*
X14868810Y-14115809D01*
X14868810Y-14115809D02*
X14773572Y-14134857D01*
X14945000Y-14192000D02*
X14964048Y-14201524D01*
X14964048Y-14201524D02*
X15002143Y-14201524D01*
X15002143Y-14201524D02*
X15021191Y-14192000D01*
X15021191Y-14192000D02*
X15030715Y-14172952D01*
X15030715Y-14172952D02*
X15030715Y-14163428D01*
X15030715Y-14163428D02*
X15021191Y-14144381D01*
X15021191Y-14144381D02*
X15002143Y-14134857D01*
X15002143Y-14134857D02*
X14973572Y-14134857D01*
X14973572Y-14134857D02*
X14954524Y-14125333D01*
X14954524Y-14125333D02*
X14945000Y-14106286D01*
X14945000Y-14106286D02*
X14945000Y-14096762D01*
X14945000Y-14096762D02*
X14954524Y-14077714D01*
X14954524Y-14077714D02*
X14973572Y-14068190D01*
X14973572Y-14068190D02*
X15002143Y-14068190D01*
X15002143Y-14068190D02*
X15021191Y-14077714D01*
X15097381Y-14277714D02*
X15106905Y-14268190D01*
X15106905Y-14268190D02*
X15125953Y-14239619D01*
X15125953Y-14239619D02*
X15135477Y-14220571D01*
X15135477Y-14220571D02*
X15145000Y-14192000D01*
X15145000Y-14192000D02*
X15154524Y-14144381D01*
X15154524Y-14144381D02*
X15154524Y-14106286D01*
X15154524Y-14106286D02*
X15145000Y-14058667D01*
X15145000Y-14058667D02*
X15135477Y-14030095D01*
X15135477Y-14030095D02*
X15125953Y-14011048D01*
X15125953Y-14011048D02*
X15106905Y-13982476D01*
X15106905Y-13982476D02*
X15097381Y-13972952D01*
M02*
