%TF.GenerationSoftware,KiCad,Pcbnew,7.0.1*%
%TF.CreationDate,2023-03-14T08:07:41-04:00*%
%TF.ProjectId,Macropad,4d616372-6f70-4616-942e-6b696361645f,rev?*%
%TF.SameCoordinates,Original*%
%TF.FileFunction,Legend,Top*%
%TF.FilePolarity,Positive*%
%FSLAX46Y46*%
G04 Gerber Fmt 4.6, Leading zero omitted, Abs format (unit mm)*
G04 Created by KiCad (PCBNEW 7.0.1) date 2023-03-14 08:07:41*
%MOMM*%
%LPD*%
G01*
G04 APERTURE LIST*
%ADD10C,0.150000*%
%ADD11C,0.120000*%
G04 APERTURE END LIST*
D10*
X104140001Y-127000000D02*
G75*
G03*
X104140001Y-127000000I-1J0D01*
G01*
X106680001Y-129540000D02*
G75*
G03*
X106680001Y-129540000I-1J0D01*
G01*
X106680001Y-124460000D02*
G75*
G03*
X106680001Y-124460000I-1J0D01*
G01*
X106680001Y-124460000D02*
G75*
G03*
X106680001Y-124460000I-1J0D01*
G01*
X154940001Y-124460000D02*
G75*
G03*
X154940001Y-124460000I-1J0D01*
G01*
X160020001Y-129540000D02*
G75*
G03*
X160020001Y-129540000I-1J0D01*
G01*
X147320001Y-127000000D02*
G75*
G03*
X147320001Y-127000000I-1J0D01*
G01*
X124460001Y-124460000D02*
G75*
G03*
X124460001Y-124460000I-1J0D01*
G01*
X160020001Y-124460000D02*
G75*
G03*
X160020001Y-124460000I-1J0D01*
G01*
X127000001Y-127000000D02*
G75*
G03*
X127000001Y-127000000I-1J0D01*
G01*
X134620001Y-124460000D02*
G75*
G03*
X134620001Y-124460000I-1J0D01*
G01*
X154940001Y-129540000D02*
G75*
G03*
X154940001Y-129540000I-1J0D01*
G01*
X142240001Y-127000000D02*
G75*
G03*
X142240001Y-127000000I-1J0D01*
G01*
X139700001Y-129540000D02*
G75*
G03*
X139700001Y-129540000I-1J0D01*
G01*
X137160001Y-127000000D02*
G75*
G03*
X137160001Y-127000000I-1J0D01*
G01*
X134620001Y-129540000D02*
G75*
G03*
X134620001Y-129540000I-1J0D01*
G01*
X121920001Y-127000000D02*
G75*
G03*
X121920001Y-127000000I-1J0D01*
G01*
X129540001Y-129540000D02*
G75*
G03*
X129540001Y-129540000I-1J0D01*
G01*
X170180001Y-124460000D02*
G75*
G03*
X170180001Y-124460000I-1J0D01*
G01*
X129540001Y-124460000D02*
G75*
G03*
X129540001Y-124460000I-1J0D01*
G01*
X149860001Y-124460000D02*
G75*
G03*
X149860001Y-124460000I-1J0D01*
G01*
X149860001Y-129540000D02*
G75*
G03*
X149860001Y-129540000I-1J0D01*
G01*
X132080001Y-127000000D02*
G75*
G03*
X132080001Y-127000000I-1J0D01*
G01*
X144780001Y-129540000D02*
G75*
G03*
X144780001Y-129540000I-1J0D01*
G01*
X144780001Y-124460000D02*
G75*
G03*
X144780001Y-124460000I-1J0D01*
G01*
X139700001Y-124460000D02*
G75*
G03*
X139700001Y-124460000I-1J0D01*
G01*
X152400001Y-127000000D02*
G75*
G03*
X152400001Y-127000000I-1J0D01*
G01*
X119380001Y-129540000D02*
G75*
G03*
X119380001Y-129540000I-1J0D01*
G01*
X162560001Y-127000000D02*
G75*
G03*
X162560001Y-127000000I-1J0D01*
G01*
X116840001Y-127000000D02*
G75*
G03*
X116840001Y-127000000I-1J0D01*
G01*
X119380001Y-124460000D02*
G75*
G03*
X119380001Y-124460000I-1J0D01*
G01*
X170180001Y-129540000D02*
G75*
G03*
X170180001Y-129540000I-1J0D01*
G01*
X167640001Y-127000000D02*
G75*
G03*
X167640001Y-127000000I-1J0D01*
G01*
X165100001Y-124460000D02*
G75*
G03*
X165100001Y-124460000I-1J0D01*
G01*
X124460001Y-129540000D02*
G75*
G03*
X124460001Y-129540000I-1J0D01*
G01*
X157480001Y-127000000D02*
G75*
G03*
X157480001Y-127000000I-1J0D01*
G01*
X165100001Y-129540000D02*
G75*
G03*
X165100001Y-129540000I-1J0D01*
G01*
X111874285Y-77793142D02*
X112331428Y-77793142D01*
X112045714Y-77393142D02*
X112045714Y-78421714D01*
X112045714Y-78421714D02*
X112102857Y-78536000D01*
X112102857Y-78536000D02*
X112217142Y-78593142D01*
X112217142Y-78593142D02*
X112331428Y-78593142D01*
X112731428Y-78593142D02*
X112731428Y-77393142D01*
X113245714Y-78593142D02*
X113245714Y-77964571D01*
X113245714Y-77964571D02*
X113188571Y-77850285D01*
X113188571Y-77850285D02*
X113074285Y-77793142D01*
X113074285Y-77793142D02*
X112902856Y-77793142D01*
X112902856Y-77793142D02*
X112788571Y-77850285D01*
X112788571Y-77850285D02*
X112731428Y-77907428D01*
X114274285Y-78536000D02*
X114159999Y-78593142D01*
X114159999Y-78593142D02*
X113931428Y-78593142D01*
X113931428Y-78593142D02*
X113817142Y-78536000D01*
X113817142Y-78536000D02*
X113759999Y-78421714D01*
X113759999Y-78421714D02*
X113759999Y-77964571D01*
X113759999Y-77964571D02*
X113817142Y-77850285D01*
X113817142Y-77850285D02*
X113931428Y-77793142D01*
X113931428Y-77793142D02*
X114159999Y-77793142D01*
X114159999Y-77793142D02*
X114274285Y-77850285D01*
X114274285Y-77850285D02*
X114331428Y-77964571D01*
X114331428Y-77964571D02*
X114331428Y-78078857D01*
X114331428Y-78078857D02*
X113759999Y-78193142D01*
X114845713Y-78593142D02*
X114845713Y-77793142D01*
X114845713Y-77907428D02*
X114902856Y-77850285D01*
X114902856Y-77850285D02*
X115017141Y-77793142D01*
X115017141Y-77793142D02*
X115188570Y-77793142D01*
X115188570Y-77793142D02*
X115302856Y-77850285D01*
X115302856Y-77850285D02*
X115359999Y-77964571D01*
X115359999Y-77964571D02*
X115359999Y-78593142D01*
X115359999Y-77964571D02*
X115417141Y-77850285D01*
X115417141Y-77850285D02*
X115531427Y-77793142D01*
X115531427Y-77793142D02*
X115702856Y-77793142D01*
X115702856Y-77793142D02*
X115817141Y-77850285D01*
X115817141Y-77850285D02*
X115874284Y-77964571D01*
X115874284Y-77964571D02*
X115874284Y-78593142D01*
X117359999Y-78593142D02*
X117359999Y-77393142D01*
X117359999Y-77850285D02*
X117474285Y-77793142D01*
X117474285Y-77793142D02*
X117702856Y-77793142D01*
X117702856Y-77793142D02*
X117817142Y-77850285D01*
X117817142Y-77850285D02*
X117874285Y-77907428D01*
X117874285Y-77907428D02*
X117931427Y-78021714D01*
X117931427Y-78021714D02*
X117931427Y-78364571D01*
X117931427Y-78364571D02*
X117874285Y-78478857D01*
X117874285Y-78478857D02*
X117817142Y-78536000D01*
X117817142Y-78536000D02*
X117702856Y-78593142D01*
X117702856Y-78593142D02*
X117474285Y-78593142D01*
X117474285Y-78593142D02*
X117359999Y-78536000D01*
X118445713Y-78593142D02*
X118445713Y-77793142D01*
X118445713Y-77393142D02*
X118388570Y-77450285D01*
X118388570Y-77450285D02*
X118445713Y-77507428D01*
X118445713Y-77507428D02*
X118502856Y-77450285D01*
X118502856Y-77450285D02*
X118445713Y-77393142D01*
X118445713Y-77393142D02*
X118445713Y-77507428D01*
X119531428Y-77793142D02*
X119531428Y-78764571D01*
X119531428Y-78764571D02*
X119474285Y-78878857D01*
X119474285Y-78878857D02*
X119417142Y-78936000D01*
X119417142Y-78936000D02*
X119302856Y-78993142D01*
X119302856Y-78993142D02*
X119131428Y-78993142D01*
X119131428Y-78993142D02*
X119017142Y-78936000D01*
X119531428Y-78536000D02*
X119417142Y-78593142D01*
X119417142Y-78593142D02*
X119188570Y-78593142D01*
X119188570Y-78593142D02*
X119074285Y-78536000D01*
X119074285Y-78536000D02*
X119017142Y-78478857D01*
X119017142Y-78478857D02*
X118959999Y-78364571D01*
X118959999Y-78364571D02*
X118959999Y-78021714D01*
X118959999Y-78021714D02*
X119017142Y-77907428D01*
X119017142Y-77907428D02*
X119074285Y-77850285D01*
X119074285Y-77850285D02*
X119188570Y-77793142D01*
X119188570Y-77793142D02*
X119417142Y-77793142D01*
X119417142Y-77793142D02*
X119531428Y-77850285D01*
X121531428Y-77793142D02*
X121531428Y-78764571D01*
X121531428Y-78764571D02*
X121474285Y-78878857D01*
X121474285Y-78878857D02*
X121417142Y-78936000D01*
X121417142Y-78936000D02*
X121302856Y-78993142D01*
X121302856Y-78993142D02*
X121131428Y-78993142D01*
X121131428Y-78993142D02*
X121017142Y-78936000D01*
X121531428Y-78536000D02*
X121417142Y-78593142D01*
X121417142Y-78593142D02*
X121188570Y-78593142D01*
X121188570Y-78593142D02*
X121074285Y-78536000D01*
X121074285Y-78536000D02*
X121017142Y-78478857D01*
X121017142Y-78478857D02*
X120959999Y-78364571D01*
X120959999Y-78364571D02*
X120959999Y-78021714D01*
X120959999Y-78021714D02*
X121017142Y-77907428D01*
X121017142Y-77907428D02*
X121074285Y-77850285D01*
X121074285Y-77850285D02*
X121188570Y-77793142D01*
X121188570Y-77793142D02*
X121417142Y-77793142D01*
X121417142Y-77793142D02*
X121531428Y-77850285D01*
X122102856Y-78593142D02*
X122102856Y-77793142D01*
X122102856Y-78021714D02*
X122159999Y-77907428D01*
X122159999Y-77907428D02*
X122217142Y-77850285D01*
X122217142Y-77850285D02*
X122331427Y-77793142D01*
X122331427Y-77793142D02*
X122445713Y-77793142D01*
X123302856Y-78536000D02*
X123188570Y-78593142D01*
X123188570Y-78593142D02*
X122959999Y-78593142D01*
X122959999Y-78593142D02*
X122845713Y-78536000D01*
X122845713Y-78536000D02*
X122788570Y-78421714D01*
X122788570Y-78421714D02*
X122788570Y-77964571D01*
X122788570Y-77964571D02*
X122845713Y-77850285D01*
X122845713Y-77850285D02*
X122959999Y-77793142D01*
X122959999Y-77793142D02*
X123188570Y-77793142D01*
X123188570Y-77793142D02*
X123302856Y-77850285D01*
X123302856Y-77850285D02*
X123359999Y-77964571D01*
X123359999Y-77964571D02*
X123359999Y-78078857D01*
X123359999Y-78078857D02*
X122788570Y-78193142D01*
X124331427Y-78536000D02*
X124217141Y-78593142D01*
X124217141Y-78593142D02*
X123988570Y-78593142D01*
X123988570Y-78593142D02*
X123874284Y-78536000D01*
X123874284Y-78536000D02*
X123817141Y-78421714D01*
X123817141Y-78421714D02*
X123817141Y-77964571D01*
X123817141Y-77964571D02*
X123874284Y-77850285D01*
X123874284Y-77850285D02*
X123988570Y-77793142D01*
X123988570Y-77793142D02*
X124217141Y-77793142D01*
X124217141Y-77793142D02*
X124331427Y-77850285D01*
X124331427Y-77850285D02*
X124388570Y-77964571D01*
X124388570Y-77964571D02*
X124388570Y-78078857D01*
X124388570Y-78078857D02*
X123817141Y-78193142D01*
X124902855Y-77793142D02*
X124902855Y-78593142D01*
X124902855Y-77907428D02*
X124959998Y-77850285D01*
X124959998Y-77850285D02*
X125074283Y-77793142D01*
X125074283Y-77793142D02*
X125245712Y-77793142D01*
X125245712Y-77793142D02*
X125359998Y-77850285D01*
X125359998Y-77850285D02*
X125417141Y-77964571D01*
X125417141Y-77964571D02*
X125417141Y-78593142D01*
X127417141Y-78593142D02*
X127417141Y-77964571D01*
X127417141Y-77964571D02*
X127359998Y-77850285D01*
X127359998Y-77850285D02*
X127245712Y-77793142D01*
X127245712Y-77793142D02*
X127017141Y-77793142D01*
X127017141Y-77793142D02*
X126902855Y-77850285D01*
X127417141Y-78536000D02*
X127302855Y-78593142D01*
X127302855Y-78593142D02*
X127017141Y-78593142D01*
X127017141Y-78593142D02*
X126902855Y-78536000D01*
X126902855Y-78536000D02*
X126845712Y-78421714D01*
X126845712Y-78421714D02*
X126845712Y-78307428D01*
X126845712Y-78307428D02*
X126902855Y-78193142D01*
X126902855Y-78193142D02*
X127017141Y-78136000D01*
X127017141Y-78136000D02*
X127302855Y-78136000D01*
X127302855Y-78136000D02*
X127417141Y-78078857D01*
X128159997Y-78593142D02*
X128045712Y-78536000D01*
X128045712Y-78536000D02*
X127988569Y-78421714D01*
X127988569Y-78421714D02*
X127988569Y-77393142D01*
X128617140Y-78593142D02*
X128617140Y-77793142D01*
X128617140Y-77393142D02*
X128559997Y-77450285D01*
X128559997Y-77450285D02*
X128617140Y-77507428D01*
X128617140Y-77507428D02*
X128674283Y-77450285D01*
X128674283Y-77450285D02*
X128617140Y-77393142D01*
X128617140Y-77393142D02*
X128617140Y-77507428D01*
X129645712Y-78536000D02*
X129531426Y-78593142D01*
X129531426Y-78593142D02*
X129302855Y-78593142D01*
X129302855Y-78593142D02*
X129188569Y-78536000D01*
X129188569Y-78536000D02*
X129131426Y-78421714D01*
X129131426Y-78421714D02*
X129131426Y-77964571D01*
X129131426Y-77964571D02*
X129188569Y-77850285D01*
X129188569Y-77850285D02*
X129302855Y-77793142D01*
X129302855Y-77793142D02*
X129531426Y-77793142D01*
X129531426Y-77793142D02*
X129645712Y-77850285D01*
X129645712Y-77850285D02*
X129702855Y-77964571D01*
X129702855Y-77964571D02*
X129702855Y-78078857D01*
X129702855Y-78078857D02*
X129131426Y-78193142D01*
X130217140Y-77793142D02*
X130217140Y-78593142D01*
X130217140Y-77907428D02*
X130274283Y-77850285D01*
X130274283Y-77850285D02*
X130388568Y-77793142D01*
X130388568Y-77793142D02*
X130559997Y-77793142D01*
X130559997Y-77793142D02*
X130674283Y-77850285D01*
X130674283Y-77850285D02*
X130731426Y-77964571D01*
X130731426Y-77964571D02*
X130731426Y-78593142D01*
X131245711Y-78536000D02*
X131359997Y-78593142D01*
X131359997Y-78593142D02*
X131588568Y-78593142D01*
X131588568Y-78593142D02*
X131702854Y-78536000D01*
X131702854Y-78536000D02*
X131759997Y-78421714D01*
X131759997Y-78421714D02*
X131759997Y-78364571D01*
X131759997Y-78364571D02*
X131702854Y-78250285D01*
X131702854Y-78250285D02*
X131588568Y-78193142D01*
X131588568Y-78193142D02*
X131417140Y-78193142D01*
X131417140Y-78193142D02*
X131302854Y-78136000D01*
X131302854Y-78136000D02*
X131245711Y-78021714D01*
X131245711Y-78021714D02*
X131245711Y-77964571D01*
X131245711Y-77964571D02*
X131302854Y-77850285D01*
X131302854Y-77850285D02*
X131417140Y-77793142D01*
X131417140Y-77793142D02*
X131588568Y-77793142D01*
X131588568Y-77793142D02*
X131702854Y-77850285D01*
X133017140Y-77793142D02*
X133474283Y-77793142D01*
X133188569Y-77393142D02*
X133188569Y-78421714D01*
X133188569Y-78421714D02*
X133245712Y-78536000D01*
X133245712Y-78536000D02*
X133359997Y-78593142D01*
X133359997Y-78593142D02*
X133474283Y-78593142D01*
X133874283Y-78593142D02*
X133874283Y-77393142D01*
X134388569Y-78593142D02*
X134388569Y-77964571D01*
X134388569Y-77964571D02*
X134331426Y-77850285D01*
X134331426Y-77850285D02*
X134217140Y-77793142D01*
X134217140Y-77793142D02*
X134045711Y-77793142D01*
X134045711Y-77793142D02*
X133931426Y-77850285D01*
X133931426Y-77850285D02*
X133874283Y-77907428D01*
X135417140Y-78536000D02*
X135302854Y-78593142D01*
X135302854Y-78593142D02*
X135074283Y-78593142D01*
X135074283Y-78593142D02*
X134959997Y-78536000D01*
X134959997Y-78536000D02*
X134902854Y-78421714D01*
X134902854Y-78421714D02*
X134902854Y-77964571D01*
X134902854Y-77964571D02*
X134959997Y-77850285D01*
X134959997Y-77850285D02*
X135074283Y-77793142D01*
X135074283Y-77793142D02*
X135302854Y-77793142D01*
X135302854Y-77793142D02*
X135417140Y-77850285D01*
X135417140Y-77850285D02*
X135474283Y-77964571D01*
X135474283Y-77964571D02*
X135474283Y-78078857D01*
X135474283Y-78078857D02*
X134902854Y-78193142D01*
X135874282Y-77793142D02*
X136159996Y-78593142D01*
X136445711Y-77793142D02*
X136159996Y-78593142D01*
X136159996Y-78593142D02*
X136045711Y-78878857D01*
X136045711Y-78878857D02*
X135988568Y-78936000D01*
X135988568Y-78936000D02*
X135874282Y-78993142D01*
X138331426Y-78536000D02*
X138217140Y-78593142D01*
X138217140Y-78593142D02*
X137988568Y-78593142D01*
X137988568Y-78593142D02*
X137874283Y-78536000D01*
X137874283Y-78536000D02*
X137817140Y-78478857D01*
X137817140Y-78478857D02*
X137759997Y-78364571D01*
X137759997Y-78364571D02*
X137759997Y-78021714D01*
X137759997Y-78021714D02*
X137817140Y-77907428D01*
X137817140Y-77907428D02*
X137874283Y-77850285D01*
X137874283Y-77850285D02*
X137988568Y-77793142D01*
X137988568Y-77793142D02*
X138217140Y-77793142D01*
X138217140Y-77793142D02*
X138331426Y-77850285D01*
X139359997Y-78593142D02*
X139359997Y-77964571D01*
X139359997Y-77964571D02*
X139302854Y-77850285D01*
X139302854Y-77850285D02*
X139188568Y-77793142D01*
X139188568Y-77793142D02*
X138959997Y-77793142D01*
X138959997Y-77793142D02*
X138845711Y-77850285D01*
X139359997Y-78536000D02*
X139245711Y-78593142D01*
X139245711Y-78593142D02*
X138959997Y-78593142D01*
X138959997Y-78593142D02*
X138845711Y-78536000D01*
X138845711Y-78536000D02*
X138788568Y-78421714D01*
X138788568Y-78421714D02*
X138788568Y-78307428D01*
X138788568Y-78307428D02*
X138845711Y-78193142D01*
X138845711Y-78193142D02*
X138959997Y-78136000D01*
X138959997Y-78136000D02*
X139245711Y-78136000D01*
X139245711Y-78136000D02*
X139359997Y-78078857D01*
X139931425Y-78593142D02*
X139931425Y-77793142D01*
X139931425Y-77907428D02*
X139988568Y-77850285D01*
X139988568Y-77850285D02*
X140102853Y-77793142D01*
X140102853Y-77793142D02*
X140274282Y-77793142D01*
X140274282Y-77793142D02*
X140388568Y-77850285D01*
X140388568Y-77850285D02*
X140445711Y-77964571D01*
X140445711Y-77964571D02*
X140445711Y-78593142D01*
X140445711Y-77964571D02*
X140502853Y-77850285D01*
X140502853Y-77850285D02*
X140617139Y-77793142D01*
X140617139Y-77793142D02*
X140788568Y-77793142D01*
X140788568Y-77793142D02*
X140902853Y-77850285D01*
X140902853Y-77850285D02*
X140959996Y-77964571D01*
X140959996Y-77964571D02*
X140959996Y-78593142D01*
X141988568Y-78536000D02*
X141874282Y-78593142D01*
X141874282Y-78593142D02*
X141645711Y-78593142D01*
X141645711Y-78593142D02*
X141531425Y-78536000D01*
X141531425Y-78536000D02*
X141474282Y-78421714D01*
X141474282Y-78421714D02*
X141474282Y-77964571D01*
X141474282Y-77964571D02*
X141531425Y-77850285D01*
X141531425Y-77850285D02*
X141645711Y-77793142D01*
X141645711Y-77793142D02*
X141874282Y-77793142D01*
X141874282Y-77793142D02*
X141988568Y-77850285D01*
X141988568Y-77850285D02*
X142045711Y-77964571D01*
X142045711Y-77964571D02*
X142045711Y-78078857D01*
X142045711Y-78078857D02*
X141474282Y-78193142D01*
X143302853Y-77793142D02*
X143759996Y-77793142D01*
X143474282Y-77393142D02*
X143474282Y-78421714D01*
X143474282Y-78421714D02*
X143531425Y-78536000D01*
X143531425Y-78536000D02*
X143645710Y-78593142D01*
X143645710Y-78593142D02*
X143759996Y-78593142D01*
X144159996Y-78593142D02*
X144159996Y-77393142D01*
X144674282Y-78593142D02*
X144674282Y-77964571D01*
X144674282Y-77964571D02*
X144617139Y-77850285D01*
X144617139Y-77850285D02*
X144502853Y-77793142D01*
X144502853Y-77793142D02*
X144331424Y-77793142D01*
X144331424Y-77793142D02*
X144217139Y-77850285D01*
X144217139Y-77850285D02*
X144159996Y-77907428D01*
X145702853Y-78536000D02*
X145588567Y-78593142D01*
X145588567Y-78593142D02*
X145359996Y-78593142D01*
X145359996Y-78593142D02*
X145245710Y-78536000D01*
X145245710Y-78536000D02*
X145188567Y-78421714D01*
X145188567Y-78421714D02*
X145188567Y-77964571D01*
X145188567Y-77964571D02*
X145245710Y-77850285D01*
X145245710Y-77850285D02*
X145359996Y-77793142D01*
X145359996Y-77793142D02*
X145588567Y-77793142D01*
X145588567Y-77793142D02*
X145702853Y-77850285D01*
X145702853Y-77850285D02*
X145759996Y-77964571D01*
X145759996Y-77964571D02*
X145759996Y-78078857D01*
X145759996Y-78078857D02*
X145188567Y-78193142D01*
X146274281Y-78593142D02*
X146274281Y-77793142D01*
X146274281Y-77907428D02*
X146331424Y-77850285D01*
X146331424Y-77850285D02*
X146445709Y-77793142D01*
X146445709Y-77793142D02*
X146617138Y-77793142D01*
X146617138Y-77793142D02*
X146731424Y-77850285D01*
X146731424Y-77850285D02*
X146788567Y-77964571D01*
X146788567Y-77964571D02*
X146788567Y-78593142D01*
X146788567Y-77964571D02*
X146845709Y-77850285D01*
X146845709Y-77850285D02*
X146959995Y-77793142D01*
X146959995Y-77793142D02*
X147131424Y-77793142D01*
X147131424Y-77793142D02*
X147245709Y-77850285D01*
X147245709Y-77850285D02*
X147302852Y-77964571D01*
X147302852Y-77964571D02*
X147302852Y-78593142D01*
X149302853Y-77793142D02*
X149302853Y-78764571D01*
X149302853Y-78764571D02*
X149245710Y-78878857D01*
X149245710Y-78878857D02*
X149188567Y-78936000D01*
X149188567Y-78936000D02*
X149074281Y-78993142D01*
X149074281Y-78993142D02*
X148902853Y-78993142D01*
X148902853Y-78993142D02*
X148788567Y-78936000D01*
X149302853Y-78536000D02*
X149188567Y-78593142D01*
X149188567Y-78593142D02*
X148959995Y-78593142D01*
X148959995Y-78593142D02*
X148845710Y-78536000D01*
X148845710Y-78536000D02*
X148788567Y-78478857D01*
X148788567Y-78478857D02*
X148731424Y-78364571D01*
X148731424Y-78364571D02*
X148731424Y-78021714D01*
X148731424Y-78021714D02*
X148788567Y-77907428D01*
X148788567Y-77907428D02*
X148845710Y-77850285D01*
X148845710Y-77850285D02*
X148959995Y-77793142D01*
X148959995Y-77793142D02*
X149188567Y-77793142D01*
X149188567Y-77793142D02*
X149302853Y-77850285D01*
X150045709Y-78593142D02*
X149931424Y-78536000D01*
X149931424Y-78536000D02*
X149874281Y-78478857D01*
X149874281Y-78478857D02*
X149817138Y-78364571D01*
X149817138Y-78364571D02*
X149817138Y-78021714D01*
X149817138Y-78021714D02*
X149874281Y-77907428D01*
X149874281Y-77907428D02*
X149931424Y-77850285D01*
X149931424Y-77850285D02*
X150045709Y-77793142D01*
X150045709Y-77793142D02*
X150217138Y-77793142D01*
X150217138Y-77793142D02*
X150331424Y-77850285D01*
X150331424Y-77850285D02*
X150388567Y-77907428D01*
X150388567Y-77907428D02*
X150445709Y-78021714D01*
X150445709Y-78021714D02*
X150445709Y-78364571D01*
X150445709Y-78364571D02*
X150388567Y-78478857D01*
X150388567Y-78478857D02*
X150331424Y-78536000D01*
X150331424Y-78536000D02*
X150217138Y-78593142D01*
X150217138Y-78593142D02*
X150045709Y-78593142D01*
X150959995Y-77793142D02*
X150959995Y-78593142D01*
X150959995Y-77907428D02*
X151017138Y-77850285D01*
X151017138Y-77850285D02*
X151131423Y-77793142D01*
X151131423Y-77793142D02*
X151302852Y-77793142D01*
X151302852Y-77793142D02*
X151417138Y-77850285D01*
X151417138Y-77850285D02*
X151474281Y-77964571D01*
X151474281Y-77964571D02*
X151474281Y-78593142D01*
X152502852Y-78536000D02*
X152388566Y-78593142D01*
X152388566Y-78593142D02*
X152159995Y-78593142D01*
X152159995Y-78593142D02*
X152045709Y-78536000D01*
X152045709Y-78536000D02*
X151988566Y-78421714D01*
X151988566Y-78421714D02*
X151988566Y-77964571D01*
X151988566Y-77964571D02*
X152045709Y-77850285D01*
X152045709Y-77850285D02*
X152159995Y-77793142D01*
X152159995Y-77793142D02*
X152388566Y-77793142D01*
X152388566Y-77793142D02*
X152502852Y-77850285D01*
X152502852Y-77850285D02*
X152559995Y-77964571D01*
X152559995Y-77964571D02*
X152559995Y-78078857D01*
X152559995Y-78078857D02*
X151988566Y-78193142D01*
X153817137Y-77793142D02*
X154274280Y-77793142D01*
X153988566Y-77393142D02*
X153988566Y-78421714D01*
X153988566Y-78421714D02*
X154045709Y-78536000D01*
X154045709Y-78536000D02*
X154159994Y-78593142D01*
X154159994Y-78593142D02*
X154274280Y-78593142D01*
X154674280Y-78593142D02*
X154674280Y-77393142D01*
X155188566Y-78593142D02*
X155188566Y-77964571D01*
X155188566Y-77964571D02*
X155131423Y-77850285D01*
X155131423Y-77850285D02*
X155017137Y-77793142D01*
X155017137Y-77793142D02*
X154845708Y-77793142D01*
X154845708Y-77793142D02*
X154731423Y-77850285D01*
X154731423Y-77850285D02*
X154674280Y-77907428D01*
X156217137Y-78536000D02*
X156102851Y-78593142D01*
X156102851Y-78593142D02*
X155874280Y-78593142D01*
X155874280Y-78593142D02*
X155759994Y-78536000D01*
X155759994Y-78536000D02*
X155702851Y-78421714D01*
X155702851Y-78421714D02*
X155702851Y-77964571D01*
X155702851Y-77964571D02*
X155759994Y-77850285D01*
X155759994Y-77850285D02*
X155874280Y-77793142D01*
X155874280Y-77793142D02*
X156102851Y-77793142D01*
X156102851Y-77793142D02*
X156217137Y-77850285D01*
X156217137Y-77850285D02*
X156274280Y-77964571D01*
X156274280Y-77964571D02*
X156274280Y-78078857D01*
X156274280Y-78078857D02*
X155702851Y-78193142D01*
X156674279Y-77793142D02*
X156959993Y-78593142D01*
X157245708Y-77793142D02*
X156959993Y-78593142D01*
X156959993Y-78593142D02*
X156845708Y-78878857D01*
X156845708Y-78878857D02*
X156788565Y-78936000D01*
X156788565Y-78936000D02*
X156674279Y-78993142D01*
X158445708Y-77793142D02*
X158902851Y-77793142D01*
X158617137Y-77393142D02*
X158617137Y-78421714D01*
X158617137Y-78421714D02*
X158674280Y-78536000D01*
X158674280Y-78536000D02*
X158788565Y-78593142D01*
X158788565Y-78593142D02*
X158902851Y-78593142D01*
X159474279Y-78593142D02*
X159359994Y-78536000D01*
X159359994Y-78536000D02*
X159302851Y-78478857D01*
X159302851Y-78478857D02*
X159245708Y-78364571D01*
X159245708Y-78364571D02*
X159245708Y-78021714D01*
X159245708Y-78021714D02*
X159302851Y-77907428D01*
X159302851Y-77907428D02*
X159359994Y-77850285D01*
X159359994Y-77850285D02*
X159474279Y-77793142D01*
X159474279Y-77793142D02*
X159645708Y-77793142D01*
X159645708Y-77793142D02*
X159759994Y-77850285D01*
X159759994Y-77850285D02*
X159817137Y-77907428D01*
X159817137Y-77907428D02*
X159874279Y-78021714D01*
X159874279Y-78021714D02*
X159874279Y-78364571D01*
X159874279Y-78364571D02*
X159817137Y-78478857D01*
X159817137Y-78478857D02*
X159759994Y-78536000D01*
X159759994Y-78536000D02*
X159645708Y-78593142D01*
X159645708Y-78593142D02*
X159474279Y-78593142D01*
X160559993Y-78593142D02*
X160445708Y-78536000D01*
X160445708Y-78536000D02*
X160388565Y-78478857D01*
X160388565Y-78478857D02*
X160331422Y-78364571D01*
X160331422Y-78364571D02*
X160331422Y-78021714D01*
X160331422Y-78021714D02*
X160388565Y-77907428D01*
X160388565Y-77907428D02*
X160445708Y-77850285D01*
X160445708Y-77850285D02*
X160559993Y-77793142D01*
X160559993Y-77793142D02*
X160731422Y-77793142D01*
X160731422Y-77793142D02*
X160845708Y-77850285D01*
X160845708Y-77850285D02*
X160902851Y-77907428D01*
X160902851Y-77907428D02*
X160959993Y-78021714D01*
X160959993Y-78021714D02*
X160959993Y-78364571D01*
X160959993Y-78364571D02*
X160902851Y-78478857D01*
X160902851Y-78478857D02*
X160845708Y-78536000D01*
X160845708Y-78536000D02*
X160731422Y-78593142D01*
X160731422Y-78593142D02*
X160559993Y-78593142D01*
X161474279Y-78593142D02*
X161474279Y-77393142D01*
X161588565Y-78136000D02*
X161931422Y-78593142D01*
X161931422Y-77793142D02*
X161474279Y-78250285D01*
X163359994Y-78593142D02*
X163359994Y-77793142D01*
X163359994Y-77907428D02*
X163417137Y-77850285D01*
X163417137Y-77850285D02*
X163531422Y-77793142D01*
X163531422Y-77793142D02*
X163702851Y-77793142D01*
X163702851Y-77793142D02*
X163817137Y-77850285D01*
X163817137Y-77850285D02*
X163874280Y-77964571D01*
X163874280Y-77964571D02*
X163874280Y-78593142D01*
X163874280Y-77964571D02*
X163931422Y-77850285D01*
X163931422Y-77850285D02*
X164045708Y-77793142D01*
X164045708Y-77793142D02*
X164217137Y-77793142D01*
X164217137Y-77793142D02*
X164331422Y-77850285D01*
X164331422Y-77850285D02*
X164388565Y-77964571D01*
X164388565Y-77964571D02*
X164388565Y-78593142D01*
X164845708Y-77793142D02*
X165131422Y-78593142D01*
X165417137Y-77793142D02*
X165131422Y-78593142D01*
X165131422Y-78593142D02*
X165017137Y-78878857D01*
X165017137Y-78878857D02*
X164959994Y-78936000D01*
X164959994Y-78936000D02*
X164845708Y-78993142D01*
X167302852Y-78536000D02*
X167188566Y-78593142D01*
X167188566Y-78593142D02*
X166959994Y-78593142D01*
X166959994Y-78593142D02*
X166845709Y-78536000D01*
X166845709Y-78536000D02*
X166788566Y-78478857D01*
X166788566Y-78478857D02*
X166731423Y-78364571D01*
X166731423Y-78364571D02*
X166731423Y-78021714D01*
X166731423Y-78021714D02*
X166788566Y-77907428D01*
X166788566Y-77907428D02*
X166845709Y-77850285D01*
X166845709Y-77850285D02*
X166959994Y-77793142D01*
X166959994Y-77793142D02*
X167188566Y-77793142D01*
X167188566Y-77793142D02*
X167302852Y-77850285D01*
X167988565Y-78593142D02*
X167874280Y-78536000D01*
X167874280Y-78536000D02*
X167817137Y-78478857D01*
X167817137Y-78478857D02*
X167759994Y-78364571D01*
X167759994Y-78364571D02*
X167759994Y-78021714D01*
X167759994Y-78021714D02*
X167817137Y-77907428D01*
X167817137Y-77907428D02*
X167874280Y-77850285D01*
X167874280Y-77850285D02*
X167988565Y-77793142D01*
X167988565Y-77793142D02*
X168159994Y-77793142D01*
X168159994Y-77793142D02*
X168274280Y-77850285D01*
X168274280Y-77850285D02*
X168331423Y-77907428D01*
X168331423Y-77907428D02*
X168388565Y-78021714D01*
X168388565Y-78021714D02*
X168388565Y-78364571D01*
X168388565Y-78364571D02*
X168331423Y-78478857D01*
X168331423Y-78478857D02*
X168274280Y-78536000D01*
X168274280Y-78536000D02*
X168159994Y-78593142D01*
X168159994Y-78593142D02*
X167988565Y-78593142D01*
X168788565Y-77793142D02*
X169017137Y-78593142D01*
X169017137Y-78593142D02*
X169245708Y-78021714D01*
X169245708Y-78021714D02*
X169474279Y-78593142D01*
X169474279Y-78593142D02*
X169702851Y-77793142D01*
X170102851Y-78536000D02*
X170217137Y-78593142D01*
X170217137Y-78593142D02*
X170445708Y-78593142D01*
X170445708Y-78593142D02*
X170559994Y-78536000D01*
X170559994Y-78536000D02*
X170617137Y-78421714D01*
X170617137Y-78421714D02*
X170617137Y-78364571D01*
X170617137Y-78364571D02*
X170559994Y-78250285D01*
X170559994Y-78250285D02*
X170445708Y-78193142D01*
X170445708Y-78193142D02*
X170274280Y-78193142D01*
X170274280Y-78193142D02*
X170159994Y-78136000D01*
X170159994Y-78136000D02*
X170102851Y-78021714D01*
X170102851Y-78021714D02*
X170102851Y-77964571D01*
X170102851Y-77964571D02*
X170159994Y-77850285D01*
X170159994Y-77850285D02*
X170274280Y-77793142D01*
X170274280Y-77793142D02*
X170445708Y-77793142D01*
X170445708Y-77793142D02*
X170559994Y-77850285D01*
%TO.C,SW6*%
X153486667Y-104181000D02*
X153629524Y-104228619D01*
X153629524Y-104228619D02*
X153867619Y-104228619D01*
X153867619Y-104228619D02*
X153962857Y-104181000D01*
X153962857Y-104181000D02*
X154010476Y-104133380D01*
X154010476Y-104133380D02*
X154058095Y-104038142D01*
X154058095Y-104038142D02*
X154058095Y-103942904D01*
X154058095Y-103942904D02*
X154010476Y-103847666D01*
X154010476Y-103847666D02*
X153962857Y-103800047D01*
X153962857Y-103800047D02*
X153867619Y-103752428D01*
X153867619Y-103752428D02*
X153677143Y-103704809D01*
X153677143Y-103704809D02*
X153581905Y-103657190D01*
X153581905Y-103657190D02*
X153534286Y-103609571D01*
X153534286Y-103609571D02*
X153486667Y-103514333D01*
X153486667Y-103514333D02*
X153486667Y-103419095D01*
X153486667Y-103419095D02*
X153534286Y-103323857D01*
X153534286Y-103323857D02*
X153581905Y-103276238D01*
X153581905Y-103276238D02*
X153677143Y-103228619D01*
X153677143Y-103228619D02*
X153915238Y-103228619D01*
X153915238Y-103228619D02*
X154058095Y-103276238D01*
X154391429Y-103228619D02*
X154629524Y-104228619D01*
X154629524Y-104228619D02*
X154820000Y-103514333D01*
X154820000Y-103514333D02*
X155010476Y-104228619D01*
X155010476Y-104228619D02*
X155248572Y-103228619D01*
X156058095Y-103228619D02*
X155867619Y-103228619D01*
X155867619Y-103228619D02*
X155772381Y-103276238D01*
X155772381Y-103276238D02*
X155724762Y-103323857D01*
X155724762Y-103323857D02*
X155629524Y-103466714D01*
X155629524Y-103466714D02*
X155581905Y-103657190D01*
X155581905Y-103657190D02*
X155581905Y-104038142D01*
X155581905Y-104038142D02*
X155629524Y-104133380D01*
X155629524Y-104133380D02*
X155677143Y-104181000D01*
X155677143Y-104181000D02*
X155772381Y-104228619D01*
X155772381Y-104228619D02*
X155962857Y-104228619D01*
X155962857Y-104228619D02*
X156058095Y-104181000D01*
X156058095Y-104181000D02*
X156105714Y-104133380D01*
X156105714Y-104133380D02*
X156153333Y-104038142D01*
X156153333Y-104038142D02*
X156153333Y-103800047D01*
X156153333Y-103800047D02*
X156105714Y-103704809D01*
X156105714Y-103704809D02*
X156058095Y-103657190D01*
X156058095Y-103657190D02*
X155962857Y-103609571D01*
X155962857Y-103609571D02*
X155772381Y-103609571D01*
X155772381Y-103609571D02*
X155677143Y-103657190D01*
X155677143Y-103657190D02*
X155629524Y-103704809D01*
X155629524Y-103704809D02*
X155581905Y-103800047D01*
%TO.C,U1*%
X185498095Y-102402619D02*
X185498095Y-103212142D01*
X185498095Y-103212142D02*
X185545714Y-103307380D01*
X185545714Y-103307380D02*
X185593333Y-103355000D01*
X185593333Y-103355000D02*
X185688571Y-103402619D01*
X185688571Y-103402619D02*
X185879047Y-103402619D01*
X185879047Y-103402619D02*
X185974285Y-103355000D01*
X185974285Y-103355000D02*
X186021904Y-103307380D01*
X186021904Y-103307380D02*
X186069523Y-103212142D01*
X186069523Y-103212142D02*
X186069523Y-102402619D01*
X187069523Y-103402619D02*
X186498095Y-103402619D01*
X186783809Y-103402619D02*
X186783809Y-102402619D01*
X186783809Y-102402619D02*
X186688571Y-102545476D01*
X186688571Y-102545476D02*
X186593333Y-102640714D01*
X186593333Y-102640714D02*
X186498095Y-102688333D01*
X198187923Y-86904099D02*
X198538109Y-86553913D01*
X198538109Y-86553913D02*
X198565046Y-86957974D01*
X198565046Y-86957974D02*
X198645859Y-86877162D01*
X198645859Y-86877162D02*
X198726671Y-86850224D01*
X198726671Y-86850224D02*
X198780546Y-86850224D01*
X198780546Y-86850224D02*
X198861358Y-86877162D01*
X198861358Y-86877162D02*
X198996045Y-87011849D01*
X198996045Y-87011849D02*
X199022982Y-87092661D01*
X199022982Y-87092661D02*
X199022982Y-87146536D01*
X199022982Y-87146536D02*
X198996045Y-87227348D01*
X198996045Y-87227348D02*
X198834420Y-87388972D01*
X198834420Y-87388972D02*
X198753608Y-87415910D01*
X198753608Y-87415910D02*
X198699733Y-87415910D01*
X198699733Y-86392288D02*
X199453981Y-86769412D01*
X199453981Y-86769412D02*
X199076857Y-86015165D01*
X199211544Y-85880478D02*
X199561730Y-85530292D01*
X199561730Y-85530292D02*
X199588668Y-85934353D01*
X199588668Y-85934353D02*
X199669480Y-85853541D01*
X199669480Y-85853541D02*
X199750292Y-85826603D01*
X199750292Y-85826603D02*
X199804167Y-85826603D01*
X199804167Y-85826603D02*
X199884979Y-85853541D01*
X199884979Y-85853541D02*
X200019666Y-85988228D01*
X200019666Y-85988228D02*
X200046603Y-86069040D01*
X200046603Y-86069040D02*
X200046603Y-86122915D01*
X200046603Y-86122915D02*
X200019666Y-86203727D01*
X200019666Y-86203727D02*
X199858042Y-86365351D01*
X199858042Y-86365351D02*
X199777229Y-86392289D01*
X199777229Y-86392289D02*
X199723355Y-86392289D01*
X200289040Y-86042102D02*
X200720039Y-85611104D01*
X200504539Y-85126230D02*
X200693101Y-84937669D01*
X201070225Y-85153168D02*
X200800851Y-85422542D01*
X200800851Y-85422542D02*
X200235165Y-84856856D01*
X200235165Y-84856856D02*
X200504539Y-84587482D01*
X201312662Y-84910731D02*
X200746976Y-84345045D01*
X200746976Y-84345045D02*
X201635911Y-84587482D01*
X201635911Y-84587482D02*
X201070225Y-84021797D01*
X172778888Y-78937009D02*
X172698075Y-78963946D01*
X172698075Y-78963946D02*
X172617263Y-79044759D01*
X172617263Y-79044759D02*
X172563388Y-79152508D01*
X172563388Y-79152508D02*
X172563388Y-79260258D01*
X172563388Y-79260258D02*
X172590326Y-79341070D01*
X172590326Y-79341070D02*
X172671138Y-79475757D01*
X172671138Y-79475757D02*
X172751950Y-79556569D01*
X172751950Y-79556569D02*
X172886637Y-79637382D01*
X172886637Y-79637382D02*
X172967449Y-79664319D01*
X172967449Y-79664319D02*
X173075199Y-79664319D01*
X173075199Y-79664319D02*
X173182949Y-79610444D01*
X173182949Y-79610444D02*
X173236823Y-79556569D01*
X173236823Y-79556569D02*
X173290698Y-79448820D01*
X173290698Y-79448820D02*
X173290698Y-79394945D01*
X173290698Y-79394945D02*
X173102136Y-79206383D01*
X173102136Y-79206383D02*
X172994387Y-79314133D01*
X173587010Y-79206383D02*
X173021324Y-78640698D01*
X173021324Y-78640698D02*
X173236823Y-78425198D01*
X173236823Y-78425198D02*
X173317636Y-78398261D01*
X173317636Y-78398261D02*
X173371510Y-78398261D01*
X173371510Y-78398261D02*
X173452323Y-78425198D01*
X173452323Y-78425198D02*
X173533135Y-78506011D01*
X173533135Y-78506011D02*
X173560072Y-78586823D01*
X173560072Y-78586823D02*
X173560072Y-78640698D01*
X173560072Y-78640698D02*
X173533135Y-78721510D01*
X173533135Y-78721510D02*
X173317636Y-78937009D01*
X173694759Y-77967263D02*
X173748634Y-77913388D01*
X173748634Y-77913388D02*
X173829446Y-77886450D01*
X173829446Y-77886450D02*
X173883321Y-77886450D01*
X173883321Y-77886450D02*
X173964133Y-77913388D01*
X173964133Y-77913388D02*
X174098820Y-77994200D01*
X174098820Y-77994200D02*
X174233507Y-78128887D01*
X174233507Y-78128887D02*
X174314319Y-78263574D01*
X174314319Y-78263574D02*
X174341257Y-78344386D01*
X174341257Y-78344386D02*
X174341257Y-78398261D01*
X174341257Y-78398261D02*
X174314319Y-78479073D01*
X174314319Y-78479073D02*
X174260445Y-78532948D01*
X174260445Y-78532948D02*
X174179632Y-78559885D01*
X174179632Y-78559885D02*
X174125758Y-78559885D01*
X174125758Y-78559885D02*
X174044945Y-78532948D01*
X174044945Y-78532948D02*
X173910258Y-78452136D01*
X173910258Y-78452136D02*
X173775571Y-78317449D01*
X173775571Y-78317449D02*
X173694759Y-78182762D01*
X173694759Y-78182762D02*
X173667822Y-78101950D01*
X173667822Y-78101950D02*
X173667822Y-78048075D01*
X173667822Y-78048075D02*
X173694759Y-77967263D01*
X178750475Y-129472000D02*
X178864761Y-129510095D01*
X178864761Y-129510095D02*
X179055237Y-129510095D01*
X179055237Y-129510095D02*
X179131428Y-129472000D01*
X179131428Y-129472000D02*
X179169523Y-129433904D01*
X179169523Y-129433904D02*
X179207618Y-129357714D01*
X179207618Y-129357714D02*
X179207618Y-129281523D01*
X179207618Y-129281523D02*
X179169523Y-129205333D01*
X179169523Y-129205333D02*
X179131428Y-129167238D01*
X179131428Y-129167238D02*
X179055237Y-129129142D01*
X179055237Y-129129142D02*
X178902856Y-129091047D01*
X178902856Y-129091047D02*
X178826666Y-129052952D01*
X178826666Y-129052952D02*
X178788571Y-129014857D01*
X178788571Y-129014857D02*
X178750475Y-128938666D01*
X178750475Y-128938666D02*
X178750475Y-128862476D01*
X178750475Y-128862476D02*
X178788571Y-128786285D01*
X178788571Y-128786285D02*
X178826666Y-128748190D01*
X178826666Y-128748190D02*
X178902856Y-128710095D01*
X178902856Y-128710095D02*
X179093333Y-128710095D01*
X179093333Y-128710095D02*
X179207618Y-128748190D01*
X179474285Y-128710095D02*
X179664761Y-129510095D01*
X179664761Y-129510095D02*
X179817142Y-128938666D01*
X179817142Y-128938666D02*
X179969523Y-129510095D01*
X179969523Y-129510095D02*
X180160000Y-128710095D01*
X180921905Y-129433904D02*
X180883809Y-129472000D01*
X180883809Y-129472000D02*
X180769524Y-129510095D01*
X180769524Y-129510095D02*
X180693333Y-129510095D01*
X180693333Y-129510095D02*
X180579047Y-129472000D01*
X180579047Y-129472000D02*
X180502857Y-129395809D01*
X180502857Y-129395809D02*
X180464762Y-129319619D01*
X180464762Y-129319619D02*
X180426666Y-129167238D01*
X180426666Y-129167238D02*
X180426666Y-129052952D01*
X180426666Y-129052952D02*
X180464762Y-128900571D01*
X180464762Y-128900571D02*
X180502857Y-128824380D01*
X180502857Y-128824380D02*
X180579047Y-128748190D01*
X180579047Y-128748190D02*
X180693333Y-128710095D01*
X180693333Y-128710095D02*
X180769524Y-128710095D01*
X180769524Y-128710095D02*
X180883809Y-128748190D01*
X180883809Y-128748190D02*
X180921905Y-128786285D01*
X181645714Y-129510095D02*
X181264762Y-129510095D01*
X181264762Y-129510095D02*
X181264762Y-128710095D01*
X181912381Y-129510095D02*
X181912381Y-128710095D01*
X182369524Y-129510095D02*
X182026666Y-129052952D01*
X182369524Y-128710095D02*
X181912381Y-129167238D01*
X172678888Y-86557009D02*
X172598075Y-86583946D01*
X172598075Y-86583946D02*
X172517263Y-86664759D01*
X172517263Y-86664759D02*
X172463388Y-86772508D01*
X172463388Y-86772508D02*
X172463388Y-86880258D01*
X172463388Y-86880258D02*
X172490326Y-86961070D01*
X172490326Y-86961070D02*
X172571138Y-87095757D01*
X172571138Y-87095757D02*
X172651950Y-87176569D01*
X172651950Y-87176569D02*
X172786637Y-87257382D01*
X172786637Y-87257382D02*
X172867449Y-87284319D01*
X172867449Y-87284319D02*
X172975199Y-87284319D01*
X172975199Y-87284319D02*
X173082949Y-87230444D01*
X173082949Y-87230444D02*
X173136823Y-87176569D01*
X173136823Y-87176569D02*
X173190698Y-87068820D01*
X173190698Y-87068820D02*
X173190698Y-87014945D01*
X173190698Y-87014945D02*
X173002136Y-86826383D01*
X173002136Y-86826383D02*
X172894387Y-86934133D01*
X173487010Y-86826383D02*
X172921324Y-86260698D01*
X172921324Y-86260698D02*
X173136823Y-86045198D01*
X173136823Y-86045198D02*
X173217636Y-86018261D01*
X173217636Y-86018261D02*
X173271510Y-86018261D01*
X173271510Y-86018261D02*
X173352323Y-86045198D01*
X173352323Y-86045198D02*
X173433135Y-86126011D01*
X173433135Y-86126011D02*
X173460072Y-86206823D01*
X173460072Y-86206823D02*
X173460072Y-86260698D01*
X173460072Y-86260698D02*
X173433135Y-86341510D01*
X173433135Y-86341510D02*
X173217636Y-86557009D01*
X173513947Y-85775824D02*
X173513947Y-85721950D01*
X173513947Y-85721950D02*
X173540884Y-85641137D01*
X173540884Y-85641137D02*
X173675571Y-85506450D01*
X173675571Y-85506450D02*
X173756384Y-85479513D01*
X173756384Y-85479513D02*
X173810258Y-85479513D01*
X173810258Y-85479513D02*
X173891071Y-85506450D01*
X173891071Y-85506450D02*
X173944945Y-85560325D01*
X173944945Y-85560325D02*
X173998820Y-85668075D01*
X173998820Y-85668075D02*
X173998820Y-86314572D01*
X173998820Y-86314572D02*
X174349006Y-85964386D01*
X172778888Y-106877009D02*
X172698075Y-106903946D01*
X172698075Y-106903946D02*
X172617263Y-106984759D01*
X172617263Y-106984759D02*
X172563388Y-107092508D01*
X172563388Y-107092508D02*
X172563388Y-107200258D01*
X172563388Y-107200258D02*
X172590326Y-107281070D01*
X172590326Y-107281070D02*
X172671138Y-107415757D01*
X172671138Y-107415757D02*
X172751950Y-107496569D01*
X172751950Y-107496569D02*
X172886637Y-107577382D01*
X172886637Y-107577382D02*
X172967449Y-107604319D01*
X172967449Y-107604319D02*
X173075199Y-107604319D01*
X173075199Y-107604319D02*
X173182949Y-107550444D01*
X173182949Y-107550444D02*
X173236823Y-107496569D01*
X173236823Y-107496569D02*
X173290698Y-107388820D01*
X173290698Y-107388820D02*
X173290698Y-107334945D01*
X173290698Y-107334945D02*
X173102136Y-107146383D01*
X173102136Y-107146383D02*
X172994387Y-107254133D01*
X173587010Y-107146383D02*
X173021324Y-106580698D01*
X173021324Y-106580698D02*
X173236823Y-106365198D01*
X173236823Y-106365198D02*
X173317636Y-106338261D01*
X173317636Y-106338261D02*
X173371510Y-106338261D01*
X173371510Y-106338261D02*
X173452323Y-106365198D01*
X173452323Y-106365198D02*
X173533135Y-106446011D01*
X173533135Y-106446011D02*
X173560072Y-106526823D01*
X173560072Y-106526823D02*
X173560072Y-106580698D01*
X173560072Y-106580698D02*
X173533135Y-106661510D01*
X173533135Y-106661510D02*
X173317636Y-106877009D01*
X174179632Y-106553760D02*
X174287382Y-106446011D01*
X174287382Y-106446011D02*
X174314319Y-106365198D01*
X174314319Y-106365198D02*
X174314319Y-106311324D01*
X174314319Y-106311324D02*
X174287382Y-106176637D01*
X174287382Y-106176637D02*
X174206570Y-106041950D01*
X174206570Y-106041950D02*
X173991071Y-105826450D01*
X173991071Y-105826450D02*
X173910258Y-105799513D01*
X173910258Y-105799513D02*
X173856384Y-105799513D01*
X173856384Y-105799513D02*
X173775571Y-105826450D01*
X173775571Y-105826450D02*
X173667822Y-105934200D01*
X173667822Y-105934200D02*
X173640884Y-106015012D01*
X173640884Y-106015012D02*
X173640884Y-106068887D01*
X173640884Y-106068887D02*
X173667822Y-106149699D01*
X173667822Y-106149699D02*
X173802509Y-106284386D01*
X173802509Y-106284386D02*
X173883321Y-106311324D01*
X173883321Y-106311324D02*
X173937196Y-106311324D01*
X173937196Y-106311324D02*
X174018008Y-106284386D01*
X174018008Y-106284386D02*
X174125758Y-106176637D01*
X174125758Y-106176637D02*
X174152695Y-106095824D01*
X174152695Y-106095824D02*
X174152695Y-106041950D01*
X174152695Y-106041950D02*
X174125758Y-105961137D01*
X172109513Y-117306384D02*
X172028701Y-117333321D01*
X172028701Y-117333321D02*
X171947889Y-117414133D01*
X171947889Y-117414133D02*
X171894014Y-117521883D01*
X171894014Y-117521883D02*
X171894014Y-117629632D01*
X171894014Y-117629632D02*
X171920951Y-117710445D01*
X171920951Y-117710445D02*
X172001764Y-117845132D01*
X172001764Y-117845132D02*
X172082576Y-117925944D01*
X172082576Y-117925944D02*
X172217263Y-118006756D01*
X172217263Y-118006756D02*
X172298075Y-118033693D01*
X172298075Y-118033693D02*
X172405825Y-118033693D01*
X172405825Y-118033693D02*
X172513574Y-117979819D01*
X172513574Y-117979819D02*
X172567449Y-117925944D01*
X172567449Y-117925944D02*
X172621324Y-117818194D01*
X172621324Y-117818194D02*
X172621324Y-117764319D01*
X172621324Y-117764319D02*
X172432762Y-117575758D01*
X172432762Y-117575758D02*
X172325012Y-117683507D01*
X172917635Y-117575758D02*
X172351950Y-117010072D01*
X172351950Y-117010072D02*
X172567449Y-116794573D01*
X172567449Y-116794573D02*
X172648261Y-116767636D01*
X172648261Y-116767636D02*
X172702136Y-116767636D01*
X172702136Y-116767636D02*
X172782948Y-116794573D01*
X172782948Y-116794573D02*
X172863760Y-116875385D01*
X172863760Y-116875385D02*
X172890698Y-116956197D01*
X172890698Y-116956197D02*
X172890698Y-117010072D01*
X172890698Y-117010072D02*
X172863760Y-117090884D01*
X172863760Y-117090884D02*
X172648261Y-117306384D01*
X173779632Y-116713761D02*
X173456383Y-117037010D01*
X173618008Y-116875385D02*
X173052322Y-116309700D01*
X173052322Y-116309700D02*
X173079260Y-116444387D01*
X173079260Y-116444387D02*
X173079260Y-116552136D01*
X173079260Y-116552136D02*
X173052322Y-116632948D01*
X173483321Y-115986451D02*
X173483321Y-115932576D01*
X173483321Y-115932576D02*
X173510258Y-115851764D01*
X173510258Y-115851764D02*
X173644945Y-115717077D01*
X173644945Y-115717077D02*
X173725757Y-115690139D01*
X173725757Y-115690139D02*
X173779632Y-115690139D01*
X173779632Y-115690139D02*
X173860444Y-115717077D01*
X173860444Y-115717077D02*
X173914319Y-115770951D01*
X173914319Y-115770951D02*
X173968194Y-115878701D01*
X173968194Y-115878701D02*
X173968194Y-116525199D01*
X173968194Y-116525199D02*
X174318380Y-116175013D01*
X172778888Y-104337009D02*
X172698075Y-104363946D01*
X172698075Y-104363946D02*
X172617263Y-104444759D01*
X172617263Y-104444759D02*
X172563388Y-104552508D01*
X172563388Y-104552508D02*
X172563388Y-104660258D01*
X172563388Y-104660258D02*
X172590326Y-104741070D01*
X172590326Y-104741070D02*
X172671138Y-104875757D01*
X172671138Y-104875757D02*
X172751950Y-104956569D01*
X172751950Y-104956569D02*
X172886637Y-105037382D01*
X172886637Y-105037382D02*
X172967449Y-105064319D01*
X172967449Y-105064319D02*
X173075199Y-105064319D01*
X173075199Y-105064319D02*
X173182949Y-105010444D01*
X173182949Y-105010444D02*
X173236823Y-104956569D01*
X173236823Y-104956569D02*
X173290698Y-104848820D01*
X173290698Y-104848820D02*
X173290698Y-104794945D01*
X173290698Y-104794945D02*
X173102136Y-104606383D01*
X173102136Y-104606383D02*
X172994387Y-104714133D01*
X173587010Y-104606383D02*
X173021324Y-104040698D01*
X173021324Y-104040698D02*
X173236823Y-103825198D01*
X173236823Y-103825198D02*
X173317636Y-103798261D01*
X173317636Y-103798261D02*
X173371510Y-103798261D01*
X173371510Y-103798261D02*
X173452323Y-103825198D01*
X173452323Y-103825198D02*
X173533135Y-103906011D01*
X173533135Y-103906011D02*
X173560072Y-103986823D01*
X173560072Y-103986823D02*
X173560072Y-104040698D01*
X173560072Y-104040698D02*
X173533135Y-104121510D01*
X173533135Y-104121510D02*
X173317636Y-104337009D01*
X173910258Y-103636637D02*
X173829446Y-103663574D01*
X173829446Y-103663574D02*
X173775571Y-103663574D01*
X173775571Y-103663574D02*
X173694759Y-103636637D01*
X173694759Y-103636637D02*
X173667822Y-103609699D01*
X173667822Y-103609699D02*
X173640884Y-103528887D01*
X173640884Y-103528887D02*
X173640884Y-103475012D01*
X173640884Y-103475012D02*
X173667822Y-103394200D01*
X173667822Y-103394200D02*
X173775571Y-103286450D01*
X173775571Y-103286450D02*
X173856384Y-103259513D01*
X173856384Y-103259513D02*
X173910258Y-103259513D01*
X173910258Y-103259513D02*
X173991071Y-103286450D01*
X173991071Y-103286450D02*
X174018008Y-103313388D01*
X174018008Y-103313388D02*
X174044945Y-103394200D01*
X174044945Y-103394200D02*
X174044945Y-103448075D01*
X174044945Y-103448075D02*
X174018008Y-103528887D01*
X174018008Y-103528887D02*
X173910258Y-103636637D01*
X173910258Y-103636637D02*
X173883321Y-103717449D01*
X173883321Y-103717449D02*
X173883321Y-103771324D01*
X173883321Y-103771324D02*
X173910258Y-103852136D01*
X173910258Y-103852136D02*
X174018008Y-103959885D01*
X174018008Y-103959885D02*
X174098820Y-103986823D01*
X174098820Y-103986823D02*
X174152695Y-103986823D01*
X174152695Y-103986823D02*
X174233507Y-103959885D01*
X174233507Y-103959885D02*
X174341257Y-103852136D01*
X174341257Y-103852136D02*
X174368194Y-103771324D01*
X174368194Y-103771324D02*
X174368194Y-103717449D01*
X174368194Y-103717449D02*
X174341257Y-103636637D01*
X174341257Y-103636637D02*
X174233507Y-103528887D01*
X174233507Y-103528887D02*
X174152695Y-103501950D01*
X174152695Y-103501950D02*
X174098820Y-103501950D01*
X174098820Y-103501950D02*
X174018008Y-103528887D01*
X198218921Y-79473101D02*
X198973168Y-79850224D01*
X198973168Y-79850224D02*
X198596045Y-79095977D01*
X199242542Y-78988228D02*
X199350292Y-78934353D01*
X199350292Y-78934353D02*
X199404167Y-78934353D01*
X199404167Y-78934353D02*
X199484979Y-78961290D01*
X199484979Y-78961290D02*
X199565791Y-79042103D01*
X199565791Y-79042103D02*
X199592728Y-79122915D01*
X199592728Y-79122915D02*
X199592728Y-79176790D01*
X199592728Y-79176790D02*
X199565791Y-79257602D01*
X199565791Y-79257602D02*
X199350292Y-79473101D01*
X199350292Y-79473101D02*
X198784606Y-78907416D01*
X198784606Y-78907416D02*
X198973168Y-78718854D01*
X198973168Y-78718854D02*
X199053980Y-78691916D01*
X199053980Y-78691916D02*
X199107855Y-78691916D01*
X199107855Y-78691916D02*
X199188667Y-78718854D01*
X199188667Y-78718854D02*
X199242542Y-78772729D01*
X199242542Y-78772729D02*
X199269480Y-78853541D01*
X199269480Y-78853541D02*
X199269480Y-78907416D01*
X199269480Y-78907416D02*
X199242542Y-78988228D01*
X199242542Y-78988228D02*
X199053980Y-79176790D01*
X199350292Y-78341730D02*
X199808228Y-78799666D01*
X199808228Y-78799666D02*
X199889040Y-78826603D01*
X199889040Y-78826603D02*
X199942915Y-78826603D01*
X199942915Y-78826603D02*
X200023727Y-78799666D01*
X200023727Y-78799666D02*
X200131476Y-78691916D01*
X200131476Y-78691916D02*
X200158414Y-78611104D01*
X200158414Y-78611104D02*
X200158414Y-78557229D01*
X200158414Y-78557229D02*
X200131476Y-78476417D01*
X200131476Y-78476417D02*
X199673541Y-78018481D01*
X200454725Y-78314793D02*
X200562475Y-78260918D01*
X200562475Y-78260918D02*
X200697162Y-78126231D01*
X200697162Y-78126231D02*
X200724099Y-78045419D01*
X200724099Y-78045419D02*
X200724099Y-77991544D01*
X200724099Y-77991544D02*
X200697162Y-77910732D01*
X200697162Y-77910732D02*
X200643287Y-77856857D01*
X200643287Y-77856857D02*
X200562475Y-77829920D01*
X200562475Y-77829920D02*
X200508600Y-77829920D01*
X200508600Y-77829920D02*
X200427788Y-77856857D01*
X200427788Y-77856857D02*
X200293101Y-77937669D01*
X200293101Y-77937669D02*
X200212288Y-77964607D01*
X200212288Y-77964607D02*
X200158414Y-77964607D01*
X200158414Y-77964607D02*
X200077601Y-77937669D01*
X200077601Y-77937669D02*
X200023727Y-77883794D01*
X200023727Y-77883794D02*
X199996789Y-77802982D01*
X199996789Y-77802982D02*
X199996789Y-77749107D01*
X199996789Y-77749107D02*
X200023727Y-77668295D01*
X200023727Y-77668295D02*
X200158414Y-77533608D01*
X200158414Y-77533608D02*
X200266163Y-77479733D01*
X198363513Y-112236384D02*
X198282701Y-112263321D01*
X198282701Y-112263321D02*
X198201889Y-112344133D01*
X198201889Y-112344133D02*
X198148014Y-112451883D01*
X198148014Y-112451883D02*
X198148014Y-112559632D01*
X198148014Y-112559632D02*
X198174951Y-112640445D01*
X198174951Y-112640445D02*
X198255764Y-112775132D01*
X198255764Y-112775132D02*
X198336576Y-112855944D01*
X198336576Y-112855944D02*
X198471263Y-112936756D01*
X198471263Y-112936756D02*
X198552075Y-112963693D01*
X198552075Y-112963693D02*
X198659825Y-112963693D01*
X198659825Y-112963693D02*
X198767574Y-112909819D01*
X198767574Y-112909819D02*
X198821449Y-112855944D01*
X198821449Y-112855944D02*
X198875324Y-112748194D01*
X198875324Y-112748194D02*
X198875324Y-112694319D01*
X198875324Y-112694319D02*
X198686762Y-112505758D01*
X198686762Y-112505758D02*
X198579012Y-112613507D01*
X199171635Y-112505758D02*
X198605950Y-111940072D01*
X198605950Y-111940072D02*
X198821449Y-111724573D01*
X198821449Y-111724573D02*
X198902261Y-111697636D01*
X198902261Y-111697636D02*
X198956136Y-111697636D01*
X198956136Y-111697636D02*
X199036948Y-111724573D01*
X199036948Y-111724573D02*
X199117760Y-111805385D01*
X199117760Y-111805385D02*
X199144698Y-111886197D01*
X199144698Y-111886197D02*
X199144698Y-111940072D01*
X199144698Y-111940072D02*
X199117760Y-112020884D01*
X199117760Y-112020884D02*
X198902261Y-112236384D01*
X199198573Y-111455199D02*
X199198573Y-111401324D01*
X199198573Y-111401324D02*
X199225510Y-111320512D01*
X199225510Y-111320512D02*
X199360197Y-111185825D01*
X199360197Y-111185825D02*
X199441009Y-111158887D01*
X199441009Y-111158887D02*
X199494884Y-111158887D01*
X199494884Y-111158887D02*
X199575696Y-111185825D01*
X199575696Y-111185825D02*
X199629571Y-111239700D01*
X199629571Y-111239700D02*
X199683446Y-111347449D01*
X199683446Y-111347449D02*
X199683446Y-111993947D01*
X199683446Y-111993947D02*
X200033632Y-111643761D01*
X200572380Y-111105013D02*
X200249131Y-111428261D01*
X200410756Y-111266637D02*
X199845070Y-110700951D01*
X199845070Y-110700951D02*
X199872008Y-110835638D01*
X199872008Y-110835638D02*
X199872008Y-110943388D01*
X199872008Y-110943388D02*
X199845070Y-111024200D01*
X172751950Y-96743946D02*
X172671138Y-96770884D01*
X172671138Y-96770884D02*
X172590326Y-96851696D01*
X172590326Y-96851696D02*
X172536451Y-96959446D01*
X172536451Y-96959446D02*
X172536451Y-97067195D01*
X172536451Y-97067195D02*
X172563389Y-97148007D01*
X172563389Y-97148007D02*
X172644201Y-97282694D01*
X172644201Y-97282694D02*
X172725013Y-97363507D01*
X172725013Y-97363507D02*
X172859700Y-97444319D01*
X172859700Y-97444319D02*
X172940512Y-97471256D01*
X172940512Y-97471256D02*
X173048262Y-97471256D01*
X173048262Y-97471256D02*
X173156011Y-97417381D01*
X173156011Y-97417381D02*
X173209886Y-97363507D01*
X173209886Y-97363507D02*
X173263761Y-97255757D01*
X173263761Y-97255757D02*
X173263761Y-97201882D01*
X173263761Y-97201882D02*
X173075199Y-97013320D01*
X173075199Y-97013320D02*
X172967450Y-97121070D01*
X173560072Y-97013320D02*
X172994387Y-96447635D01*
X172994387Y-96447635D02*
X173883321Y-96690072D01*
X173883321Y-96690072D02*
X173317636Y-96124386D01*
X174152695Y-96420698D02*
X173587010Y-95855012D01*
X173587010Y-95855012D02*
X173721697Y-95720325D01*
X173721697Y-95720325D02*
X173829446Y-95666450D01*
X173829446Y-95666450D02*
X173937196Y-95666450D01*
X173937196Y-95666450D02*
X174018008Y-95693388D01*
X174018008Y-95693388D02*
X174152695Y-95774200D01*
X174152695Y-95774200D02*
X174233507Y-95855012D01*
X174233507Y-95855012D02*
X174314319Y-95989699D01*
X174314319Y-95989699D02*
X174341257Y-96070511D01*
X174341257Y-96070511D02*
X174341257Y-96178261D01*
X174341257Y-96178261D02*
X174287382Y-96286011D01*
X174287382Y-96286011D02*
X174152695Y-96420698D01*
X199104167Y-104889226D02*
X198646231Y-104808414D01*
X198780918Y-105212475D02*
X198215233Y-104646789D01*
X198215233Y-104646789D02*
X198430732Y-104431290D01*
X198430732Y-104431290D02*
X198511544Y-104404353D01*
X198511544Y-104404353D02*
X198565419Y-104404353D01*
X198565419Y-104404353D02*
X198646231Y-104431290D01*
X198646231Y-104431290D02*
X198727043Y-104512102D01*
X198727043Y-104512102D02*
X198753981Y-104592914D01*
X198753981Y-104592914D02*
X198753981Y-104646789D01*
X198753981Y-104646789D02*
X198727043Y-104727601D01*
X198727043Y-104727601D02*
X198511544Y-104943101D01*
X198780918Y-104081104D02*
X199238854Y-104539040D01*
X199238854Y-104539040D02*
X199319666Y-104565977D01*
X199319666Y-104565977D02*
X199373541Y-104565977D01*
X199373541Y-104565977D02*
X199454353Y-104539040D01*
X199454353Y-104539040D02*
X199562103Y-104431290D01*
X199562103Y-104431290D02*
X199589040Y-104350478D01*
X199589040Y-104350478D02*
X199589040Y-104296603D01*
X199589040Y-104296603D02*
X199562103Y-104215791D01*
X199562103Y-104215791D02*
X199104167Y-103757855D01*
X199939226Y-104054167D02*
X199373541Y-103488481D01*
X199373541Y-103488481D02*
X200262475Y-103730918D01*
X200262475Y-103730918D02*
X199696789Y-103165232D01*
X172778888Y-94177009D02*
X172698075Y-94203946D01*
X172698075Y-94203946D02*
X172617263Y-94284759D01*
X172617263Y-94284759D02*
X172563388Y-94392508D01*
X172563388Y-94392508D02*
X172563388Y-94500258D01*
X172563388Y-94500258D02*
X172590326Y-94581070D01*
X172590326Y-94581070D02*
X172671138Y-94715757D01*
X172671138Y-94715757D02*
X172751950Y-94796569D01*
X172751950Y-94796569D02*
X172886637Y-94877382D01*
X172886637Y-94877382D02*
X172967449Y-94904319D01*
X172967449Y-94904319D02*
X173075199Y-94904319D01*
X173075199Y-94904319D02*
X173182949Y-94850444D01*
X173182949Y-94850444D02*
X173236823Y-94796569D01*
X173236823Y-94796569D02*
X173290698Y-94688820D01*
X173290698Y-94688820D02*
X173290698Y-94634945D01*
X173290698Y-94634945D02*
X173102136Y-94446383D01*
X173102136Y-94446383D02*
X172994387Y-94554133D01*
X173587010Y-94446383D02*
X173021324Y-93880698D01*
X173021324Y-93880698D02*
X173236823Y-93665198D01*
X173236823Y-93665198D02*
X173317636Y-93638261D01*
X173317636Y-93638261D02*
X173371510Y-93638261D01*
X173371510Y-93638261D02*
X173452323Y-93665198D01*
X173452323Y-93665198D02*
X173533135Y-93746011D01*
X173533135Y-93746011D02*
X173560072Y-93826823D01*
X173560072Y-93826823D02*
X173560072Y-93880698D01*
X173560072Y-93880698D02*
X173533135Y-93961510D01*
X173533135Y-93961510D02*
X173317636Y-94177009D01*
X173856384Y-93045638D02*
X173587010Y-93315012D01*
X173587010Y-93315012D02*
X173829446Y-93611324D01*
X173829446Y-93611324D02*
X173829446Y-93557449D01*
X173829446Y-93557449D02*
X173856384Y-93476637D01*
X173856384Y-93476637D02*
X173991071Y-93341950D01*
X173991071Y-93341950D02*
X174071883Y-93315012D01*
X174071883Y-93315012D02*
X174125758Y-93315012D01*
X174125758Y-93315012D02*
X174206570Y-93341950D01*
X174206570Y-93341950D02*
X174341257Y-93476637D01*
X174341257Y-93476637D02*
X174368194Y-93557449D01*
X174368194Y-93557449D02*
X174368194Y-93611324D01*
X174368194Y-93611324D02*
X174341257Y-93692136D01*
X174341257Y-93692136D02*
X174206570Y-93826823D01*
X174206570Y-93826823D02*
X174125758Y-93853760D01*
X174125758Y-93853760D02*
X174071883Y-93853760D01*
X198363513Y-107146384D02*
X198282701Y-107173321D01*
X198282701Y-107173321D02*
X198201889Y-107254133D01*
X198201889Y-107254133D02*
X198148014Y-107361883D01*
X198148014Y-107361883D02*
X198148014Y-107469632D01*
X198148014Y-107469632D02*
X198174951Y-107550445D01*
X198174951Y-107550445D02*
X198255764Y-107685132D01*
X198255764Y-107685132D02*
X198336576Y-107765944D01*
X198336576Y-107765944D02*
X198471263Y-107846756D01*
X198471263Y-107846756D02*
X198552075Y-107873693D01*
X198552075Y-107873693D02*
X198659825Y-107873693D01*
X198659825Y-107873693D02*
X198767574Y-107819819D01*
X198767574Y-107819819D02*
X198821449Y-107765944D01*
X198821449Y-107765944D02*
X198875324Y-107658194D01*
X198875324Y-107658194D02*
X198875324Y-107604319D01*
X198875324Y-107604319D02*
X198686762Y-107415758D01*
X198686762Y-107415758D02*
X198579012Y-107523507D01*
X199171635Y-107415758D02*
X198605950Y-106850072D01*
X198605950Y-106850072D02*
X198821449Y-106634573D01*
X198821449Y-106634573D02*
X198902261Y-106607636D01*
X198902261Y-106607636D02*
X198956136Y-106607636D01*
X198956136Y-106607636D02*
X199036948Y-106634573D01*
X199036948Y-106634573D02*
X199117760Y-106715385D01*
X199117760Y-106715385D02*
X199144698Y-106796197D01*
X199144698Y-106796197D02*
X199144698Y-106850072D01*
X199144698Y-106850072D02*
X199117760Y-106930884D01*
X199117760Y-106930884D02*
X198902261Y-107146384D01*
X199198573Y-106365199D02*
X199198573Y-106311324D01*
X199198573Y-106311324D02*
X199225510Y-106230512D01*
X199225510Y-106230512D02*
X199360197Y-106095825D01*
X199360197Y-106095825D02*
X199441009Y-106068887D01*
X199441009Y-106068887D02*
X199494884Y-106068887D01*
X199494884Y-106068887D02*
X199575696Y-106095825D01*
X199575696Y-106095825D02*
X199629571Y-106149700D01*
X199629571Y-106149700D02*
X199683446Y-106257449D01*
X199683446Y-106257449D02*
X199683446Y-106903947D01*
X199683446Y-106903947D02*
X200033632Y-106553761D01*
X199737321Y-105826451D02*
X199737321Y-105772576D01*
X199737321Y-105772576D02*
X199764258Y-105691764D01*
X199764258Y-105691764D02*
X199898945Y-105557077D01*
X199898945Y-105557077D02*
X199979757Y-105530139D01*
X199979757Y-105530139D02*
X200033632Y-105530139D01*
X200033632Y-105530139D02*
X200114444Y-105557077D01*
X200114444Y-105557077D02*
X200168319Y-105610951D01*
X200168319Y-105610951D02*
X200222194Y-105718701D01*
X200222194Y-105718701D02*
X200222194Y-106365199D01*
X200222194Y-106365199D02*
X200572380Y-106015013D01*
X172751950Y-122143946D02*
X172671138Y-122170884D01*
X172671138Y-122170884D02*
X172590326Y-122251696D01*
X172590326Y-122251696D02*
X172536451Y-122359446D01*
X172536451Y-122359446D02*
X172536451Y-122467195D01*
X172536451Y-122467195D02*
X172563389Y-122548007D01*
X172563389Y-122548007D02*
X172644201Y-122682694D01*
X172644201Y-122682694D02*
X172725013Y-122763507D01*
X172725013Y-122763507D02*
X172859700Y-122844319D01*
X172859700Y-122844319D02*
X172940512Y-122871256D01*
X172940512Y-122871256D02*
X173048262Y-122871256D01*
X173048262Y-122871256D02*
X173156011Y-122817381D01*
X173156011Y-122817381D02*
X173209886Y-122763507D01*
X173209886Y-122763507D02*
X173263761Y-122655757D01*
X173263761Y-122655757D02*
X173263761Y-122601882D01*
X173263761Y-122601882D02*
X173075199Y-122413320D01*
X173075199Y-122413320D02*
X172967450Y-122521070D01*
X173560072Y-122413320D02*
X172994387Y-121847635D01*
X172994387Y-121847635D02*
X173883321Y-122090072D01*
X173883321Y-122090072D02*
X173317636Y-121524386D01*
X174152695Y-121820698D02*
X173587010Y-121255012D01*
X173587010Y-121255012D02*
X173721697Y-121120325D01*
X173721697Y-121120325D02*
X173829446Y-121066450D01*
X173829446Y-121066450D02*
X173937196Y-121066450D01*
X173937196Y-121066450D02*
X174018008Y-121093388D01*
X174018008Y-121093388D02*
X174152695Y-121174200D01*
X174152695Y-121174200D02*
X174233507Y-121255012D01*
X174233507Y-121255012D02*
X174314319Y-121389699D01*
X174314319Y-121389699D02*
X174341257Y-121470511D01*
X174341257Y-121470511D02*
X174341257Y-121578261D01*
X174341257Y-121578261D02*
X174287382Y-121686011D01*
X174287382Y-121686011D02*
X174152695Y-121820698D01*
X198351950Y-84043946D02*
X198271138Y-84070884D01*
X198271138Y-84070884D02*
X198190326Y-84151696D01*
X198190326Y-84151696D02*
X198136451Y-84259446D01*
X198136451Y-84259446D02*
X198136451Y-84367195D01*
X198136451Y-84367195D02*
X198163389Y-84448007D01*
X198163389Y-84448007D02*
X198244201Y-84582694D01*
X198244201Y-84582694D02*
X198325013Y-84663507D01*
X198325013Y-84663507D02*
X198459700Y-84744319D01*
X198459700Y-84744319D02*
X198540512Y-84771256D01*
X198540512Y-84771256D02*
X198648262Y-84771256D01*
X198648262Y-84771256D02*
X198756011Y-84717381D01*
X198756011Y-84717381D02*
X198809886Y-84663507D01*
X198809886Y-84663507D02*
X198863761Y-84555757D01*
X198863761Y-84555757D02*
X198863761Y-84501882D01*
X198863761Y-84501882D02*
X198675199Y-84313320D01*
X198675199Y-84313320D02*
X198567450Y-84421070D01*
X199160072Y-84313320D02*
X198594387Y-83747635D01*
X198594387Y-83747635D02*
X199483321Y-83990072D01*
X199483321Y-83990072D02*
X198917636Y-83424386D01*
X199752695Y-83720698D02*
X199187010Y-83155012D01*
X199187010Y-83155012D02*
X199321697Y-83020325D01*
X199321697Y-83020325D02*
X199429446Y-82966450D01*
X199429446Y-82966450D02*
X199537196Y-82966450D01*
X199537196Y-82966450D02*
X199618008Y-82993388D01*
X199618008Y-82993388D02*
X199752695Y-83074200D01*
X199752695Y-83074200D02*
X199833507Y-83155012D01*
X199833507Y-83155012D02*
X199914319Y-83289699D01*
X199914319Y-83289699D02*
X199941257Y-83370511D01*
X199941257Y-83370511D02*
X199941257Y-83478261D01*
X199941257Y-83478261D02*
X199887382Y-83586011D01*
X199887382Y-83586011D02*
X199752695Y-83720698D01*
X198417389Y-97686755D02*
X198686763Y-97417381D01*
X198525138Y-97902254D02*
X198148015Y-97148007D01*
X198148015Y-97148007D02*
X198902262Y-97525131D01*
X198848387Y-96501510D02*
X198767575Y-96528447D01*
X198767575Y-96528447D02*
X198686762Y-96609259D01*
X198686762Y-96609259D02*
X198632888Y-96717009D01*
X198632888Y-96717009D02*
X198632888Y-96824759D01*
X198632888Y-96824759D02*
X198659825Y-96905571D01*
X198659825Y-96905571D02*
X198740637Y-97040258D01*
X198740637Y-97040258D02*
X198821449Y-97121070D01*
X198821449Y-97121070D02*
X198956136Y-97201882D01*
X198956136Y-97201882D02*
X199036949Y-97228820D01*
X199036949Y-97228820D02*
X199144698Y-97228820D01*
X199144698Y-97228820D02*
X199252448Y-97174945D01*
X199252448Y-97174945D02*
X199306323Y-97121070D01*
X199306323Y-97121070D02*
X199360197Y-97013320D01*
X199360197Y-97013320D02*
X199360197Y-96959446D01*
X199360197Y-96959446D02*
X199171636Y-96770884D01*
X199171636Y-96770884D02*
X199063886Y-96878633D01*
X199656509Y-96770884D02*
X199090823Y-96205198D01*
X199090823Y-96205198D02*
X199979758Y-96447635D01*
X199979758Y-96447635D02*
X199414072Y-95881950D01*
X200249132Y-96178261D02*
X199683446Y-95612576D01*
X199683446Y-95612576D02*
X199818133Y-95477889D01*
X199818133Y-95477889D02*
X199925883Y-95424014D01*
X199925883Y-95424014D02*
X200033632Y-95424014D01*
X200033632Y-95424014D02*
X200114445Y-95450951D01*
X200114445Y-95450951D02*
X200249132Y-95531764D01*
X200249132Y-95531764D02*
X200329944Y-95612576D01*
X200329944Y-95612576D02*
X200410756Y-95747263D01*
X200410756Y-95747263D02*
X200437693Y-95828075D01*
X200437693Y-95828075D02*
X200437693Y-95935825D01*
X200437693Y-95935825D02*
X200383819Y-96043574D01*
X200383819Y-96043574D02*
X200249132Y-96178261D01*
X172751950Y-84043946D02*
X172671138Y-84070884D01*
X172671138Y-84070884D02*
X172590326Y-84151696D01*
X172590326Y-84151696D02*
X172536451Y-84259446D01*
X172536451Y-84259446D02*
X172536451Y-84367195D01*
X172536451Y-84367195D02*
X172563389Y-84448007D01*
X172563389Y-84448007D02*
X172644201Y-84582694D01*
X172644201Y-84582694D02*
X172725013Y-84663507D01*
X172725013Y-84663507D02*
X172859700Y-84744319D01*
X172859700Y-84744319D02*
X172940512Y-84771256D01*
X172940512Y-84771256D02*
X173048262Y-84771256D01*
X173048262Y-84771256D02*
X173156011Y-84717381D01*
X173156011Y-84717381D02*
X173209886Y-84663507D01*
X173209886Y-84663507D02*
X173263761Y-84555757D01*
X173263761Y-84555757D02*
X173263761Y-84501882D01*
X173263761Y-84501882D02*
X173075199Y-84313320D01*
X173075199Y-84313320D02*
X172967450Y-84421070D01*
X173560072Y-84313320D02*
X172994387Y-83747635D01*
X172994387Y-83747635D02*
X173883321Y-83990072D01*
X173883321Y-83990072D02*
X173317636Y-83424386D01*
X174152695Y-83720698D02*
X173587010Y-83155012D01*
X173587010Y-83155012D02*
X173721697Y-83020325D01*
X173721697Y-83020325D02*
X173829446Y-82966450D01*
X173829446Y-82966450D02*
X173937196Y-82966450D01*
X173937196Y-82966450D02*
X174018008Y-82993388D01*
X174018008Y-82993388D02*
X174152695Y-83074200D01*
X174152695Y-83074200D02*
X174233507Y-83155012D01*
X174233507Y-83155012D02*
X174314319Y-83289699D01*
X174314319Y-83289699D02*
X174341257Y-83370511D01*
X174341257Y-83370511D02*
X174341257Y-83478261D01*
X174341257Y-83478261D02*
X174287382Y-83586011D01*
X174287382Y-83586011D02*
X174152695Y-83720698D01*
X172255513Y-112226384D02*
X172174701Y-112253321D01*
X172174701Y-112253321D02*
X172093889Y-112334133D01*
X172093889Y-112334133D02*
X172040014Y-112441883D01*
X172040014Y-112441883D02*
X172040014Y-112549632D01*
X172040014Y-112549632D02*
X172066951Y-112630445D01*
X172066951Y-112630445D02*
X172147764Y-112765132D01*
X172147764Y-112765132D02*
X172228576Y-112845944D01*
X172228576Y-112845944D02*
X172363263Y-112926756D01*
X172363263Y-112926756D02*
X172444075Y-112953693D01*
X172444075Y-112953693D02*
X172551825Y-112953693D01*
X172551825Y-112953693D02*
X172659574Y-112899819D01*
X172659574Y-112899819D02*
X172713449Y-112845944D01*
X172713449Y-112845944D02*
X172767324Y-112738194D01*
X172767324Y-112738194D02*
X172767324Y-112684319D01*
X172767324Y-112684319D02*
X172578762Y-112495758D01*
X172578762Y-112495758D02*
X172471012Y-112603507D01*
X173063635Y-112495758D02*
X172497950Y-111930072D01*
X172497950Y-111930072D02*
X172713449Y-111714573D01*
X172713449Y-111714573D02*
X172794261Y-111687636D01*
X172794261Y-111687636D02*
X172848136Y-111687636D01*
X172848136Y-111687636D02*
X172928948Y-111714573D01*
X172928948Y-111714573D02*
X173009760Y-111795385D01*
X173009760Y-111795385D02*
X173036698Y-111876197D01*
X173036698Y-111876197D02*
X173036698Y-111930072D01*
X173036698Y-111930072D02*
X173009760Y-112010884D01*
X173009760Y-112010884D02*
X172794261Y-112226384D01*
X173925632Y-111633761D02*
X173602383Y-111957010D01*
X173764008Y-111795385D02*
X173198322Y-111229700D01*
X173198322Y-111229700D02*
X173225260Y-111364387D01*
X173225260Y-111364387D02*
X173225260Y-111472136D01*
X173225260Y-111472136D02*
X173198322Y-111552948D01*
X173710133Y-110717889D02*
X173764008Y-110664014D01*
X173764008Y-110664014D02*
X173844820Y-110637077D01*
X173844820Y-110637077D02*
X173898695Y-110637077D01*
X173898695Y-110637077D02*
X173979507Y-110664014D01*
X173979507Y-110664014D02*
X174114194Y-110744826D01*
X174114194Y-110744826D02*
X174248881Y-110879513D01*
X174248881Y-110879513D02*
X174329693Y-111014200D01*
X174329693Y-111014200D02*
X174356631Y-111095013D01*
X174356631Y-111095013D02*
X174356631Y-111148887D01*
X174356631Y-111148887D02*
X174329693Y-111229700D01*
X174329693Y-111229700D02*
X174275818Y-111283574D01*
X174275818Y-111283574D02*
X174195006Y-111310512D01*
X174195006Y-111310512D02*
X174141131Y-111310512D01*
X174141131Y-111310512D02*
X174060319Y-111283574D01*
X174060319Y-111283574D02*
X173925632Y-111202762D01*
X173925632Y-111202762D02*
X173790945Y-111068075D01*
X173790945Y-111068075D02*
X173710133Y-110933388D01*
X173710133Y-110933388D02*
X173683196Y-110852576D01*
X173683196Y-110852576D02*
X173683196Y-110798701D01*
X173683196Y-110798701D02*
X173710133Y-110717889D01*
X172255513Y-119846384D02*
X172174701Y-119873321D01*
X172174701Y-119873321D02*
X172093889Y-119954133D01*
X172093889Y-119954133D02*
X172040014Y-120061883D01*
X172040014Y-120061883D02*
X172040014Y-120169632D01*
X172040014Y-120169632D02*
X172066951Y-120250445D01*
X172066951Y-120250445D02*
X172147764Y-120385132D01*
X172147764Y-120385132D02*
X172228576Y-120465944D01*
X172228576Y-120465944D02*
X172363263Y-120546756D01*
X172363263Y-120546756D02*
X172444075Y-120573693D01*
X172444075Y-120573693D02*
X172551825Y-120573693D01*
X172551825Y-120573693D02*
X172659574Y-120519819D01*
X172659574Y-120519819D02*
X172713449Y-120465944D01*
X172713449Y-120465944D02*
X172767324Y-120358194D01*
X172767324Y-120358194D02*
X172767324Y-120304319D01*
X172767324Y-120304319D02*
X172578762Y-120115758D01*
X172578762Y-120115758D02*
X172471012Y-120223507D01*
X173063635Y-120115758D02*
X172497950Y-119550072D01*
X172497950Y-119550072D02*
X172713449Y-119334573D01*
X172713449Y-119334573D02*
X172794261Y-119307636D01*
X172794261Y-119307636D02*
X172848136Y-119307636D01*
X172848136Y-119307636D02*
X172928948Y-119334573D01*
X172928948Y-119334573D02*
X173009760Y-119415385D01*
X173009760Y-119415385D02*
X173036698Y-119496197D01*
X173036698Y-119496197D02*
X173036698Y-119550072D01*
X173036698Y-119550072D02*
X173009760Y-119630884D01*
X173009760Y-119630884D02*
X172794261Y-119846384D01*
X173925632Y-119253761D02*
X173602383Y-119577010D01*
X173764008Y-119415385D02*
X173198322Y-118849700D01*
X173198322Y-118849700D02*
X173225260Y-118984387D01*
X173225260Y-118984387D02*
X173225260Y-119092136D01*
X173225260Y-119092136D02*
X173198322Y-119172948D01*
X173548509Y-118499513D02*
X173898695Y-118149327D01*
X173898695Y-118149327D02*
X173925632Y-118553388D01*
X173925632Y-118553388D02*
X174006444Y-118472576D01*
X174006444Y-118472576D02*
X174087257Y-118445638D01*
X174087257Y-118445638D02*
X174141131Y-118445638D01*
X174141131Y-118445638D02*
X174221944Y-118472576D01*
X174221944Y-118472576D02*
X174356631Y-118607263D01*
X174356631Y-118607263D02*
X174383568Y-118688075D01*
X174383568Y-118688075D02*
X174383568Y-118741950D01*
X174383568Y-118741950D02*
X174356631Y-118822762D01*
X174356631Y-118822762D02*
X174195006Y-118984387D01*
X174195006Y-118984387D02*
X174114194Y-119011324D01*
X174114194Y-119011324D02*
X174060319Y-119011324D01*
X172778888Y-99257009D02*
X172698075Y-99283946D01*
X172698075Y-99283946D02*
X172617263Y-99364759D01*
X172617263Y-99364759D02*
X172563388Y-99472508D01*
X172563388Y-99472508D02*
X172563388Y-99580258D01*
X172563388Y-99580258D02*
X172590326Y-99661070D01*
X172590326Y-99661070D02*
X172671138Y-99795757D01*
X172671138Y-99795757D02*
X172751950Y-99876569D01*
X172751950Y-99876569D02*
X172886637Y-99957382D01*
X172886637Y-99957382D02*
X172967449Y-99984319D01*
X172967449Y-99984319D02*
X173075199Y-99984319D01*
X173075199Y-99984319D02*
X173182949Y-99930444D01*
X173182949Y-99930444D02*
X173236823Y-99876569D01*
X173236823Y-99876569D02*
X173290698Y-99768820D01*
X173290698Y-99768820D02*
X173290698Y-99714945D01*
X173290698Y-99714945D02*
X173102136Y-99526383D01*
X173102136Y-99526383D02*
X172994387Y-99634133D01*
X173587010Y-99526383D02*
X173021324Y-98960698D01*
X173021324Y-98960698D02*
X173236823Y-98745198D01*
X173236823Y-98745198D02*
X173317636Y-98718261D01*
X173317636Y-98718261D02*
X173371510Y-98718261D01*
X173371510Y-98718261D02*
X173452323Y-98745198D01*
X173452323Y-98745198D02*
X173533135Y-98826011D01*
X173533135Y-98826011D02*
X173560072Y-98906823D01*
X173560072Y-98906823D02*
X173560072Y-98960698D01*
X173560072Y-98960698D02*
X173533135Y-99041510D01*
X173533135Y-99041510D02*
X173317636Y-99257009D01*
X173829446Y-98152576D02*
X173721697Y-98260325D01*
X173721697Y-98260325D02*
X173694759Y-98341137D01*
X173694759Y-98341137D02*
X173694759Y-98395012D01*
X173694759Y-98395012D02*
X173721697Y-98529699D01*
X173721697Y-98529699D02*
X173802509Y-98664386D01*
X173802509Y-98664386D02*
X174018008Y-98879885D01*
X174018008Y-98879885D02*
X174098820Y-98906823D01*
X174098820Y-98906823D02*
X174152695Y-98906823D01*
X174152695Y-98906823D02*
X174233507Y-98879885D01*
X174233507Y-98879885D02*
X174341257Y-98772136D01*
X174341257Y-98772136D02*
X174368194Y-98691324D01*
X174368194Y-98691324D02*
X174368194Y-98637449D01*
X174368194Y-98637449D02*
X174341257Y-98556637D01*
X174341257Y-98556637D02*
X174206570Y-98421950D01*
X174206570Y-98421950D02*
X174125758Y-98395012D01*
X174125758Y-98395012D02*
X174071883Y-98395012D01*
X174071883Y-98395012D02*
X173991071Y-98421950D01*
X173991071Y-98421950D02*
X173883321Y-98529699D01*
X173883321Y-98529699D02*
X173856384Y-98610511D01*
X173856384Y-98610511D02*
X173856384Y-98664386D01*
X173856384Y-98664386D02*
X173883321Y-98745198D01*
X198351950Y-109443946D02*
X198271138Y-109470884D01*
X198271138Y-109470884D02*
X198190326Y-109551696D01*
X198190326Y-109551696D02*
X198136451Y-109659446D01*
X198136451Y-109659446D02*
X198136451Y-109767195D01*
X198136451Y-109767195D02*
X198163389Y-109848007D01*
X198163389Y-109848007D02*
X198244201Y-109982694D01*
X198244201Y-109982694D02*
X198325013Y-110063507D01*
X198325013Y-110063507D02*
X198459700Y-110144319D01*
X198459700Y-110144319D02*
X198540512Y-110171256D01*
X198540512Y-110171256D02*
X198648262Y-110171256D01*
X198648262Y-110171256D02*
X198756011Y-110117381D01*
X198756011Y-110117381D02*
X198809886Y-110063507D01*
X198809886Y-110063507D02*
X198863761Y-109955757D01*
X198863761Y-109955757D02*
X198863761Y-109901882D01*
X198863761Y-109901882D02*
X198675199Y-109713320D01*
X198675199Y-109713320D02*
X198567450Y-109821070D01*
X199160072Y-109713320D02*
X198594387Y-109147635D01*
X198594387Y-109147635D02*
X199483321Y-109390072D01*
X199483321Y-109390072D02*
X198917636Y-108824386D01*
X199752695Y-109120698D02*
X199187010Y-108555012D01*
X199187010Y-108555012D02*
X199321697Y-108420325D01*
X199321697Y-108420325D02*
X199429446Y-108366450D01*
X199429446Y-108366450D02*
X199537196Y-108366450D01*
X199537196Y-108366450D02*
X199618008Y-108393388D01*
X199618008Y-108393388D02*
X199752695Y-108474200D01*
X199752695Y-108474200D02*
X199833507Y-108555012D01*
X199833507Y-108555012D02*
X199914319Y-108689699D01*
X199914319Y-108689699D02*
X199941257Y-108770511D01*
X199941257Y-108770511D02*
X199941257Y-108878261D01*
X199941257Y-108878261D02*
X199887382Y-108986011D01*
X199887382Y-108986011D02*
X199752695Y-109120698D01*
X198363513Y-119846384D02*
X198282701Y-119873321D01*
X198282701Y-119873321D02*
X198201889Y-119954133D01*
X198201889Y-119954133D02*
X198148014Y-120061883D01*
X198148014Y-120061883D02*
X198148014Y-120169632D01*
X198148014Y-120169632D02*
X198174951Y-120250445D01*
X198174951Y-120250445D02*
X198255764Y-120385132D01*
X198255764Y-120385132D02*
X198336576Y-120465944D01*
X198336576Y-120465944D02*
X198471263Y-120546756D01*
X198471263Y-120546756D02*
X198552075Y-120573693D01*
X198552075Y-120573693D02*
X198659825Y-120573693D01*
X198659825Y-120573693D02*
X198767574Y-120519819D01*
X198767574Y-120519819D02*
X198821449Y-120465944D01*
X198821449Y-120465944D02*
X198875324Y-120358194D01*
X198875324Y-120358194D02*
X198875324Y-120304319D01*
X198875324Y-120304319D02*
X198686762Y-120115758D01*
X198686762Y-120115758D02*
X198579012Y-120223507D01*
X199171635Y-120115758D02*
X198605950Y-119550072D01*
X198605950Y-119550072D02*
X198821449Y-119334573D01*
X198821449Y-119334573D02*
X198902261Y-119307636D01*
X198902261Y-119307636D02*
X198956136Y-119307636D01*
X198956136Y-119307636D02*
X199036948Y-119334573D01*
X199036948Y-119334573D02*
X199117760Y-119415385D01*
X199117760Y-119415385D02*
X199144698Y-119496197D01*
X199144698Y-119496197D02*
X199144698Y-119550072D01*
X199144698Y-119550072D02*
X199117760Y-119630884D01*
X199117760Y-119630884D02*
X198902261Y-119846384D01*
X200033632Y-119253761D02*
X199710383Y-119577010D01*
X199872008Y-119415385D02*
X199306322Y-118849700D01*
X199306322Y-118849700D02*
X199333260Y-118984387D01*
X199333260Y-118984387D02*
X199333260Y-119092136D01*
X199333260Y-119092136D02*
X199306322Y-119172948D01*
X200033632Y-118607263D02*
X199952820Y-118634200D01*
X199952820Y-118634200D02*
X199898945Y-118634200D01*
X199898945Y-118634200D02*
X199818133Y-118607263D01*
X199818133Y-118607263D02*
X199791196Y-118580326D01*
X199791196Y-118580326D02*
X199764258Y-118499513D01*
X199764258Y-118499513D02*
X199764258Y-118445638D01*
X199764258Y-118445638D02*
X199791196Y-118364826D01*
X199791196Y-118364826D02*
X199898945Y-118257077D01*
X199898945Y-118257077D02*
X199979757Y-118230139D01*
X199979757Y-118230139D02*
X200033632Y-118230139D01*
X200033632Y-118230139D02*
X200114444Y-118257077D01*
X200114444Y-118257077D02*
X200141382Y-118284014D01*
X200141382Y-118284014D02*
X200168319Y-118364826D01*
X200168319Y-118364826D02*
X200168319Y-118418701D01*
X200168319Y-118418701D02*
X200141382Y-118499513D01*
X200141382Y-118499513D02*
X200033632Y-118607263D01*
X200033632Y-118607263D02*
X200006695Y-118688075D01*
X200006695Y-118688075D02*
X200006695Y-118741950D01*
X200006695Y-118741950D02*
X200033632Y-118822762D01*
X200033632Y-118822762D02*
X200141382Y-118930512D01*
X200141382Y-118930512D02*
X200222194Y-118957449D01*
X200222194Y-118957449D02*
X200276069Y-118957449D01*
X200276069Y-118957449D02*
X200356881Y-118930512D01*
X200356881Y-118930512D02*
X200464631Y-118822762D01*
X200464631Y-118822762D02*
X200491568Y-118741950D01*
X200491568Y-118741950D02*
X200491568Y-118688075D01*
X200491568Y-118688075D02*
X200464631Y-118607263D01*
X200464631Y-118607263D02*
X200356881Y-118499513D01*
X200356881Y-118499513D02*
X200276069Y-118472576D01*
X200276069Y-118472576D02*
X200222194Y-118472576D01*
X200222194Y-118472576D02*
X200141382Y-118499513D01*
X198363513Y-99536384D02*
X198282701Y-99563321D01*
X198282701Y-99563321D02*
X198201889Y-99644133D01*
X198201889Y-99644133D02*
X198148014Y-99751883D01*
X198148014Y-99751883D02*
X198148014Y-99859632D01*
X198148014Y-99859632D02*
X198174951Y-99940445D01*
X198174951Y-99940445D02*
X198255764Y-100075132D01*
X198255764Y-100075132D02*
X198336576Y-100155944D01*
X198336576Y-100155944D02*
X198471263Y-100236756D01*
X198471263Y-100236756D02*
X198552075Y-100263693D01*
X198552075Y-100263693D02*
X198659825Y-100263693D01*
X198659825Y-100263693D02*
X198767574Y-100209819D01*
X198767574Y-100209819D02*
X198821449Y-100155944D01*
X198821449Y-100155944D02*
X198875324Y-100048194D01*
X198875324Y-100048194D02*
X198875324Y-99994319D01*
X198875324Y-99994319D02*
X198686762Y-99805758D01*
X198686762Y-99805758D02*
X198579012Y-99913507D01*
X199171635Y-99805758D02*
X198605950Y-99240072D01*
X198605950Y-99240072D02*
X198821449Y-99024573D01*
X198821449Y-99024573D02*
X198902261Y-98997636D01*
X198902261Y-98997636D02*
X198956136Y-98997636D01*
X198956136Y-98997636D02*
X199036948Y-99024573D01*
X199036948Y-99024573D02*
X199117760Y-99105385D01*
X199117760Y-99105385D02*
X199144698Y-99186197D01*
X199144698Y-99186197D02*
X199144698Y-99240072D01*
X199144698Y-99240072D02*
X199117760Y-99320884D01*
X199117760Y-99320884D02*
X198902261Y-99536384D01*
X199198573Y-98755199D02*
X199198573Y-98701324D01*
X199198573Y-98701324D02*
X199225510Y-98620512D01*
X199225510Y-98620512D02*
X199360197Y-98485825D01*
X199360197Y-98485825D02*
X199441009Y-98458887D01*
X199441009Y-98458887D02*
X199494884Y-98458887D01*
X199494884Y-98458887D02*
X199575696Y-98485825D01*
X199575696Y-98485825D02*
X199629571Y-98539700D01*
X199629571Y-98539700D02*
X199683446Y-98647449D01*
X199683446Y-98647449D02*
X199683446Y-99293947D01*
X199683446Y-99293947D02*
X200033632Y-98943761D01*
X199656509Y-98189513D02*
X200033632Y-97812390D01*
X200033632Y-97812390D02*
X200356881Y-98620512D01*
X198363513Y-117306384D02*
X198282701Y-117333321D01*
X198282701Y-117333321D02*
X198201889Y-117414133D01*
X198201889Y-117414133D02*
X198148014Y-117521883D01*
X198148014Y-117521883D02*
X198148014Y-117629632D01*
X198148014Y-117629632D02*
X198174951Y-117710445D01*
X198174951Y-117710445D02*
X198255764Y-117845132D01*
X198255764Y-117845132D02*
X198336576Y-117925944D01*
X198336576Y-117925944D02*
X198471263Y-118006756D01*
X198471263Y-118006756D02*
X198552075Y-118033693D01*
X198552075Y-118033693D02*
X198659825Y-118033693D01*
X198659825Y-118033693D02*
X198767574Y-117979819D01*
X198767574Y-117979819D02*
X198821449Y-117925944D01*
X198821449Y-117925944D02*
X198875324Y-117818194D01*
X198875324Y-117818194D02*
X198875324Y-117764319D01*
X198875324Y-117764319D02*
X198686762Y-117575758D01*
X198686762Y-117575758D02*
X198579012Y-117683507D01*
X199171635Y-117575758D02*
X198605950Y-117010072D01*
X198605950Y-117010072D02*
X198821449Y-116794573D01*
X198821449Y-116794573D02*
X198902261Y-116767636D01*
X198902261Y-116767636D02*
X198956136Y-116767636D01*
X198956136Y-116767636D02*
X199036948Y-116794573D01*
X199036948Y-116794573D02*
X199117760Y-116875385D01*
X199117760Y-116875385D02*
X199144698Y-116956197D01*
X199144698Y-116956197D02*
X199144698Y-117010072D01*
X199144698Y-117010072D02*
X199117760Y-117090884D01*
X199117760Y-117090884D02*
X198902261Y-117306384D01*
X200033632Y-116713761D02*
X199710383Y-117037010D01*
X199872008Y-116875385D02*
X199306322Y-116309700D01*
X199306322Y-116309700D02*
X199333260Y-116444387D01*
X199333260Y-116444387D02*
X199333260Y-116552136D01*
X199333260Y-116552136D02*
X199306322Y-116632948D01*
X200303006Y-116444387D02*
X200410756Y-116336637D01*
X200410756Y-116336637D02*
X200437693Y-116255825D01*
X200437693Y-116255825D02*
X200437693Y-116201950D01*
X200437693Y-116201950D02*
X200410756Y-116067263D01*
X200410756Y-116067263D02*
X200329944Y-115932576D01*
X200329944Y-115932576D02*
X200114444Y-115717077D01*
X200114444Y-115717077D02*
X200033632Y-115690139D01*
X200033632Y-115690139D02*
X199979757Y-115690139D01*
X199979757Y-115690139D02*
X199898945Y-115717077D01*
X199898945Y-115717077D02*
X199791196Y-115824826D01*
X199791196Y-115824826D02*
X199764258Y-115905638D01*
X199764258Y-115905638D02*
X199764258Y-115959513D01*
X199764258Y-115959513D02*
X199791196Y-116040326D01*
X199791196Y-116040326D02*
X199925883Y-116175013D01*
X199925883Y-116175013D02*
X200006695Y-116201950D01*
X200006695Y-116201950D02*
X200060570Y-116201950D01*
X200060570Y-116201950D02*
X200141382Y-116175013D01*
X200141382Y-116175013D02*
X200249131Y-116067263D01*
X200249131Y-116067263D02*
X200276069Y-115986451D01*
X200276069Y-115986451D02*
X200276069Y-115932576D01*
X200276069Y-115932576D02*
X200249131Y-115851764D01*
X172778888Y-91637009D02*
X172698075Y-91663946D01*
X172698075Y-91663946D02*
X172617263Y-91744759D01*
X172617263Y-91744759D02*
X172563388Y-91852508D01*
X172563388Y-91852508D02*
X172563388Y-91960258D01*
X172563388Y-91960258D02*
X172590326Y-92041070D01*
X172590326Y-92041070D02*
X172671138Y-92175757D01*
X172671138Y-92175757D02*
X172751950Y-92256569D01*
X172751950Y-92256569D02*
X172886637Y-92337382D01*
X172886637Y-92337382D02*
X172967449Y-92364319D01*
X172967449Y-92364319D02*
X173075199Y-92364319D01*
X173075199Y-92364319D02*
X173182949Y-92310444D01*
X173182949Y-92310444D02*
X173236823Y-92256569D01*
X173236823Y-92256569D02*
X173290698Y-92148820D01*
X173290698Y-92148820D02*
X173290698Y-92094945D01*
X173290698Y-92094945D02*
X173102136Y-91906383D01*
X173102136Y-91906383D02*
X172994387Y-92014133D01*
X173587010Y-91906383D02*
X173021324Y-91340698D01*
X173021324Y-91340698D02*
X173236823Y-91125198D01*
X173236823Y-91125198D02*
X173317636Y-91098261D01*
X173317636Y-91098261D02*
X173371510Y-91098261D01*
X173371510Y-91098261D02*
X173452323Y-91125198D01*
X173452323Y-91125198D02*
X173533135Y-91206011D01*
X173533135Y-91206011D02*
X173560072Y-91286823D01*
X173560072Y-91286823D02*
X173560072Y-91340698D01*
X173560072Y-91340698D02*
X173533135Y-91421510D01*
X173533135Y-91421510D02*
X173317636Y-91637009D01*
X174018008Y-90721137D02*
X174395132Y-91098261D01*
X173667822Y-90640325D02*
X173937196Y-91179073D01*
X173937196Y-91179073D02*
X174287382Y-90828887D01*
X172751950Y-109443946D02*
X172671138Y-109470884D01*
X172671138Y-109470884D02*
X172590326Y-109551696D01*
X172590326Y-109551696D02*
X172536451Y-109659446D01*
X172536451Y-109659446D02*
X172536451Y-109767195D01*
X172536451Y-109767195D02*
X172563389Y-109848007D01*
X172563389Y-109848007D02*
X172644201Y-109982694D01*
X172644201Y-109982694D02*
X172725013Y-110063507D01*
X172725013Y-110063507D02*
X172859700Y-110144319D01*
X172859700Y-110144319D02*
X172940512Y-110171256D01*
X172940512Y-110171256D02*
X173048262Y-110171256D01*
X173048262Y-110171256D02*
X173156011Y-110117381D01*
X173156011Y-110117381D02*
X173209886Y-110063507D01*
X173209886Y-110063507D02*
X173263761Y-109955757D01*
X173263761Y-109955757D02*
X173263761Y-109901882D01*
X173263761Y-109901882D02*
X173075199Y-109713320D01*
X173075199Y-109713320D02*
X172967450Y-109821070D01*
X173560072Y-109713320D02*
X172994387Y-109147635D01*
X172994387Y-109147635D02*
X173883321Y-109390072D01*
X173883321Y-109390072D02*
X173317636Y-108824386D01*
X174152695Y-109120698D02*
X173587010Y-108555012D01*
X173587010Y-108555012D02*
X173721697Y-108420325D01*
X173721697Y-108420325D02*
X173829446Y-108366450D01*
X173829446Y-108366450D02*
X173937196Y-108366450D01*
X173937196Y-108366450D02*
X174018008Y-108393388D01*
X174018008Y-108393388D02*
X174152695Y-108474200D01*
X174152695Y-108474200D02*
X174233507Y-108555012D01*
X174233507Y-108555012D02*
X174314319Y-108689699D01*
X174314319Y-108689699D02*
X174341257Y-108770511D01*
X174341257Y-108770511D02*
X174341257Y-108878261D01*
X174341257Y-108878261D02*
X174287382Y-108986011D01*
X174287382Y-108986011D02*
X174152695Y-109120698D01*
X172878888Y-101767009D02*
X172798075Y-101793946D01*
X172798075Y-101793946D02*
X172717263Y-101874759D01*
X172717263Y-101874759D02*
X172663388Y-101982508D01*
X172663388Y-101982508D02*
X172663388Y-102090258D01*
X172663388Y-102090258D02*
X172690326Y-102171070D01*
X172690326Y-102171070D02*
X172771138Y-102305757D01*
X172771138Y-102305757D02*
X172851950Y-102386569D01*
X172851950Y-102386569D02*
X172986637Y-102467382D01*
X172986637Y-102467382D02*
X173067449Y-102494319D01*
X173067449Y-102494319D02*
X173175199Y-102494319D01*
X173175199Y-102494319D02*
X173282949Y-102440444D01*
X173282949Y-102440444D02*
X173336823Y-102386569D01*
X173336823Y-102386569D02*
X173390698Y-102278820D01*
X173390698Y-102278820D02*
X173390698Y-102224945D01*
X173390698Y-102224945D02*
X173202136Y-102036383D01*
X173202136Y-102036383D02*
X173094387Y-102144133D01*
X173687010Y-102036383D02*
X173121324Y-101470698D01*
X173121324Y-101470698D02*
X173336823Y-101255198D01*
X173336823Y-101255198D02*
X173417636Y-101228261D01*
X173417636Y-101228261D02*
X173471510Y-101228261D01*
X173471510Y-101228261D02*
X173552323Y-101255198D01*
X173552323Y-101255198D02*
X173633135Y-101336011D01*
X173633135Y-101336011D02*
X173660072Y-101416823D01*
X173660072Y-101416823D02*
X173660072Y-101470698D01*
X173660072Y-101470698D02*
X173633135Y-101551510D01*
X173633135Y-101551510D02*
X173417636Y-101767009D01*
X173633135Y-100958887D02*
X174010258Y-100581763D01*
X174010258Y-100581763D02*
X174333507Y-101389885D01*
X198363513Y-127466384D02*
X198282701Y-127493321D01*
X198282701Y-127493321D02*
X198201889Y-127574133D01*
X198201889Y-127574133D02*
X198148014Y-127681883D01*
X198148014Y-127681883D02*
X198148014Y-127789632D01*
X198148014Y-127789632D02*
X198174951Y-127870445D01*
X198174951Y-127870445D02*
X198255764Y-128005132D01*
X198255764Y-128005132D02*
X198336576Y-128085944D01*
X198336576Y-128085944D02*
X198471263Y-128166756D01*
X198471263Y-128166756D02*
X198552075Y-128193693D01*
X198552075Y-128193693D02*
X198659825Y-128193693D01*
X198659825Y-128193693D02*
X198767574Y-128139819D01*
X198767574Y-128139819D02*
X198821449Y-128085944D01*
X198821449Y-128085944D02*
X198875324Y-127978194D01*
X198875324Y-127978194D02*
X198875324Y-127924319D01*
X198875324Y-127924319D02*
X198686762Y-127735758D01*
X198686762Y-127735758D02*
X198579012Y-127843507D01*
X199171635Y-127735758D02*
X198605950Y-127170072D01*
X198605950Y-127170072D02*
X198821449Y-126954573D01*
X198821449Y-126954573D02*
X198902261Y-126927636D01*
X198902261Y-126927636D02*
X198956136Y-126927636D01*
X198956136Y-126927636D02*
X199036948Y-126954573D01*
X199036948Y-126954573D02*
X199117760Y-127035385D01*
X199117760Y-127035385D02*
X199144698Y-127116197D01*
X199144698Y-127116197D02*
X199144698Y-127170072D01*
X199144698Y-127170072D02*
X199117760Y-127250884D01*
X199117760Y-127250884D02*
X198902261Y-127466384D01*
X200033632Y-126873761D02*
X199710383Y-127197010D01*
X199872008Y-127035385D02*
X199306322Y-126469700D01*
X199306322Y-126469700D02*
X199333260Y-126604387D01*
X199333260Y-126604387D02*
X199333260Y-126712136D01*
X199333260Y-126712136D02*
X199306322Y-126792948D01*
X199952820Y-125823202D02*
X199845070Y-125930951D01*
X199845070Y-125930951D02*
X199818133Y-126011764D01*
X199818133Y-126011764D02*
X199818133Y-126065638D01*
X199818133Y-126065638D02*
X199845070Y-126200326D01*
X199845070Y-126200326D02*
X199925883Y-126335013D01*
X199925883Y-126335013D02*
X200141382Y-126550512D01*
X200141382Y-126550512D02*
X200222194Y-126577449D01*
X200222194Y-126577449D02*
X200276069Y-126577449D01*
X200276069Y-126577449D02*
X200356881Y-126550512D01*
X200356881Y-126550512D02*
X200464631Y-126442762D01*
X200464631Y-126442762D02*
X200491568Y-126361950D01*
X200491568Y-126361950D02*
X200491568Y-126308075D01*
X200491568Y-126308075D02*
X200464631Y-126227263D01*
X200464631Y-126227263D02*
X200329944Y-126092576D01*
X200329944Y-126092576D02*
X200249131Y-126065638D01*
X200249131Y-126065638D02*
X200195257Y-126065638D01*
X200195257Y-126065638D02*
X200114444Y-126092576D01*
X200114444Y-126092576D02*
X200006695Y-126200326D01*
X200006695Y-126200326D02*
X199979757Y-126281138D01*
X199979757Y-126281138D02*
X199979757Y-126335013D01*
X199979757Y-126335013D02*
X200006695Y-126415825D01*
X172109513Y-114766384D02*
X172028701Y-114793321D01*
X172028701Y-114793321D02*
X171947889Y-114874133D01*
X171947889Y-114874133D02*
X171894014Y-114981883D01*
X171894014Y-114981883D02*
X171894014Y-115089632D01*
X171894014Y-115089632D02*
X171920951Y-115170445D01*
X171920951Y-115170445D02*
X172001764Y-115305132D01*
X172001764Y-115305132D02*
X172082576Y-115385944D01*
X172082576Y-115385944D02*
X172217263Y-115466756D01*
X172217263Y-115466756D02*
X172298075Y-115493693D01*
X172298075Y-115493693D02*
X172405825Y-115493693D01*
X172405825Y-115493693D02*
X172513574Y-115439819D01*
X172513574Y-115439819D02*
X172567449Y-115385944D01*
X172567449Y-115385944D02*
X172621324Y-115278194D01*
X172621324Y-115278194D02*
X172621324Y-115224319D01*
X172621324Y-115224319D02*
X172432762Y-115035758D01*
X172432762Y-115035758D02*
X172325012Y-115143507D01*
X172917635Y-115035758D02*
X172351950Y-114470072D01*
X172351950Y-114470072D02*
X172567449Y-114254573D01*
X172567449Y-114254573D02*
X172648261Y-114227636D01*
X172648261Y-114227636D02*
X172702136Y-114227636D01*
X172702136Y-114227636D02*
X172782948Y-114254573D01*
X172782948Y-114254573D02*
X172863760Y-114335385D01*
X172863760Y-114335385D02*
X172890698Y-114416197D01*
X172890698Y-114416197D02*
X172890698Y-114470072D01*
X172890698Y-114470072D02*
X172863760Y-114550884D01*
X172863760Y-114550884D02*
X172648261Y-114766384D01*
X173779632Y-114173761D02*
X173456383Y-114497010D01*
X173618008Y-114335385D02*
X173052322Y-113769700D01*
X173052322Y-113769700D02*
X173079260Y-113904387D01*
X173079260Y-113904387D02*
X173079260Y-114012136D01*
X173079260Y-114012136D02*
X173052322Y-114092948D01*
X174318380Y-113635013D02*
X173995131Y-113958261D01*
X174156756Y-113796637D02*
X173591070Y-113230951D01*
X173591070Y-113230951D02*
X173618008Y-113365638D01*
X173618008Y-113365638D02*
X173618008Y-113473388D01*
X173618008Y-113473388D02*
X173591070Y-113554200D01*
X198363513Y-102066384D02*
X198282701Y-102093321D01*
X198282701Y-102093321D02*
X198201889Y-102174133D01*
X198201889Y-102174133D02*
X198148014Y-102281883D01*
X198148014Y-102281883D02*
X198148014Y-102389632D01*
X198148014Y-102389632D02*
X198174951Y-102470445D01*
X198174951Y-102470445D02*
X198255764Y-102605132D01*
X198255764Y-102605132D02*
X198336576Y-102685944D01*
X198336576Y-102685944D02*
X198471263Y-102766756D01*
X198471263Y-102766756D02*
X198552075Y-102793693D01*
X198552075Y-102793693D02*
X198659825Y-102793693D01*
X198659825Y-102793693D02*
X198767574Y-102739819D01*
X198767574Y-102739819D02*
X198821449Y-102685944D01*
X198821449Y-102685944D02*
X198875324Y-102578194D01*
X198875324Y-102578194D02*
X198875324Y-102524319D01*
X198875324Y-102524319D02*
X198686762Y-102335758D01*
X198686762Y-102335758D02*
X198579012Y-102443507D01*
X199171635Y-102335758D02*
X198605950Y-101770072D01*
X198605950Y-101770072D02*
X198821449Y-101554573D01*
X198821449Y-101554573D02*
X198902261Y-101527636D01*
X198902261Y-101527636D02*
X198956136Y-101527636D01*
X198956136Y-101527636D02*
X199036948Y-101554573D01*
X199036948Y-101554573D02*
X199117760Y-101635385D01*
X199117760Y-101635385D02*
X199144698Y-101716197D01*
X199144698Y-101716197D02*
X199144698Y-101770072D01*
X199144698Y-101770072D02*
X199117760Y-101850884D01*
X199117760Y-101850884D02*
X198902261Y-102066384D01*
X199198573Y-101285199D02*
X199198573Y-101231324D01*
X199198573Y-101231324D02*
X199225510Y-101150512D01*
X199225510Y-101150512D02*
X199360197Y-101015825D01*
X199360197Y-101015825D02*
X199441009Y-100988887D01*
X199441009Y-100988887D02*
X199494884Y-100988887D01*
X199494884Y-100988887D02*
X199575696Y-101015825D01*
X199575696Y-101015825D02*
X199629571Y-101069700D01*
X199629571Y-101069700D02*
X199683446Y-101177449D01*
X199683446Y-101177449D02*
X199683446Y-101823947D01*
X199683446Y-101823947D02*
X200033632Y-101473761D01*
X199952820Y-100423202D02*
X199845070Y-100530951D01*
X199845070Y-100530951D02*
X199818133Y-100611764D01*
X199818133Y-100611764D02*
X199818133Y-100665638D01*
X199818133Y-100665638D02*
X199845070Y-100800326D01*
X199845070Y-100800326D02*
X199925883Y-100935013D01*
X199925883Y-100935013D02*
X200141382Y-101150512D01*
X200141382Y-101150512D02*
X200222194Y-101177449D01*
X200222194Y-101177449D02*
X200276069Y-101177449D01*
X200276069Y-101177449D02*
X200356881Y-101150512D01*
X200356881Y-101150512D02*
X200464631Y-101042762D01*
X200464631Y-101042762D02*
X200491568Y-100961950D01*
X200491568Y-100961950D02*
X200491568Y-100908075D01*
X200491568Y-100908075D02*
X200464631Y-100827263D01*
X200464631Y-100827263D02*
X200329944Y-100692576D01*
X200329944Y-100692576D02*
X200249131Y-100665638D01*
X200249131Y-100665638D02*
X200195257Y-100665638D01*
X200195257Y-100665638D02*
X200114444Y-100692576D01*
X200114444Y-100692576D02*
X200006695Y-100800326D01*
X200006695Y-100800326D02*
X199979757Y-100881138D01*
X199979757Y-100881138D02*
X199979757Y-100935013D01*
X199979757Y-100935013D02*
X200006695Y-101015825D01*
X198363513Y-94192384D02*
X198282701Y-94219321D01*
X198282701Y-94219321D02*
X198201889Y-94300133D01*
X198201889Y-94300133D02*
X198148014Y-94407883D01*
X198148014Y-94407883D02*
X198148014Y-94515632D01*
X198148014Y-94515632D02*
X198174951Y-94596445D01*
X198174951Y-94596445D02*
X198255764Y-94731132D01*
X198255764Y-94731132D02*
X198336576Y-94811944D01*
X198336576Y-94811944D02*
X198471263Y-94892756D01*
X198471263Y-94892756D02*
X198552075Y-94919693D01*
X198552075Y-94919693D02*
X198659825Y-94919693D01*
X198659825Y-94919693D02*
X198767574Y-94865819D01*
X198767574Y-94865819D02*
X198821449Y-94811944D01*
X198821449Y-94811944D02*
X198875324Y-94704194D01*
X198875324Y-94704194D02*
X198875324Y-94650319D01*
X198875324Y-94650319D02*
X198686762Y-94461758D01*
X198686762Y-94461758D02*
X198579012Y-94569507D01*
X199171635Y-94461758D02*
X198605950Y-93896072D01*
X198605950Y-93896072D02*
X198821449Y-93680573D01*
X198821449Y-93680573D02*
X198902261Y-93653636D01*
X198902261Y-93653636D02*
X198956136Y-93653636D01*
X198956136Y-93653636D02*
X199036948Y-93680573D01*
X199036948Y-93680573D02*
X199117760Y-93761385D01*
X199117760Y-93761385D02*
X199144698Y-93842197D01*
X199144698Y-93842197D02*
X199144698Y-93896072D01*
X199144698Y-93896072D02*
X199117760Y-93976884D01*
X199117760Y-93976884D02*
X198902261Y-94192384D01*
X199198573Y-93411199D02*
X199198573Y-93357324D01*
X199198573Y-93357324D02*
X199225510Y-93276512D01*
X199225510Y-93276512D02*
X199360197Y-93141825D01*
X199360197Y-93141825D02*
X199441009Y-93114887D01*
X199441009Y-93114887D02*
X199494884Y-93114887D01*
X199494884Y-93114887D02*
X199575696Y-93141825D01*
X199575696Y-93141825D02*
X199629571Y-93195700D01*
X199629571Y-93195700D02*
X199683446Y-93303449D01*
X199683446Y-93303449D02*
X199683446Y-93949947D01*
X199683446Y-93949947D02*
X200033632Y-93599761D01*
X200033632Y-92953263D02*
X199952820Y-92980200D01*
X199952820Y-92980200D02*
X199898945Y-92980200D01*
X199898945Y-92980200D02*
X199818133Y-92953263D01*
X199818133Y-92953263D02*
X199791196Y-92926326D01*
X199791196Y-92926326D02*
X199764258Y-92845513D01*
X199764258Y-92845513D02*
X199764258Y-92791638D01*
X199764258Y-92791638D02*
X199791196Y-92710826D01*
X199791196Y-92710826D02*
X199898945Y-92603077D01*
X199898945Y-92603077D02*
X199979757Y-92576139D01*
X199979757Y-92576139D02*
X200033632Y-92576139D01*
X200033632Y-92576139D02*
X200114444Y-92603077D01*
X200114444Y-92603077D02*
X200141382Y-92630014D01*
X200141382Y-92630014D02*
X200168319Y-92710826D01*
X200168319Y-92710826D02*
X200168319Y-92764701D01*
X200168319Y-92764701D02*
X200141382Y-92845513D01*
X200141382Y-92845513D02*
X200033632Y-92953263D01*
X200033632Y-92953263D02*
X200006695Y-93034075D01*
X200006695Y-93034075D02*
X200006695Y-93087950D01*
X200006695Y-93087950D02*
X200033632Y-93168762D01*
X200033632Y-93168762D02*
X200141382Y-93276512D01*
X200141382Y-93276512D02*
X200222194Y-93303449D01*
X200222194Y-93303449D02*
X200276069Y-93303449D01*
X200276069Y-93303449D02*
X200356881Y-93276512D01*
X200356881Y-93276512D02*
X200464631Y-93168762D01*
X200464631Y-93168762D02*
X200491568Y-93087950D01*
X200491568Y-93087950D02*
X200491568Y-93034075D01*
X200491568Y-93034075D02*
X200464631Y-92953263D01*
X200464631Y-92953263D02*
X200356881Y-92845513D01*
X200356881Y-92845513D02*
X200276069Y-92818576D01*
X200276069Y-92818576D02*
X200222194Y-92818576D01*
X200222194Y-92818576D02*
X200141382Y-92845513D01*
X198420579Y-92479565D02*
X198689953Y-92210191D01*
X198528329Y-92695064D02*
X198151205Y-91940817D01*
X198151205Y-91940817D02*
X198905452Y-92317940D01*
X199094014Y-92129379D02*
X198528329Y-91563693D01*
X198528329Y-91563693D02*
X198663016Y-91429006D01*
X198663016Y-91429006D02*
X198770765Y-91375132D01*
X198770765Y-91375132D02*
X198878515Y-91375132D01*
X198878515Y-91375132D02*
X198959327Y-91402069D01*
X198959327Y-91402069D02*
X199094014Y-91482881D01*
X199094014Y-91482881D02*
X199174826Y-91563693D01*
X199174826Y-91563693D02*
X199255638Y-91698380D01*
X199255638Y-91698380D02*
X199282576Y-91779193D01*
X199282576Y-91779193D02*
X199282576Y-91886942D01*
X199282576Y-91886942D02*
X199228701Y-91994692D01*
X199228701Y-91994692D02*
X199094014Y-92129379D01*
X199929073Y-91186570D02*
X199929073Y-91240445D01*
X199929073Y-91240445D02*
X199875199Y-91348194D01*
X199875199Y-91348194D02*
X199821324Y-91402069D01*
X199821324Y-91402069D02*
X199713574Y-91455944D01*
X199713574Y-91455944D02*
X199605825Y-91455944D01*
X199605825Y-91455944D02*
X199525012Y-91429006D01*
X199525012Y-91429006D02*
X199390325Y-91348194D01*
X199390325Y-91348194D02*
X199309513Y-91267382D01*
X199309513Y-91267382D02*
X199228701Y-91132695D01*
X199228701Y-91132695D02*
X199201764Y-91051883D01*
X199201764Y-91051883D02*
X199201764Y-90944133D01*
X199201764Y-90944133D02*
X199255638Y-90836383D01*
X199255638Y-90836383D02*
X199309513Y-90782509D01*
X199309513Y-90782509D02*
X199417263Y-90728634D01*
X199417263Y-90728634D02*
X199471138Y-90728634D01*
X200144573Y-91186570D02*
X200575571Y-90755571D01*
X200009886Y-90082136D02*
X200764133Y-90459260D01*
X200764133Y-90459260D02*
X200387009Y-89705013D01*
X201464505Y-89758888D02*
X201006569Y-89678075D01*
X201141256Y-90082136D02*
X200575571Y-89516451D01*
X200575571Y-89516451D02*
X200791070Y-89300952D01*
X200791070Y-89300952D02*
X200871882Y-89274014D01*
X200871882Y-89274014D02*
X200925757Y-89274014D01*
X200925757Y-89274014D02*
X201006569Y-89300952D01*
X201006569Y-89300952D02*
X201087382Y-89381764D01*
X201087382Y-89381764D02*
X201114319Y-89462576D01*
X201114319Y-89462576D02*
X201114319Y-89516451D01*
X201114319Y-89516451D02*
X201087382Y-89597263D01*
X201087382Y-89597263D02*
X200871882Y-89812762D01*
X201410630Y-89220139D02*
X201599192Y-89031578D01*
X201976316Y-89247077D02*
X201706942Y-89516451D01*
X201706942Y-89516451D02*
X201141256Y-88950765D01*
X201141256Y-88950765D02*
X201410630Y-88681391D01*
X202111003Y-88519767D02*
X201922441Y-88708329D01*
X202218753Y-89004640D02*
X201653067Y-88438955D01*
X201653067Y-88438955D02*
X201922441Y-88169581D01*
X172209513Y-124926384D02*
X172128701Y-124953321D01*
X172128701Y-124953321D02*
X172047889Y-125034133D01*
X172047889Y-125034133D02*
X171994014Y-125141883D01*
X171994014Y-125141883D02*
X171994014Y-125249632D01*
X171994014Y-125249632D02*
X172020951Y-125330445D01*
X172020951Y-125330445D02*
X172101764Y-125465132D01*
X172101764Y-125465132D02*
X172182576Y-125545944D01*
X172182576Y-125545944D02*
X172317263Y-125626756D01*
X172317263Y-125626756D02*
X172398075Y-125653693D01*
X172398075Y-125653693D02*
X172505825Y-125653693D01*
X172505825Y-125653693D02*
X172613574Y-125599819D01*
X172613574Y-125599819D02*
X172667449Y-125545944D01*
X172667449Y-125545944D02*
X172721324Y-125438194D01*
X172721324Y-125438194D02*
X172721324Y-125384319D01*
X172721324Y-125384319D02*
X172532762Y-125195758D01*
X172532762Y-125195758D02*
X172425012Y-125303507D01*
X173017635Y-125195758D02*
X172451950Y-124630072D01*
X172451950Y-124630072D02*
X172667449Y-124414573D01*
X172667449Y-124414573D02*
X172748261Y-124387636D01*
X172748261Y-124387636D02*
X172802136Y-124387636D01*
X172802136Y-124387636D02*
X172882948Y-124414573D01*
X172882948Y-124414573D02*
X172963760Y-124495385D01*
X172963760Y-124495385D02*
X172990698Y-124576197D01*
X172990698Y-124576197D02*
X172990698Y-124630072D01*
X172990698Y-124630072D02*
X172963760Y-124710884D01*
X172963760Y-124710884D02*
X172748261Y-124926384D01*
X173879632Y-124333761D02*
X173556383Y-124657010D01*
X173718008Y-124495385D02*
X173152322Y-123929700D01*
X173152322Y-123929700D02*
X173179260Y-124064387D01*
X173179260Y-124064387D02*
X173179260Y-124172136D01*
X173179260Y-124172136D02*
X173152322Y-124252948D01*
X173987382Y-123471764D02*
X174364505Y-123848887D01*
X173637196Y-123390951D02*
X173906570Y-123929700D01*
X173906570Y-123929700D02*
X174256756Y-123579513D01*
X198363513Y-124926384D02*
X198282701Y-124953321D01*
X198282701Y-124953321D02*
X198201889Y-125034133D01*
X198201889Y-125034133D02*
X198148014Y-125141883D01*
X198148014Y-125141883D02*
X198148014Y-125249632D01*
X198148014Y-125249632D02*
X198174951Y-125330445D01*
X198174951Y-125330445D02*
X198255764Y-125465132D01*
X198255764Y-125465132D02*
X198336576Y-125545944D01*
X198336576Y-125545944D02*
X198471263Y-125626756D01*
X198471263Y-125626756D02*
X198552075Y-125653693D01*
X198552075Y-125653693D02*
X198659825Y-125653693D01*
X198659825Y-125653693D02*
X198767574Y-125599819D01*
X198767574Y-125599819D02*
X198821449Y-125545944D01*
X198821449Y-125545944D02*
X198875324Y-125438194D01*
X198875324Y-125438194D02*
X198875324Y-125384319D01*
X198875324Y-125384319D02*
X198686762Y-125195758D01*
X198686762Y-125195758D02*
X198579012Y-125303507D01*
X199171635Y-125195758D02*
X198605950Y-124630072D01*
X198605950Y-124630072D02*
X198821449Y-124414573D01*
X198821449Y-124414573D02*
X198902261Y-124387636D01*
X198902261Y-124387636D02*
X198956136Y-124387636D01*
X198956136Y-124387636D02*
X199036948Y-124414573D01*
X199036948Y-124414573D02*
X199117760Y-124495385D01*
X199117760Y-124495385D02*
X199144698Y-124576197D01*
X199144698Y-124576197D02*
X199144698Y-124630072D01*
X199144698Y-124630072D02*
X199117760Y-124710884D01*
X199117760Y-124710884D02*
X198902261Y-124926384D01*
X200033632Y-124333761D02*
X199710383Y-124657010D01*
X199872008Y-124495385D02*
X199306322Y-123929700D01*
X199306322Y-123929700D02*
X199333260Y-124064387D01*
X199333260Y-124064387D02*
X199333260Y-124172136D01*
X199333260Y-124172136D02*
X199306322Y-124252948D01*
X199656509Y-123579513D02*
X200033632Y-123202390D01*
X200033632Y-123202390D02*
X200356881Y-124010512D01*
X198363513Y-114766384D02*
X198282701Y-114793321D01*
X198282701Y-114793321D02*
X198201889Y-114874133D01*
X198201889Y-114874133D02*
X198148014Y-114981883D01*
X198148014Y-114981883D02*
X198148014Y-115089632D01*
X198148014Y-115089632D02*
X198174951Y-115170445D01*
X198174951Y-115170445D02*
X198255764Y-115305132D01*
X198255764Y-115305132D02*
X198336576Y-115385944D01*
X198336576Y-115385944D02*
X198471263Y-115466756D01*
X198471263Y-115466756D02*
X198552075Y-115493693D01*
X198552075Y-115493693D02*
X198659825Y-115493693D01*
X198659825Y-115493693D02*
X198767574Y-115439819D01*
X198767574Y-115439819D02*
X198821449Y-115385944D01*
X198821449Y-115385944D02*
X198875324Y-115278194D01*
X198875324Y-115278194D02*
X198875324Y-115224319D01*
X198875324Y-115224319D02*
X198686762Y-115035758D01*
X198686762Y-115035758D02*
X198579012Y-115143507D01*
X199171635Y-115035758D02*
X198605950Y-114470072D01*
X198605950Y-114470072D02*
X198821449Y-114254573D01*
X198821449Y-114254573D02*
X198902261Y-114227636D01*
X198902261Y-114227636D02*
X198956136Y-114227636D01*
X198956136Y-114227636D02*
X199036948Y-114254573D01*
X199036948Y-114254573D02*
X199117760Y-114335385D01*
X199117760Y-114335385D02*
X199144698Y-114416197D01*
X199144698Y-114416197D02*
X199144698Y-114470072D01*
X199144698Y-114470072D02*
X199117760Y-114550884D01*
X199117760Y-114550884D02*
X198902261Y-114766384D01*
X199198573Y-113985199D02*
X199198573Y-113931324D01*
X199198573Y-113931324D02*
X199225510Y-113850512D01*
X199225510Y-113850512D02*
X199360197Y-113715825D01*
X199360197Y-113715825D02*
X199441009Y-113688887D01*
X199441009Y-113688887D02*
X199494884Y-113688887D01*
X199494884Y-113688887D02*
X199575696Y-113715825D01*
X199575696Y-113715825D02*
X199629571Y-113769700D01*
X199629571Y-113769700D02*
X199683446Y-113877449D01*
X199683446Y-113877449D02*
X199683446Y-114523947D01*
X199683446Y-114523947D02*
X200033632Y-114173761D01*
X199818133Y-113257889D02*
X199872008Y-113204014D01*
X199872008Y-113204014D02*
X199952820Y-113177077D01*
X199952820Y-113177077D02*
X200006695Y-113177077D01*
X200006695Y-113177077D02*
X200087507Y-113204014D01*
X200087507Y-113204014D02*
X200222194Y-113284826D01*
X200222194Y-113284826D02*
X200356881Y-113419513D01*
X200356881Y-113419513D02*
X200437693Y-113554200D01*
X200437693Y-113554200D02*
X200464631Y-113635013D01*
X200464631Y-113635013D02*
X200464631Y-113688887D01*
X200464631Y-113688887D02*
X200437693Y-113769700D01*
X200437693Y-113769700D02*
X200383818Y-113823574D01*
X200383818Y-113823574D02*
X200303006Y-113850512D01*
X200303006Y-113850512D02*
X200249131Y-113850512D01*
X200249131Y-113850512D02*
X200168319Y-113823574D01*
X200168319Y-113823574D02*
X200033632Y-113742762D01*
X200033632Y-113742762D02*
X199898945Y-113608075D01*
X199898945Y-113608075D02*
X199818133Y-113473388D01*
X199818133Y-113473388D02*
X199791196Y-113392576D01*
X199791196Y-113392576D02*
X199791196Y-113338701D01*
X199791196Y-113338701D02*
X199818133Y-113257889D01*
X172255513Y-127466384D02*
X172174701Y-127493321D01*
X172174701Y-127493321D02*
X172093889Y-127574133D01*
X172093889Y-127574133D02*
X172040014Y-127681883D01*
X172040014Y-127681883D02*
X172040014Y-127789632D01*
X172040014Y-127789632D02*
X172066951Y-127870445D01*
X172066951Y-127870445D02*
X172147764Y-128005132D01*
X172147764Y-128005132D02*
X172228576Y-128085944D01*
X172228576Y-128085944D02*
X172363263Y-128166756D01*
X172363263Y-128166756D02*
X172444075Y-128193693D01*
X172444075Y-128193693D02*
X172551825Y-128193693D01*
X172551825Y-128193693D02*
X172659574Y-128139819D01*
X172659574Y-128139819D02*
X172713449Y-128085944D01*
X172713449Y-128085944D02*
X172767324Y-127978194D01*
X172767324Y-127978194D02*
X172767324Y-127924319D01*
X172767324Y-127924319D02*
X172578762Y-127735758D01*
X172578762Y-127735758D02*
X172471012Y-127843507D01*
X173063635Y-127735758D02*
X172497950Y-127170072D01*
X172497950Y-127170072D02*
X172713449Y-126954573D01*
X172713449Y-126954573D02*
X172794261Y-126927636D01*
X172794261Y-126927636D02*
X172848136Y-126927636D01*
X172848136Y-126927636D02*
X172928948Y-126954573D01*
X172928948Y-126954573D02*
X173009760Y-127035385D01*
X173009760Y-127035385D02*
X173036698Y-127116197D01*
X173036698Y-127116197D02*
X173036698Y-127170072D01*
X173036698Y-127170072D02*
X173009760Y-127250884D01*
X173009760Y-127250884D02*
X172794261Y-127466384D01*
X173925632Y-126873761D02*
X173602383Y-127197010D01*
X173764008Y-127035385D02*
X173198322Y-126469700D01*
X173198322Y-126469700D02*
X173225260Y-126604387D01*
X173225260Y-126604387D02*
X173225260Y-126712136D01*
X173225260Y-126712136D02*
X173198322Y-126792948D01*
X173871757Y-125796264D02*
X173602383Y-126065638D01*
X173602383Y-126065638D02*
X173844820Y-126361950D01*
X173844820Y-126361950D02*
X173844820Y-126308075D01*
X173844820Y-126308075D02*
X173871757Y-126227263D01*
X173871757Y-126227263D02*
X174006444Y-126092576D01*
X174006444Y-126092576D02*
X174087257Y-126065638D01*
X174087257Y-126065638D02*
X174141131Y-126065638D01*
X174141131Y-126065638D02*
X174221944Y-126092576D01*
X174221944Y-126092576D02*
X174356631Y-126227263D01*
X174356631Y-126227263D02*
X174383568Y-126308075D01*
X174383568Y-126308075D02*
X174383568Y-126361950D01*
X174383568Y-126361950D02*
X174356631Y-126442762D01*
X174356631Y-126442762D02*
X174221944Y-126577449D01*
X174221944Y-126577449D02*
X174141131Y-126604387D01*
X174141131Y-126604387D02*
X174087257Y-126604387D01*
X172778888Y-89097009D02*
X172698075Y-89123946D01*
X172698075Y-89123946D02*
X172617263Y-89204759D01*
X172617263Y-89204759D02*
X172563388Y-89312508D01*
X172563388Y-89312508D02*
X172563388Y-89420258D01*
X172563388Y-89420258D02*
X172590326Y-89501070D01*
X172590326Y-89501070D02*
X172671138Y-89635757D01*
X172671138Y-89635757D02*
X172751950Y-89716569D01*
X172751950Y-89716569D02*
X172886637Y-89797382D01*
X172886637Y-89797382D02*
X172967449Y-89824319D01*
X172967449Y-89824319D02*
X173075199Y-89824319D01*
X173075199Y-89824319D02*
X173182949Y-89770444D01*
X173182949Y-89770444D02*
X173236823Y-89716569D01*
X173236823Y-89716569D02*
X173290698Y-89608820D01*
X173290698Y-89608820D02*
X173290698Y-89554945D01*
X173290698Y-89554945D02*
X173102136Y-89366383D01*
X173102136Y-89366383D02*
X172994387Y-89474133D01*
X173587010Y-89366383D02*
X173021324Y-88800698D01*
X173021324Y-88800698D02*
X173236823Y-88585198D01*
X173236823Y-88585198D02*
X173317636Y-88558261D01*
X173317636Y-88558261D02*
X173371510Y-88558261D01*
X173371510Y-88558261D02*
X173452323Y-88585198D01*
X173452323Y-88585198D02*
X173533135Y-88666011D01*
X173533135Y-88666011D02*
X173560072Y-88746823D01*
X173560072Y-88746823D02*
X173560072Y-88800698D01*
X173560072Y-88800698D02*
X173533135Y-88881510D01*
X173533135Y-88881510D02*
X173317636Y-89097009D01*
X173533135Y-88288887D02*
X173883321Y-87938701D01*
X173883321Y-87938701D02*
X173910258Y-88342762D01*
X173910258Y-88342762D02*
X173991071Y-88261950D01*
X173991071Y-88261950D02*
X174071883Y-88235012D01*
X174071883Y-88235012D02*
X174125758Y-88235012D01*
X174125758Y-88235012D02*
X174206570Y-88261950D01*
X174206570Y-88261950D02*
X174341257Y-88396637D01*
X174341257Y-88396637D02*
X174368194Y-88477449D01*
X174368194Y-88477449D02*
X174368194Y-88531324D01*
X174368194Y-88531324D02*
X174341257Y-88612136D01*
X174341257Y-88612136D02*
X174179632Y-88773760D01*
X174179632Y-88773760D02*
X174098820Y-88800698D01*
X174098820Y-88800698D02*
X174044945Y-88800698D01*
X198351950Y-122143946D02*
X198271138Y-122170884D01*
X198271138Y-122170884D02*
X198190326Y-122251696D01*
X198190326Y-122251696D02*
X198136451Y-122359446D01*
X198136451Y-122359446D02*
X198136451Y-122467195D01*
X198136451Y-122467195D02*
X198163389Y-122548007D01*
X198163389Y-122548007D02*
X198244201Y-122682694D01*
X198244201Y-122682694D02*
X198325013Y-122763507D01*
X198325013Y-122763507D02*
X198459700Y-122844319D01*
X198459700Y-122844319D02*
X198540512Y-122871256D01*
X198540512Y-122871256D02*
X198648262Y-122871256D01*
X198648262Y-122871256D02*
X198756011Y-122817381D01*
X198756011Y-122817381D02*
X198809886Y-122763507D01*
X198809886Y-122763507D02*
X198863761Y-122655757D01*
X198863761Y-122655757D02*
X198863761Y-122601882D01*
X198863761Y-122601882D02*
X198675199Y-122413320D01*
X198675199Y-122413320D02*
X198567450Y-122521070D01*
X199160072Y-122413320D02*
X198594387Y-121847635D01*
X198594387Y-121847635D02*
X199483321Y-122090072D01*
X199483321Y-122090072D02*
X198917636Y-121524386D01*
X199752695Y-121820698D02*
X199187010Y-121255012D01*
X199187010Y-121255012D02*
X199321697Y-121120325D01*
X199321697Y-121120325D02*
X199429446Y-121066450D01*
X199429446Y-121066450D02*
X199537196Y-121066450D01*
X199537196Y-121066450D02*
X199618008Y-121093388D01*
X199618008Y-121093388D02*
X199752695Y-121174200D01*
X199752695Y-121174200D02*
X199833507Y-121255012D01*
X199833507Y-121255012D02*
X199914319Y-121389699D01*
X199914319Y-121389699D02*
X199941257Y-121470511D01*
X199941257Y-121470511D02*
X199941257Y-121578261D01*
X199941257Y-121578261D02*
X199887382Y-121686011D01*
X199887382Y-121686011D02*
X199752695Y-121820698D01*
X198186265Y-82015757D02*
X198940512Y-82392881D01*
X198940512Y-82392881D02*
X198563388Y-81638634D01*
X199263760Y-82015758D02*
X199371510Y-81961883D01*
X199371510Y-81961883D02*
X199506197Y-81827196D01*
X199506197Y-81827196D02*
X199533134Y-81746384D01*
X199533134Y-81746384D02*
X199533134Y-81692509D01*
X199533134Y-81692509D02*
X199506197Y-81611697D01*
X199506197Y-81611697D02*
X199452322Y-81557822D01*
X199452322Y-81557822D02*
X199371510Y-81530884D01*
X199371510Y-81530884D02*
X199317635Y-81530884D01*
X199317635Y-81530884D02*
X199236823Y-81557822D01*
X199236823Y-81557822D02*
X199102136Y-81638634D01*
X199102136Y-81638634D02*
X199021324Y-81665571D01*
X199021324Y-81665571D02*
X198967449Y-81665571D01*
X198967449Y-81665571D02*
X198886637Y-81638634D01*
X198886637Y-81638634D02*
X198832762Y-81584759D01*
X198832762Y-81584759D02*
X198805825Y-81503947D01*
X198805825Y-81503947D02*
X198805825Y-81450072D01*
X198805825Y-81450072D02*
X198832762Y-81369260D01*
X198832762Y-81369260D02*
X198967449Y-81234573D01*
X198967449Y-81234573D02*
X199075199Y-81180698D01*
X199694759Y-81099886D02*
X199964133Y-81369260D01*
X199209886Y-80992136D02*
X199694759Y-81099886D01*
X199694759Y-81099886D02*
X199587009Y-80615013D01*
X200287382Y-80992136D02*
X200395131Y-80938262D01*
X200395131Y-80938262D02*
X200529818Y-80803575D01*
X200529818Y-80803575D02*
X200556756Y-80722762D01*
X200556756Y-80722762D02*
X200556756Y-80668888D01*
X200556756Y-80668888D02*
X200529818Y-80588075D01*
X200529818Y-80588075D02*
X200475943Y-80534201D01*
X200475943Y-80534201D02*
X200395131Y-80507263D01*
X200395131Y-80507263D02*
X200341256Y-80507263D01*
X200341256Y-80507263D02*
X200260444Y-80534201D01*
X200260444Y-80534201D02*
X200125757Y-80615013D01*
X200125757Y-80615013D02*
X200044945Y-80641950D01*
X200044945Y-80641950D02*
X199991070Y-80641950D01*
X199991070Y-80641950D02*
X199910258Y-80615013D01*
X199910258Y-80615013D02*
X199856383Y-80561138D01*
X199856383Y-80561138D02*
X199829446Y-80480326D01*
X199829446Y-80480326D02*
X199829446Y-80426451D01*
X199829446Y-80426451D02*
X199856383Y-80345639D01*
X199856383Y-80345639D02*
X199991070Y-80210952D01*
X199991070Y-80210952D02*
X200098820Y-80157077D01*
X172678888Y-81467009D02*
X172598075Y-81493946D01*
X172598075Y-81493946D02*
X172517263Y-81574759D01*
X172517263Y-81574759D02*
X172463388Y-81682508D01*
X172463388Y-81682508D02*
X172463388Y-81790258D01*
X172463388Y-81790258D02*
X172490326Y-81871070D01*
X172490326Y-81871070D02*
X172571138Y-82005757D01*
X172571138Y-82005757D02*
X172651950Y-82086569D01*
X172651950Y-82086569D02*
X172786637Y-82167382D01*
X172786637Y-82167382D02*
X172867449Y-82194319D01*
X172867449Y-82194319D02*
X172975199Y-82194319D01*
X172975199Y-82194319D02*
X173082949Y-82140444D01*
X173082949Y-82140444D02*
X173136823Y-82086569D01*
X173136823Y-82086569D02*
X173190698Y-81978820D01*
X173190698Y-81978820D02*
X173190698Y-81924945D01*
X173190698Y-81924945D02*
X173002136Y-81736383D01*
X173002136Y-81736383D02*
X172894387Y-81844133D01*
X173487010Y-81736383D02*
X172921324Y-81170698D01*
X172921324Y-81170698D02*
X173136823Y-80955198D01*
X173136823Y-80955198D02*
X173217636Y-80928261D01*
X173217636Y-80928261D02*
X173271510Y-80928261D01*
X173271510Y-80928261D02*
X173352323Y-80955198D01*
X173352323Y-80955198D02*
X173433135Y-81036011D01*
X173433135Y-81036011D02*
X173460072Y-81116823D01*
X173460072Y-81116823D02*
X173460072Y-81170698D01*
X173460072Y-81170698D02*
X173433135Y-81251510D01*
X173433135Y-81251510D02*
X173217636Y-81467009D01*
X174349006Y-80874386D02*
X174025758Y-81197635D01*
X174187382Y-81036011D02*
X173621697Y-80470325D01*
X173621697Y-80470325D02*
X173648634Y-80605012D01*
X173648634Y-80605012D02*
X173648634Y-80712762D01*
X173648634Y-80712762D02*
X173621697Y-80793574D01*
X190164761Y-129472000D02*
X190279047Y-129510095D01*
X190279047Y-129510095D02*
X190469523Y-129510095D01*
X190469523Y-129510095D02*
X190545714Y-129472000D01*
X190545714Y-129472000D02*
X190583809Y-129433904D01*
X190583809Y-129433904D02*
X190621904Y-129357714D01*
X190621904Y-129357714D02*
X190621904Y-129281523D01*
X190621904Y-129281523D02*
X190583809Y-129205333D01*
X190583809Y-129205333D02*
X190545714Y-129167238D01*
X190545714Y-129167238D02*
X190469523Y-129129142D01*
X190469523Y-129129142D02*
X190317142Y-129091047D01*
X190317142Y-129091047D02*
X190240952Y-129052952D01*
X190240952Y-129052952D02*
X190202857Y-129014857D01*
X190202857Y-129014857D02*
X190164761Y-128938666D01*
X190164761Y-128938666D02*
X190164761Y-128862476D01*
X190164761Y-128862476D02*
X190202857Y-128786285D01*
X190202857Y-128786285D02*
X190240952Y-128748190D01*
X190240952Y-128748190D02*
X190317142Y-128710095D01*
X190317142Y-128710095D02*
X190507619Y-128710095D01*
X190507619Y-128710095D02*
X190621904Y-128748190D01*
X190888571Y-128710095D02*
X191079047Y-129510095D01*
X191079047Y-129510095D02*
X191231428Y-128938666D01*
X191231428Y-128938666D02*
X191383809Y-129510095D01*
X191383809Y-129510095D02*
X191574286Y-128710095D01*
X191879048Y-129510095D02*
X191879048Y-128710095D01*
X191879048Y-128710095D02*
X192069524Y-128710095D01*
X192069524Y-128710095D02*
X192183810Y-128748190D01*
X192183810Y-128748190D02*
X192260000Y-128824380D01*
X192260000Y-128824380D02*
X192298095Y-128900571D01*
X192298095Y-128900571D02*
X192336191Y-129052952D01*
X192336191Y-129052952D02*
X192336191Y-129167238D01*
X192336191Y-129167238D02*
X192298095Y-129319619D01*
X192298095Y-129319619D02*
X192260000Y-129395809D01*
X192260000Y-129395809D02*
X192183810Y-129472000D01*
X192183810Y-129472000D02*
X192069524Y-129510095D01*
X192069524Y-129510095D02*
X191879048Y-129510095D01*
X192679048Y-129510095D02*
X192679048Y-128710095D01*
X193212381Y-128710095D02*
X193364762Y-128710095D01*
X193364762Y-128710095D02*
X193440952Y-128748190D01*
X193440952Y-128748190D02*
X193517143Y-128824380D01*
X193517143Y-128824380D02*
X193555238Y-128976761D01*
X193555238Y-128976761D02*
X193555238Y-129243428D01*
X193555238Y-129243428D02*
X193517143Y-129395809D01*
X193517143Y-129395809D02*
X193440952Y-129472000D01*
X193440952Y-129472000D02*
X193364762Y-129510095D01*
X193364762Y-129510095D02*
X193212381Y-129510095D01*
X193212381Y-129510095D02*
X193136190Y-129472000D01*
X193136190Y-129472000D02*
X193060000Y-129395809D01*
X193060000Y-129395809D02*
X193021904Y-129243428D01*
X193021904Y-129243428D02*
X193021904Y-128976761D01*
X193021904Y-128976761D02*
X193060000Y-128824380D01*
X193060000Y-128824380D02*
X193136190Y-128748190D01*
X193136190Y-128748190D02*
X193212381Y-128710095D01*
X198155638Y-89436383D02*
X198505825Y-89086197D01*
X198505825Y-89086197D02*
X198532762Y-89490258D01*
X198532762Y-89490258D02*
X198613574Y-89409446D01*
X198613574Y-89409446D02*
X198694386Y-89382509D01*
X198694386Y-89382509D02*
X198748261Y-89382509D01*
X198748261Y-89382509D02*
X198829073Y-89409446D01*
X198829073Y-89409446D02*
X198963760Y-89544133D01*
X198963760Y-89544133D02*
X198990698Y-89624945D01*
X198990698Y-89624945D02*
X198990698Y-89678820D01*
X198990698Y-89678820D02*
X198963760Y-89759632D01*
X198963760Y-89759632D02*
X198802136Y-89921257D01*
X198802136Y-89921257D02*
X198721324Y-89948194D01*
X198721324Y-89948194D02*
X198667449Y-89948194D01*
X198667449Y-88924573D02*
X199421696Y-89301696D01*
X199421696Y-89301696D02*
X199044573Y-88547449D01*
X199179260Y-88412762D02*
X199529446Y-88062576D01*
X199529446Y-88062576D02*
X199556383Y-88466637D01*
X199556383Y-88466637D02*
X199637195Y-88385825D01*
X199637195Y-88385825D02*
X199718008Y-88358887D01*
X199718008Y-88358887D02*
X199771882Y-88358887D01*
X199771882Y-88358887D02*
X199852695Y-88385825D01*
X199852695Y-88385825D02*
X199987382Y-88520512D01*
X199987382Y-88520512D02*
X200014319Y-88601324D01*
X200014319Y-88601324D02*
X200014319Y-88655199D01*
X200014319Y-88655199D02*
X199987382Y-88736011D01*
X199987382Y-88736011D02*
X199825757Y-88897635D01*
X199825757Y-88897635D02*
X199744945Y-88924573D01*
X199744945Y-88924573D02*
X199691070Y-88924573D01*
%TO.C,SW5*%
X153486667Y-83981000D02*
X153629524Y-84028619D01*
X153629524Y-84028619D02*
X153867619Y-84028619D01*
X153867619Y-84028619D02*
X153962857Y-83981000D01*
X153962857Y-83981000D02*
X154010476Y-83933380D01*
X154010476Y-83933380D02*
X154058095Y-83838142D01*
X154058095Y-83838142D02*
X154058095Y-83742904D01*
X154058095Y-83742904D02*
X154010476Y-83647666D01*
X154010476Y-83647666D02*
X153962857Y-83600047D01*
X153962857Y-83600047D02*
X153867619Y-83552428D01*
X153867619Y-83552428D02*
X153677143Y-83504809D01*
X153677143Y-83504809D02*
X153581905Y-83457190D01*
X153581905Y-83457190D02*
X153534286Y-83409571D01*
X153534286Y-83409571D02*
X153486667Y-83314333D01*
X153486667Y-83314333D02*
X153486667Y-83219095D01*
X153486667Y-83219095D02*
X153534286Y-83123857D01*
X153534286Y-83123857D02*
X153581905Y-83076238D01*
X153581905Y-83076238D02*
X153677143Y-83028619D01*
X153677143Y-83028619D02*
X153915238Y-83028619D01*
X153915238Y-83028619D02*
X154058095Y-83076238D01*
X154391429Y-83028619D02*
X154629524Y-84028619D01*
X154629524Y-84028619D02*
X154820000Y-83314333D01*
X154820000Y-83314333D02*
X155010476Y-84028619D01*
X155010476Y-84028619D02*
X155248572Y-83028619D01*
X156105714Y-83028619D02*
X155629524Y-83028619D01*
X155629524Y-83028619D02*
X155581905Y-83504809D01*
X155581905Y-83504809D02*
X155629524Y-83457190D01*
X155629524Y-83457190D02*
X155724762Y-83409571D01*
X155724762Y-83409571D02*
X155962857Y-83409571D01*
X155962857Y-83409571D02*
X156058095Y-83457190D01*
X156058095Y-83457190D02*
X156105714Y-83504809D01*
X156105714Y-83504809D02*
X156153333Y-83600047D01*
X156153333Y-83600047D02*
X156153333Y-83838142D01*
X156153333Y-83838142D02*
X156105714Y-83933380D01*
X156105714Y-83933380D02*
X156058095Y-83981000D01*
X156058095Y-83981000D02*
X155962857Y-84028619D01*
X155962857Y-84028619D02*
X155724762Y-84028619D01*
X155724762Y-84028619D02*
X155629524Y-83981000D01*
X155629524Y-83981000D02*
X155581905Y-83933380D01*
%TO.C,SW2*%
X113086667Y-104181000D02*
X113229524Y-104228619D01*
X113229524Y-104228619D02*
X113467619Y-104228619D01*
X113467619Y-104228619D02*
X113562857Y-104181000D01*
X113562857Y-104181000D02*
X113610476Y-104133380D01*
X113610476Y-104133380D02*
X113658095Y-104038142D01*
X113658095Y-104038142D02*
X113658095Y-103942904D01*
X113658095Y-103942904D02*
X113610476Y-103847666D01*
X113610476Y-103847666D02*
X113562857Y-103800047D01*
X113562857Y-103800047D02*
X113467619Y-103752428D01*
X113467619Y-103752428D02*
X113277143Y-103704809D01*
X113277143Y-103704809D02*
X113181905Y-103657190D01*
X113181905Y-103657190D02*
X113134286Y-103609571D01*
X113134286Y-103609571D02*
X113086667Y-103514333D01*
X113086667Y-103514333D02*
X113086667Y-103419095D01*
X113086667Y-103419095D02*
X113134286Y-103323857D01*
X113134286Y-103323857D02*
X113181905Y-103276238D01*
X113181905Y-103276238D02*
X113277143Y-103228619D01*
X113277143Y-103228619D02*
X113515238Y-103228619D01*
X113515238Y-103228619D02*
X113658095Y-103276238D01*
X113991429Y-103228619D02*
X114229524Y-104228619D01*
X114229524Y-104228619D02*
X114420000Y-103514333D01*
X114420000Y-103514333D02*
X114610476Y-104228619D01*
X114610476Y-104228619D02*
X114848572Y-103228619D01*
X115181905Y-103323857D02*
X115229524Y-103276238D01*
X115229524Y-103276238D02*
X115324762Y-103228619D01*
X115324762Y-103228619D02*
X115562857Y-103228619D01*
X115562857Y-103228619D02*
X115658095Y-103276238D01*
X115658095Y-103276238D02*
X115705714Y-103323857D01*
X115705714Y-103323857D02*
X115753333Y-103419095D01*
X115753333Y-103419095D02*
X115753333Y-103514333D01*
X115753333Y-103514333D02*
X115705714Y-103657190D01*
X115705714Y-103657190D02*
X115134286Y-104228619D01*
X115134286Y-104228619D02*
X115753333Y-104228619D01*
%TO.C,SW4*%
X133286667Y-104181000D02*
X133429524Y-104228619D01*
X133429524Y-104228619D02*
X133667619Y-104228619D01*
X133667619Y-104228619D02*
X133762857Y-104181000D01*
X133762857Y-104181000D02*
X133810476Y-104133380D01*
X133810476Y-104133380D02*
X133858095Y-104038142D01*
X133858095Y-104038142D02*
X133858095Y-103942904D01*
X133858095Y-103942904D02*
X133810476Y-103847666D01*
X133810476Y-103847666D02*
X133762857Y-103800047D01*
X133762857Y-103800047D02*
X133667619Y-103752428D01*
X133667619Y-103752428D02*
X133477143Y-103704809D01*
X133477143Y-103704809D02*
X133381905Y-103657190D01*
X133381905Y-103657190D02*
X133334286Y-103609571D01*
X133334286Y-103609571D02*
X133286667Y-103514333D01*
X133286667Y-103514333D02*
X133286667Y-103419095D01*
X133286667Y-103419095D02*
X133334286Y-103323857D01*
X133334286Y-103323857D02*
X133381905Y-103276238D01*
X133381905Y-103276238D02*
X133477143Y-103228619D01*
X133477143Y-103228619D02*
X133715238Y-103228619D01*
X133715238Y-103228619D02*
X133858095Y-103276238D01*
X134191429Y-103228619D02*
X134429524Y-104228619D01*
X134429524Y-104228619D02*
X134620000Y-103514333D01*
X134620000Y-103514333D02*
X134810476Y-104228619D01*
X134810476Y-104228619D02*
X135048572Y-103228619D01*
X135858095Y-103561952D02*
X135858095Y-104228619D01*
X135620000Y-103181000D02*
X135381905Y-103895285D01*
X135381905Y-103895285D02*
X136000952Y-103895285D01*
%TO.C,SW3*%
X133286667Y-83981000D02*
X133429524Y-84028619D01*
X133429524Y-84028619D02*
X133667619Y-84028619D01*
X133667619Y-84028619D02*
X133762857Y-83981000D01*
X133762857Y-83981000D02*
X133810476Y-83933380D01*
X133810476Y-83933380D02*
X133858095Y-83838142D01*
X133858095Y-83838142D02*
X133858095Y-83742904D01*
X133858095Y-83742904D02*
X133810476Y-83647666D01*
X133810476Y-83647666D02*
X133762857Y-83600047D01*
X133762857Y-83600047D02*
X133667619Y-83552428D01*
X133667619Y-83552428D02*
X133477143Y-83504809D01*
X133477143Y-83504809D02*
X133381905Y-83457190D01*
X133381905Y-83457190D02*
X133334286Y-83409571D01*
X133334286Y-83409571D02*
X133286667Y-83314333D01*
X133286667Y-83314333D02*
X133286667Y-83219095D01*
X133286667Y-83219095D02*
X133334286Y-83123857D01*
X133334286Y-83123857D02*
X133381905Y-83076238D01*
X133381905Y-83076238D02*
X133477143Y-83028619D01*
X133477143Y-83028619D02*
X133715238Y-83028619D01*
X133715238Y-83028619D02*
X133858095Y-83076238D01*
X134191429Y-83028619D02*
X134429524Y-84028619D01*
X134429524Y-84028619D02*
X134620000Y-83314333D01*
X134620000Y-83314333D02*
X134810476Y-84028619D01*
X134810476Y-84028619D02*
X135048572Y-83028619D01*
X135334286Y-83028619D02*
X135953333Y-83028619D01*
X135953333Y-83028619D02*
X135620000Y-83409571D01*
X135620000Y-83409571D02*
X135762857Y-83409571D01*
X135762857Y-83409571D02*
X135858095Y-83457190D01*
X135858095Y-83457190D02*
X135905714Y-83504809D01*
X135905714Y-83504809D02*
X135953333Y-83600047D01*
X135953333Y-83600047D02*
X135953333Y-83838142D01*
X135953333Y-83838142D02*
X135905714Y-83933380D01*
X135905714Y-83933380D02*
X135858095Y-83981000D01*
X135858095Y-83981000D02*
X135762857Y-84028619D01*
X135762857Y-84028619D02*
X135477143Y-84028619D01*
X135477143Y-84028619D02*
X135381905Y-83981000D01*
X135381905Y-83981000D02*
X135334286Y-83933380D01*
%TO.C,SW1*%
X113086667Y-83981000D02*
X113229524Y-84028619D01*
X113229524Y-84028619D02*
X113467619Y-84028619D01*
X113467619Y-84028619D02*
X113562857Y-83981000D01*
X113562857Y-83981000D02*
X113610476Y-83933380D01*
X113610476Y-83933380D02*
X113658095Y-83838142D01*
X113658095Y-83838142D02*
X113658095Y-83742904D01*
X113658095Y-83742904D02*
X113610476Y-83647666D01*
X113610476Y-83647666D02*
X113562857Y-83600047D01*
X113562857Y-83600047D02*
X113467619Y-83552428D01*
X113467619Y-83552428D02*
X113277143Y-83504809D01*
X113277143Y-83504809D02*
X113181905Y-83457190D01*
X113181905Y-83457190D02*
X113134286Y-83409571D01*
X113134286Y-83409571D02*
X113086667Y-83314333D01*
X113086667Y-83314333D02*
X113086667Y-83219095D01*
X113086667Y-83219095D02*
X113134286Y-83123857D01*
X113134286Y-83123857D02*
X113181905Y-83076238D01*
X113181905Y-83076238D02*
X113277143Y-83028619D01*
X113277143Y-83028619D02*
X113515238Y-83028619D01*
X113515238Y-83028619D02*
X113658095Y-83076238D01*
X113991429Y-83028619D02*
X114229524Y-84028619D01*
X114229524Y-84028619D02*
X114420000Y-83314333D01*
X114420000Y-83314333D02*
X114610476Y-84028619D01*
X114610476Y-84028619D02*
X114848572Y-83028619D01*
X115753333Y-84028619D02*
X115181905Y-84028619D01*
X115467619Y-84028619D02*
X115467619Y-83028619D01*
X115467619Y-83028619D02*
X115372381Y-83171476D01*
X115372381Y-83171476D02*
X115277143Y-83266714D01*
X115277143Y-83266714D02*
X115181905Y-83314333D01*
%TO.C,G\u002A\u002A\u002A*%
G36*
X114002486Y-129670820D02*
G01*
X114040502Y-129673129D01*
X114094247Y-129679232D01*
X114124872Y-129688213D01*
X114132352Y-129695344D01*
X114131014Y-129714248D01*
X114119929Y-129734136D01*
X114105623Y-129744417D01*
X114102233Y-129744224D01*
X114087670Y-129742303D01*
X114056367Y-129739213D01*
X114014953Y-129735608D01*
X114012828Y-129735434D01*
X113969278Y-129731055D01*
X113943955Y-129725552D01*
X113931657Y-129717003D01*
X113927229Y-129703831D01*
X113927792Y-129686180D01*
X113938062Y-129675461D01*
X113961730Y-129670675D01*
X114002486Y-129670820D01*
G37*
G36*
X114444250Y-129679117D02*
G01*
X114480893Y-129688932D01*
X114497167Y-129705958D01*
X114495080Y-129728563D01*
X114480229Y-129738353D01*
X114449121Y-129744719D01*
X114408688Y-129747655D01*
X114365859Y-129747157D01*
X114327563Y-129743219D01*
X114300731Y-129735836D01*
X114292517Y-129728712D01*
X114287645Y-129704194D01*
X114297286Y-129688248D01*
X114324092Y-129679378D01*
X114370717Y-129676091D01*
X114386106Y-129675967D01*
X114444250Y-129679117D01*
G37*
G36*
X114835510Y-129671110D02*
G01*
X114854642Y-129679034D01*
X114860890Y-129693939D01*
X114860310Y-129703831D01*
X114856219Y-129716533D01*
X114845082Y-129724640D01*
X114821960Y-129729745D01*
X114781911Y-129733440D01*
X114764893Y-129734573D01*
X114710938Y-129736449D01*
X114677225Y-129733631D01*
X114661020Y-129725931D01*
X114651571Y-129705384D01*
X114662488Y-129689985D01*
X114694738Y-129679120D01*
X114745026Y-129672520D01*
X114800102Y-129669246D01*
X114835510Y-129671110D01*
G37*
G36*
X113621942Y-129649277D02*
G01*
X113655330Y-129650695D01*
X113713641Y-129656085D01*
X113750404Y-129666354D01*
X113767140Y-129682223D01*
X113765858Y-129703189D01*
X113749626Y-129716416D01*
X113713686Y-129721365D01*
X113657157Y-129718089D01*
X113614305Y-129712398D01*
X113583803Y-129705661D01*
X113570317Y-129694637D01*
X113567420Y-129675967D01*
X113568361Y-129661116D01*
X113574474Y-129652662D01*
X113590690Y-129649189D01*
X113621942Y-129649277D01*
G37*
G36*
X115208891Y-129651504D02*
G01*
X115220151Y-129658742D01*
X115223779Y-129668421D01*
X115222854Y-129691290D01*
X115218289Y-129699610D01*
X115201730Y-129705694D01*
X115169575Y-129711374D01*
X115128970Y-129716043D01*
X115087059Y-129719098D01*
X115050989Y-129719931D01*
X115027905Y-129717937D01*
X115023788Y-129716098D01*
X115016185Y-129697799D01*
X115014997Y-129685958D01*
X115018984Y-129672046D01*
X115033377Y-129662386D01*
X115061827Y-129655954D01*
X115107985Y-129651728D01*
X115143561Y-129649915D01*
X115185174Y-129648980D01*
X115208891Y-129651504D01*
G37*
G36*
X113268068Y-129614188D02*
G01*
X113291970Y-129615089D01*
X113350322Y-129620242D01*
X113387132Y-129630489D01*
X113403885Y-129646543D01*
X113402499Y-129668025D01*
X113392448Y-129679817D01*
X113371189Y-129685285D01*
X113334685Y-129684834D01*
X113286109Y-129679787D01*
X113240405Y-129673078D01*
X113213735Y-129665657D01*
X113201735Y-129655372D01*
X113200040Y-129640068D01*
X113200369Y-129637458D01*
X113203791Y-129624291D01*
X113212796Y-129616858D01*
X113232512Y-129613908D01*
X113268068Y-129614188D01*
G37*
G36*
X115573178Y-129616670D02*
G01*
X115584173Y-129624538D01*
X115586868Y-129631978D01*
X115580434Y-129652541D01*
X115563820Y-129662761D01*
X115534758Y-129670636D01*
X115495851Y-129677330D01*
X115454370Y-129682104D01*
X115417583Y-129684222D01*
X115392760Y-129682945D01*
X115386999Y-129680702D01*
X115379530Y-129662633D01*
X115378357Y-129650794D01*
X115383718Y-129635366D01*
X115401947Y-129624755D01*
X115436262Y-129618040D01*
X115489879Y-129614297D01*
X115507727Y-129613686D01*
X115549467Y-129613462D01*
X115573178Y-129616670D01*
G37*
G36*
X112910661Y-129549879D02*
G01*
X112952941Y-129557248D01*
X112993481Y-129567380D01*
X113025382Y-129578519D01*
X113041745Y-129588905D01*
X113042345Y-129590040D01*
X113040802Y-129609184D01*
X113029255Y-129629432D01*
X113014469Y-129639673D01*
X113012155Y-129639626D01*
X112997727Y-129636692D01*
X112967158Y-129630166D01*
X112929044Y-129621891D01*
X112888583Y-129611843D01*
X112857221Y-129601841D01*
X112842508Y-129594553D01*
X112835854Y-129575360D01*
X112846427Y-129556977D01*
X112869098Y-129547259D01*
X112873542Y-129547033D01*
X112910661Y-129549879D01*
G37*
G36*
X115932250Y-129546865D02*
G01*
X115938478Y-129551493D01*
X115949590Y-129572904D01*
X115938185Y-129592010D01*
X115905146Y-129607931D01*
X115873870Y-129615880D01*
X115816950Y-129625742D01*
X115778855Y-129628133D01*
X115756142Y-129622913D01*
X115745653Y-129610712D01*
X115743254Y-129593963D01*
X115753057Y-129580923D01*
X115778392Y-129569621D01*
X115822587Y-129558088D01*
X115841540Y-129553967D01*
X115887029Y-129545358D01*
X115915443Y-129543037D01*
X115932250Y-129546865D01*
G37*
G36*
X112541847Y-129462499D02*
G01*
X112543660Y-129463059D01*
X112581423Y-129474248D01*
X112624593Y-129486118D01*
X112632648Y-129488219D01*
X112664546Y-129498662D01*
X112679150Y-129511416D01*
X112682464Y-129529903D01*
X112679165Y-129547503D01*
X112666930Y-129556322D01*
X112642252Y-129556570D01*
X112601622Y-129548456D01*
X112559547Y-129537283D01*
X112515055Y-129522194D01*
X112491128Y-129506996D01*
X112485190Y-129495952D01*
X112487371Y-129469040D01*
X112506575Y-129457710D01*
X112541847Y-129462499D01*
G37*
G36*
X116292510Y-129460795D02*
G01*
X116295759Y-129463438D01*
X116303642Y-129483449D01*
X116289636Y-129503932D01*
X116255224Y-129523529D01*
X116215238Y-129537304D01*
X116165145Y-129550613D01*
X116132738Y-129556369D01*
X116113537Y-129554640D01*
X116103060Y-129545497D01*
X116100038Y-129539091D01*
X116098680Y-129519859D01*
X116112612Y-129503420D01*
X116144430Y-129488032D01*
X116196729Y-129471953D01*
X116202252Y-129470485D01*
X116247833Y-129459739D01*
X116276285Y-129456632D01*
X116292510Y-129460795D01*
G37*
G36*
X112195611Y-129339631D02*
G01*
X112242916Y-129357332D01*
X112292430Y-129379491D01*
X112322604Y-129397254D01*
X112336500Y-129413132D01*
X112337181Y-129429639D01*
X112335863Y-129433600D01*
X112324492Y-129448289D01*
X112303623Y-129451214D01*
X112269540Y-129442120D01*
X112231162Y-129426419D01*
X112187488Y-129406496D01*
X112161219Y-129392084D01*
X112148026Y-129379901D01*
X112143583Y-129366667D01*
X112143285Y-129359777D01*
X112148167Y-129340608D01*
X112164677Y-129333915D01*
X112195611Y-129339631D01*
G37*
G36*
X116638111Y-129336367D02*
G01*
X116642779Y-129354856D01*
X116642146Y-129360439D01*
X116632432Y-129377723D01*
X116606519Y-129396091D01*
X116561220Y-129417771D01*
X116558115Y-129419098D01*
X116515606Y-129437259D01*
X116489728Y-129447600D01*
X116475338Y-129450984D01*
X116467291Y-129448276D01*
X116460445Y-129440339D01*
X116457041Y-129436075D01*
X116447296Y-129418794D01*
X116451361Y-129403321D01*
X116471751Y-129387053D01*
X116510981Y-129367387D01*
X116532486Y-129357998D01*
X116584851Y-129337980D01*
X116619431Y-129330756D01*
X116638111Y-129336367D01*
G37*
G36*
X111892017Y-129133082D02*
G01*
X111920917Y-129153719D01*
X111952656Y-129181864D01*
X111981979Y-129212403D01*
X112003632Y-129240224D01*
X112012360Y-129260212D01*
X112012218Y-129262281D01*
X112000896Y-129282385D01*
X111978246Y-129282731D01*
X111943936Y-129263233D01*
X111910691Y-129235839D01*
X111875729Y-129199554D01*
X111854492Y-129167329D01*
X111848100Y-129142302D01*
X111857670Y-129127613D01*
X111871211Y-129125067D01*
X111892017Y-129133082D01*
G37*
G36*
X116932033Y-129127453D02*
G01*
X116932579Y-129150286D01*
X116913626Y-129183238D01*
X116881345Y-129219520D01*
X116839150Y-129256298D01*
X116805058Y-129274796D01*
X116780627Y-129274443D01*
X116769203Y-129260520D01*
X116773681Y-129243849D01*
X116791752Y-129217699D01*
X116818541Y-129187025D01*
X116849168Y-129156783D01*
X116878758Y-129131930D01*
X116902433Y-129117421D01*
X116911698Y-129115728D01*
X116932033Y-129127453D01*
G37*
G36*
X111931286Y-128803471D02*
G01*
X111943074Y-128821079D01*
X111939180Y-128852174D01*
X111933926Y-128864428D01*
X111924160Y-128884791D01*
X111907943Y-128919262D01*
X111888650Y-128960665D01*
X111887150Y-128963899D01*
X111863450Y-129010015D01*
X111844204Y-129035653D01*
X111828874Y-129043018D01*
X111806629Y-129039288D01*
X111799611Y-129035354D01*
X111795664Y-129017776D01*
X111798605Y-128985782D01*
X111807000Y-128946869D01*
X111819412Y-128908537D01*
X111827318Y-128890641D01*
X111849624Y-128854923D01*
X111875907Y-128823589D01*
X111877820Y-128821761D01*
X111908104Y-128802611D01*
X111931286Y-128803471D01*
G37*
G36*
X116845071Y-128766790D02*
G01*
X116869115Y-128787055D01*
X116887236Y-128807736D01*
X116931946Y-128865973D01*
X116957993Y-128910576D01*
X116965543Y-128941879D01*
X116960567Y-128955304D01*
X116937118Y-128971134D01*
X116909920Y-128965019D01*
X116884955Y-128944868D01*
X116863821Y-128918447D01*
X116839812Y-128880888D01*
X116826215Y-128856032D01*
X116808943Y-128818533D01*
X116803286Y-128794999D01*
X116808002Y-128779793D01*
X116809121Y-128778363D01*
X116826416Y-128764398D01*
X116845071Y-128766790D01*
G37*
G36*
X112251599Y-128621392D02*
G01*
X112258204Y-128635169D01*
X112253511Y-128649395D01*
X112232612Y-128666729D01*
X112192901Y-128689168D01*
X112177920Y-128696706D01*
X112135207Y-128717911D01*
X112108894Y-128730474D01*
X112094148Y-128735689D01*
X112086135Y-128734852D01*
X112080023Y-128729257D01*
X112075302Y-128724199D01*
X112062989Y-128705341D01*
X112067528Y-128687257D01*
X112090785Y-128667332D01*
X112132581Y-128643981D01*
X112187820Y-128620349D01*
X112227693Y-128612805D01*
X112251599Y-128621392D01*
G37*
G36*
X116566505Y-128607896D02*
G01*
X116601562Y-128623538D01*
X116621133Y-128632929D01*
X116664191Y-128655039D01*
X116689119Y-128671744D01*
X116699662Y-128686060D01*
X116700418Y-128696810D01*
X116689314Y-128717282D01*
X116663623Y-128721563D01*
X116622508Y-128709613D01*
X116583555Y-128691284D01*
X116539565Y-128666871D01*
X116514976Y-128648315D01*
X116507448Y-128632706D01*
X116514641Y-128617131D01*
X116519627Y-128611722D01*
X116530877Y-128603103D01*
X116544723Y-128601456D01*
X116566505Y-128607896D01*
G37*
G36*
X112073989Y-128534761D02*
G01*
X112080106Y-128557662D01*
X112070495Y-128596683D01*
X112051431Y-128640073D01*
X112027487Y-128683855D01*
X112008035Y-128707864D01*
X111991710Y-128714822D01*
X111968754Y-128708773D01*
X111960723Y-128701674D01*
X111960642Y-128683121D01*
X111970738Y-128652028D01*
X111987681Y-128614749D01*
X112008139Y-128577640D01*
X112028780Y-128547056D01*
X112046272Y-128529353D01*
X112052147Y-128527282D01*
X112073989Y-128534761D01*
G37*
G36*
X116680707Y-128455192D02*
G01*
X116701532Y-128480731D01*
X116723307Y-128515456D01*
X116742464Y-128552958D01*
X116755435Y-128586826D01*
X116758655Y-128610652D01*
X116757944Y-128613326D01*
X116743289Y-128632404D01*
X116723169Y-128629517D01*
X116698523Y-128605252D01*
X116670287Y-128560194D01*
X116668927Y-128557649D01*
X116644976Y-128505649D01*
X116637232Y-128470002D01*
X116645670Y-128450145D01*
X116664399Y-128445249D01*
X116680707Y-128455192D01*
G37*
G36*
X112588286Y-128491866D02*
G01*
X112601220Y-128509034D01*
X112593565Y-128529011D01*
X112567469Y-128548901D01*
X112535948Y-128562407D01*
X112478628Y-128580783D01*
X112440028Y-128590713D01*
X112417249Y-128592817D01*
X112408754Y-128589582D01*
X112401500Y-128569643D01*
X112404558Y-128545324D01*
X112413283Y-128532890D01*
X112437105Y-128522440D01*
X112472898Y-128511264D01*
X112513338Y-128501080D01*
X112551104Y-128493604D01*
X112578872Y-128490552D01*
X112588286Y-128491866D01*
G37*
G36*
X116214874Y-128489604D02*
G01*
X116258776Y-128499140D01*
X116295901Y-128509455D01*
X116333953Y-128521810D01*
X116354278Y-128533073D01*
X116362091Y-128546974D01*
X116362944Y-128557417D01*
X116358771Y-128578182D01*
X116341565Y-128584691D01*
X116330710Y-128584686D01*
X116301407Y-128580406D01*
X116260972Y-128570723D01*
X116234010Y-128562740D01*
X116196689Y-128549212D01*
X116177082Y-128536850D01*
X116170017Y-128521755D01*
X116169543Y-128514127D01*
X116173499Y-128496978D01*
X116187529Y-128488843D01*
X116214874Y-128489604D01*
G37*
G36*
X112937571Y-128407195D02*
G01*
X112948962Y-128421290D01*
X112952053Y-128438824D01*
X112949075Y-128454656D01*
X112936583Y-128465254D01*
X112909246Y-128473803D01*
X112884656Y-128479042D01*
X112843459Y-128487518D01*
X112808744Y-128495137D01*
X112793518Y-128498827D01*
X112770579Y-128500431D01*
X112761284Y-128496704D01*
X112753529Y-128477096D01*
X112755166Y-128453092D01*
X112763260Y-128440146D01*
X112782580Y-128433110D01*
X112816255Y-128424780D01*
X112856498Y-128416630D01*
X112895524Y-128410132D01*
X112925544Y-128406757D01*
X112937571Y-128407195D01*
G37*
G36*
X115890899Y-128411007D02*
G01*
X115947291Y-128421884D01*
X115948358Y-128422106D01*
X115984966Y-128430974D01*
X116003897Y-128440387D01*
X116010708Y-128454011D01*
X116011306Y-128463646D01*
X116007936Y-128483295D01*
X115993172Y-128490561D01*
X115973211Y-128490993D01*
X115938491Y-128487569D01*
X115895017Y-128480227D01*
X115876511Y-128476258D01*
X115841490Y-128466640D01*
X115823956Y-128456213D01*
X115818196Y-128440801D01*
X115817905Y-128433429D01*
X115820627Y-128417295D01*
X115831247Y-128408393D01*
X115853444Y-128406404D01*
X115890899Y-128411007D01*
G37*
G36*
X113310587Y-128355623D02*
G01*
X113315002Y-128364467D01*
X113315413Y-128373475D01*
X113310320Y-128392307D01*
X113292777Y-128406239D01*
X113259390Y-128416735D01*
X113206763Y-128425263D01*
X113191032Y-128427163D01*
X113150684Y-128430922D01*
X113127579Y-128429829D01*
X113115852Y-128422973D01*
X113111483Y-128414811D01*
X113110194Y-128392310D01*
X113127124Y-128375565D01*
X113163924Y-128363716D01*
X113222241Y-128355903D01*
X113224923Y-128355672D01*
X113270377Y-128352176D01*
X113297322Y-128351843D01*
X113310587Y-128355623D01*
G37*
G36*
X115527863Y-128351284D02*
G01*
X115553230Y-128354457D01*
X115610715Y-128365376D01*
X115645049Y-128379911D01*
X115656242Y-128398069D01*
X115648434Y-128415341D01*
X115637698Y-128425731D01*
X115623662Y-128430647D01*
X115600650Y-128430390D01*
X115562985Y-128425264D01*
X115538351Y-128421216D01*
X115492674Y-128412649D01*
X115465624Y-128404366D01*
X115452536Y-128394025D01*
X115448741Y-128379286D01*
X115448684Y-128376250D01*
X115451533Y-128359599D01*
X115462880Y-128350471D01*
X115486923Y-128347991D01*
X115527863Y-128351284D01*
G37*
G36*
X112236570Y-128205008D02*
G01*
X112243152Y-128224062D01*
X112235969Y-128258182D01*
X112214996Y-128309302D01*
X112214894Y-128309523D01*
X112192582Y-128353364D01*
X112174497Y-128377957D01*
X112158180Y-128386522D01*
X112156077Y-128386627D01*
X112133014Y-128380645D01*
X112124821Y-128373478D01*
X112124739Y-128354925D01*
X112134836Y-128323832D01*
X112151779Y-128286553D01*
X112172237Y-128249444D01*
X112192878Y-128218861D01*
X112210370Y-128201158D01*
X112216245Y-128199086D01*
X112236570Y-128205008D01*
G37*
G36*
X113655886Y-128313570D02*
G01*
X113668538Y-128318396D01*
X113672573Y-128328628D01*
X113672911Y-128339741D01*
X113670010Y-128358382D01*
X113657212Y-128368919D01*
X113628380Y-128375687D01*
X113620166Y-128376967D01*
X113551904Y-128384813D01*
X113504804Y-128384547D01*
X113478012Y-128376120D01*
X113471679Y-128368136D01*
X113471537Y-128345676D01*
X113491523Y-128329483D01*
X113532613Y-128319092D01*
X113585002Y-128314470D01*
X113629685Y-128312735D01*
X113655886Y-128313570D01*
G37*
G36*
X115145739Y-128313022D02*
G01*
X115179095Y-128314420D01*
X115237431Y-128319795D01*
X115274207Y-128330089D01*
X115290927Y-128346018D01*
X115289624Y-128366964D01*
X115279131Y-128378533D01*
X115256648Y-128384167D01*
X115218848Y-128384073D01*
X115162408Y-128378458D01*
X115143931Y-128376075D01*
X115111187Y-128370146D01*
X115095692Y-128361103D01*
X115091281Y-128344700D01*
X115091186Y-128339741D01*
X115092129Y-128324890D01*
X115098247Y-128316433D01*
X115114473Y-128312951D01*
X115145739Y-128313022D01*
G37*
G36*
X114014884Y-128289084D02*
G01*
X114033415Y-128295015D01*
X114041052Y-128306629D01*
X114042132Y-128317921D01*
X114040491Y-128331747D01*
X114032618Y-128340992D01*
X114014083Y-128347256D01*
X113980458Y-128352140D01*
X113935282Y-128356529D01*
X113888866Y-128359195D01*
X113860437Y-128356575D01*
X113845035Y-128348164D01*
X113844240Y-128347253D01*
X113833051Y-128324679D01*
X113842631Y-128308005D01*
X113873727Y-128296726D01*
X113927088Y-128290337D01*
X113928612Y-128290242D01*
X113981328Y-128287829D01*
X114014884Y-128289084D01*
G37*
G36*
X114799533Y-128287710D02*
G01*
X114837548Y-128290019D01*
X114891294Y-128296122D01*
X114921918Y-128305103D01*
X114929399Y-128312234D01*
X114927529Y-128334903D01*
X114910944Y-128354326D01*
X114887577Y-128361216D01*
X114887558Y-128361214D01*
X114865988Y-128359057D01*
X114829963Y-128355519D01*
X114798154Y-128352423D01*
X114758233Y-128347401D01*
X114736181Y-128340581D01*
X114726432Y-128329573D01*
X114724276Y-128320721D01*
X114724839Y-128303070D01*
X114735109Y-128292351D01*
X114758777Y-128287564D01*
X114799533Y-128287710D01*
G37*
G36*
X114453884Y-128281901D02*
G01*
X114508285Y-128284095D01*
X114544195Y-128287565D01*
X114559305Y-128292156D01*
X114559626Y-128292856D01*
X114562219Y-128315325D01*
X114562556Y-128319229D01*
X114552150Y-128325220D01*
X114523193Y-128330608D01*
X114480575Y-128335195D01*
X114429185Y-128338781D01*
X114373911Y-128341169D01*
X114319643Y-128342159D01*
X114271269Y-128341552D01*
X114233679Y-128339151D01*
X114211761Y-128334756D01*
X114209621Y-128333572D01*
X114199108Y-128313364D01*
X114200985Y-128301338D01*
X114206349Y-128293462D01*
X114217790Y-128287919D01*
X114238892Y-128284313D01*
X114273241Y-128282246D01*
X114324421Y-128281320D01*
X114383303Y-128281135D01*
X114453884Y-128281901D01*
G37*
G36*
X116501509Y-128122893D02*
G01*
X116517307Y-128140368D01*
X116536739Y-128168191D01*
X116559221Y-128206073D01*
X116569964Y-128226273D01*
X116586337Y-128262320D01*
X116590866Y-128284841D01*
X116584879Y-128299643D01*
X116567267Y-128313813D01*
X116549559Y-128311140D01*
X116529581Y-128289967D01*
X116505156Y-128248638D01*
X116496947Y-128232678D01*
X116476288Y-128190547D01*
X116465500Y-128163849D01*
X116463414Y-128147336D01*
X116468862Y-128135759D01*
X116474113Y-128130116D01*
X116488857Y-128118840D01*
X116501509Y-128122893D01*
G37*
G36*
X112400426Y-127876385D02*
G01*
X112406756Y-127894221D01*
X112399441Y-127926429D01*
X112378339Y-127975039D01*
X112372478Y-127986856D01*
X112350479Y-128029448D01*
X112335080Y-128054488D01*
X112322768Y-128065568D01*
X112310027Y-128066283D01*
X112298592Y-128062389D01*
X112287307Y-128053033D01*
X112285804Y-128035397D01*
X112294812Y-128005847D01*
X112315057Y-127960744D01*
X112321620Y-127947301D01*
X112347311Y-127900864D01*
X112368144Y-127876030D01*
X112380594Y-127870891D01*
X112400426Y-127876385D01*
G37*
G36*
X116343417Y-127819156D02*
G01*
X116372488Y-127859171D01*
X116384454Y-127880394D01*
X116407698Y-127929966D01*
X116415827Y-127963324D01*
X116408874Y-127982144D01*
X116386873Y-127988103D01*
X116386645Y-127988103D01*
X116369724Y-127981554D01*
X116351334Y-127959696D01*
X116328776Y-127919209D01*
X116325864Y-127913354D01*
X116304148Y-127859883D01*
X116297502Y-127822347D01*
X116303468Y-127802125D01*
X116319592Y-127800601D01*
X116343417Y-127819156D01*
G37*
G36*
X112564392Y-127548139D02*
G01*
X112570851Y-127565839D01*
X112563681Y-127597849D01*
X112542740Y-127646222D01*
X112536576Y-127658660D01*
X112508038Y-127708756D01*
X112484314Y-127736239D01*
X112465517Y-127741023D01*
X112451830Y-127723210D01*
X112452575Y-127701665D01*
X112463120Y-127668458D01*
X112480251Y-127629859D01*
X112500750Y-127592137D01*
X112521402Y-127561561D01*
X112538990Y-127544399D01*
X112544441Y-127542695D01*
X112564392Y-127548139D01*
G37*
G36*
X116163187Y-127480537D02*
G01*
X116179746Y-127499355D01*
X116201347Y-127535236D01*
X116220525Y-127571306D01*
X116240329Y-127613079D01*
X116247942Y-127639743D01*
X116244511Y-127655470D01*
X116243874Y-127656285D01*
X116226456Y-127669655D01*
X116208229Y-127665839D01*
X116186876Y-127643236D01*
X116160081Y-127600246D01*
X116158395Y-127597245D01*
X116134539Y-127553352D01*
X116121710Y-127524633D01*
X116118891Y-127506151D01*
X116125064Y-127492968D01*
X116134967Y-127483600D01*
X116149113Y-127476159D01*
X116163187Y-127480537D01*
G37*
G36*
X114157571Y-126422217D02*
G01*
X114164212Y-126435025D01*
X114175840Y-126466074D01*
X114190967Y-126511075D01*
X114208104Y-126565739D01*
X114213006Y-126582011D01*
X114232349Y-126645224D01*
X114247432Y-126689664D01*
X114260031Y-126719213D01*
X114271923Y-126737751D01*
X114284885Y-126749157D01*
X114291209Y-126752824D01*
X114315416Y-126761678D01*
X114323400Y-126756622D01*
X114312720Y-126739695D01*
X114310123Y-126737017D01*
X114301701Y-126717547D01*
X114297096Y-126685415D01*
X114296803Y-126674960D01*
X114301054Y-126637218D01*
X114317370Y-126607255D01*
X114333791Y-126589235D01*
X114363280Y-126564592D01*
X114393381Y-126554039D01*
X114424260Y-126552247D01*
X114461649Y-126555107D01*
X114487808Y-126567140D01*
X114511944Y-126590526D01*
X114541248Y-126637699D01*
X114547461Y-126686225D01*
X114530657Y-126733852D01*
X114506294Y-126764402D01*
X114471297Y-126792797D01*
X114437715Y-126803895D01*
X114427175Y-126804465D01*
X114416370Y-126806014D01*
X114416113Y-126811344D01*
X114428316Y-126821726D01*
X114454894Y-126838434D01*
X114497759Y-126862739D01*
X114558825Y-126895915D01*
X114588883Y-126912011D01*
X114789857Y-127019346D01*
X114844006Y-127196041D01*
X114862526Y-127257254D01*
X114878296Y-127310860D01*
X114890137Y-127352736D01*
X114896870Y-127378753D01*
X114897970Y-127384957D01*
X114887586Y-127394920D01*
X114861460Y-127406277D01*
X114844871Y-127411330D01*
X114804089Y-127421486D01*
X114780963Y-127424629D01*
X114770801Y-127420828D01*
X114768851Y-127412469D01*
X114765520Y-127396707D01*
X114756461Y-127363528D01*
X114743070Y-127317848D01*
X114727339Y-127266478D01*
X114685827Y-127133501D01*
X114607967Y-127092157D01*
X114570552Y-127072742D01*
X114542430Y-127059008D01*
X114528781Y-127053465D01*
X114528257Y-127053537D01*
X114522357Y-127064368D01*
X114507905Y-127091430D01*
X114487297Y-127130227D01*
X114470524Y-127161897D01*
X114414641Y-127267532D01*
X114213735Y-127325022D01*
X114147477Y-127344206D01*
X114088139Y-127361808D01*
X114039787Y-127376587D01*
X114006485Y-127387305D01*
X113993053Y-127392294D01*
X113979733Y-127405670D01*
X113957635Y-127435135D01*
X113929713Y-127476481D01*
X113898925Y-127525502D01*
X113895605Y-127530991D01*
X113865383Y-127579422D01*
X113838395Y-127619490D01*
X113817344Y-127647398D01*
X113804936Y-127659351D01*
X113804028Y-127659535D01*
X113784620Y-127652604D01*
X113766682Y-127641150D01*
X113741742Y-127623219D01*
X113726938Y-127613761D01*
X113723164Y-127605694D01*
X113727418Y-127588348D01*
X113740873Y-127559236D01*
X113764700Y-127515873D01*
X113800070Y-127455774D01*
X113806242Y-127445498D01*
X113901845Y-127286612D01*
X113990061Y-127260424D01*
X114030009Y-127247339D01*
X114058027Y-127235764D01*
X114069429Y-127227721D01*
X114068995Y-127226370D01*
X114054707Y-127218789D01*
X114023894Y-127204845D01*
X113981802Y-127186865D01*
X113954222Y-127175477D01*
X113848731Y-127132449D01*
X113670447Y-127189621D01*
X113492163Y-127246794D01*
X113472921Y-127188863D01*
X113462928Y-127155370D01*
X113458126Y-127132183D01*
X113458530Y-127126081D01*
X113471214Y-127120846D01*
X113501928Y-127110408D01*
X113546199Y-127096132D01*
X113599556Y-127079385D01*
X113657525Y-127061533D01*
X113715633Y-127043944D01*
X113769408Y-127027982D01*
X113814377Y-127015015D01*
X113846067Y-127006409D01*
X113859739Y-127003516D01*
X113875961Y-127007902D01*
X113908310Y-127019714D01*
X113951457Y-127036937D01*
X113982411Y-127049925D01*
X114030779Y-127070373D01*
X114072758Y-127087710D01*
X114102553Y-127099563D01*
X114112268Y-127103086D01*
X114124345Y-127102446D01*
X114138068Y-127090760D01*
X114155924Y-127064884D01*
X114180396Y-127021675D01*
X114188336Y-127006862D01*
X114213073Y-126959447D01*
X114227534Y-126928314D01*
X114232977Y-126909336D01*
X114230661Y-126898386D01*
X114223290Y-126892164D01*
X114201662Y-126877840D01*
X114183942Y-126861051D01*
X114168353Y-126838224D01*
X114153114Y-126805789D01*
X114136449Y-126760173D01*
X114116576Y-126697804D01*
X114101243Y-126647074D01*
X114082285Y-126583038D01*
X114066180Y-126527402D01*
X114053945Y-126483787D01*
X114046598Y-126455808D01*
X114044982Y-126446996D01*
X114063375Y-126439862D01*
X114092981Y-126431930D01*
X114124684Y-126425206D01*
X114149367Y-126421697D01*
X114157571Y-126422217D01*
G37*
G36*
X112728547Y-127231115D02*
G01*
X112733521Y-127244346D01*
X112729730Y-127265537D01*
X112715901Y-127299223D01*
X112700532Y-127330746D01*
X112673939Y-127378734D01*
X112652414Y-127405841D01*
X112634274Y-127413637D01*
X112619950Y-127405947D01*
X112612461Y-127385003D01*
X112619129Y-127349905D01*
X112640343Y-127298935D01*
X112647469Y-127284493D01*
X112672183Y-127241257D01*
X112692874Y-127219279D01*
X112711631Y-127217182D01*
X112728547Y-127231115D01*
G37*
G36*
X115983241Y-127159181D02*
G01*
X116008779Y-127183643D01*
X116038365Y-127228858D01*
X116039600Y-127231055D01*
X116060134Y-127269356D01*
X116075106Y-127300299D01*
X116081568Y-127317749D01*
X116081633Y-127318552D01*
X116072312Y-127335464D01*
X116051864Y-127345627D01*
X116031567Y-127344633D01*
X116026117Y-127340257D01*
X116004105Y-127307533D01*
X115982237Y-127268363D01*
X115963527Y-127229127D01*
X115950987Y-127196205D01*
X115947630Y-127175979D01*
X115947967Y-127174760D01*
X115962666Y-127156032D01*
X115983241Y-127159181D01*
G37*
G36*
X112886317Y-126897785D02*
G01*
X112889114Y-126900390D01*
X112897075Y-126911463D01*
X112897899Y-126925878D01*
X112890359Y-126948792D01*
X112873228Y-126985357D01*
X112864935Y-127001944D01*
X112838685Y-127049568D01*
X112817500Y-127076480D01*
X112799315Y-127084300D01*
X112782066Y-127074649D01*
X112778044Y-127070164D01*
X112773576Y-127054757D01*
X112779709Y-127028381D01*
X112797467Y-126986728D01*
X112798195Y-126985185D01*
X112825394Y-126932978D01*
X112848112Y-126901975D01*
X112867902Y-126890727D01*
X112886317Y-126897785D01*
G37*
G36*
X115827428Y-126843362D02*
G01*
X115837287Y-126853498D01*
X115859699Y-126888306D01*
X115879984Y-126928482D01*
X115895250Y-126967083D01*
X115902600Y-126997167D01*
X115901913Y-127008497D01*
X115885925Y-127024839D01*
X115863520Y-127023249D01*
X115850033Y-127012307D01*
X115835404Y-126989666D01*
X115817255Y-126955814D01*
X115799137Y-126918211D01*
X115784602Y-126884317D01*
X115777200Y-126861593D01*
X115776880Y-126858644D01*
X115785126Y-126839092D01*
X115804605Y-126833774D01*
X115827428Y-126843362D01*
G37*
G36*
X113049648Y-126575332D02*
G01*
X113050260Y-126575940D01*
X113058774Y-126587186D01*
X113060159Y-126601102D01*
X113053226Y-126623007D01*
X113036786Y-126658221D01*
X113027912Y-126675975D01*
X113003387Y-126720933D01*
X112984057Y-126746882D01*
X112967429Y-126756961D01*
X112963259Y-126757370D01*
X112941011Y-126750237D01*
X112933318Y-126741009D01*
X112935282Y-126722571D01*
X112946390Y-126691024D01*
X112963395Y-126653159D01*
X112983049Y-126615764D01*
X113002105Y-126585631D01*
X113014322Y-126571654D01*
X113031665Y-126563866D01*
X113049648Y-126575332D01*
G37*
G36*
X115652004Y-126517683D02*
G01*
X115670360Y-126539156D01*
X115693267Y-126578782D01*
X115700544Y-126592979D01*
X115719983Y-126632262D01*
X115734474Y-126662854D01*
X115741447Y-126679285D01*
X115741716Y-126680476D01*
X115732775Y-126689876D01*
X115719749Y-126697974D01*
X115697441Y-126702517D01*
X115680061Y-126689595D01*
X115661209Y-126663056D01*
X115641150Y-126627096D01*
X115623027Y-126588569D01*
X115609986Y-126554329D01*
X115605171Y-126531233D01*
X115605755Y-126527618D01*
X115621259Y-126514099D01*
X115635710Y-126511223D01*
X115652004Y-126517683D01*
G37*
G36*
X113215359Y-126247140D02*
G01*
X113221163Y-126265727D01*
X113212603Y-126300541D01*
X113189597Y-126352609D01*
X113186310Y-126359180D01*
X113162715Y-126400969D01*
X113143278Y-126423278D01*
X113127336Y-126429174D01*
X113104993Y-126421786D01*
X113097204Y-126412260D01*
X113099161Y-126394091D01*
X113110444Y-126362313D01*
X113128650Y-126323617D01*
X113129805Y-126321420D01*
X113156175Y-126276714D01*
X113178195Y-126251670D01*
X113195270Y-126243749D01*
X113215359Y-126247140D01*
G37*
G36*
X115480028Y-126192903D02*
G01*
X115494312Y-126209466D01*
X115512636Y-126239830D01*
X115531777Y-126277240D01*
X115548511Y-126314939D01*
X115559613Y-126346170D01*
X115561860Y-126364178D01*
X115561817Y-126364293D01*
X115547313Y-126382101D01*
X115526872Y-126378545D01*
X115501967Y-126354500D01*
X115475057Y-126312652D01*
X115455484Y-126273720D01*
X115441738Y-126240091D01*
X115436963Y-126220274D01*
X115445420Y-126197596D01*
X115464844Y-126188394D01*
X115480028Y-126192903D01*
G37*
G36*
X113377071Y-125927547D02*
G01*
X113381086Y-125952232D01*
X113368488Y-125993265D01*
X113347554Y-126035791D01*
X113322324Y-126078965D01*
X113303309Y-126102600D01*
X113287672Y-126108780D01*
X113272573Y-126099591D01*
X113267868Y-126094323D01*
X113261022Y-126081600D01*
X113261977Y-126064669D01*
X113272092Y-126038178D01*
X113292482Y-125997233D01*
X113317707Y-125952862D01*
X113337760Y-125927851D01*
X113354977Y-125919351D01*
X113356437Y-125919298D01*
X113377071Y-125927547D01*
G37*
G36*
X115308795Y-125876566D02*
G01*
X115329739Y-125901850D01*
X115352081Y-125936271D01*
X115372061Y-125973561D01*
X115385919Y-126007447D01*
X115390078Y-126028567D01*
X115381650Y-126051205D01*
X115362319Y-126060452D01*
X115347125Y-126055939D01*
X115336043Y-126042344D01*
X115317992Y-126014047D01*
X115296850Y-125977132D01*
X115296521Y-125976529D01*
X115272565Y-125925161D01*
X115265513Y-125889918D01*
X115275363Y-125870686D01*
X115293010Y-125866692D01*
X115308795Y-125876566D01*
G37*
G36*
X113541169Y-125599351D02*
G01*
X113545184Y-125624036D01*
X113532585Y-125665069D01*
X113511651Y-125707595D01*
X113487987Y-125748576D01*
X113470273Y-125771620D01*
X113454759Y-125780131D01*
X113437697Y-125777514D01*
X113435556Y-125776690D01*
X113423517Y-125764657D01*
X113424106Y-125741346D01*
X113437863Y-125704127D01*
X113459328Y-125661430D01*
X113484857Y-125618950D01*
X113505658Y-125596420D01*
X113520535Y-125591103D01*
X113541169Y-125599351D01*
G37*
G36*
X115138618Y-125551482D02*
G01*
X115157558Y-125573097D01*
X115181011Y-125613204D01*
X115192558Y-125635578D01*
X115213845Y-125683758D01*
X115220212Y-125715623D01*
X115211637Y-125732961D01*
X115191332Y-125737619D01*
X115175302Y-125731304D01*
X115157180Y-125710266D01*
X115134498Y-125671361D01*
X115125253Y-125653392D01*
X115104545Y-125611304D01*
X115093684Y-125584932D01*
X115091580Y-125569259D01*
X115097139Y-125559266D01*
X115103631Y-125553960D01*
X115121529Y-125545917D01*
X115138618Y-125551482D01*
G37*
G36*
X113705261Y-125271157D02*
G01*
X113709275Y-125295915D01*
X113696674Y-125337191D01*
X113675749Y-125380051D01*
X113647802Y-125424422D01*
X113623039Y-125449448D01*
X113602901Y-125454175D01*
X113588827Y-125437649D01*
X113588815Y-125437616D01*
X113589410Y-125414800D01*
X113600570Y-125381044D01*
X113618816Y-125342689D01*
X113640669Y-125306077D01*
X113662654Y-125277548D01*
X113681291Y-125263445D01*
X113684633Y-125262907D01*
X113705261Y-125271157D01*
G37*
G36*
X114959322Y-125228795D02*
G01*
X114983957Y-125253846D01*
X115011593Y-125297871D01*
X115011737Y-125298140D01*
X115036258Y-125347424D01*
X115047579Y-125380940D01*
X115046253Y-125401908D01*
X115032832Y-125413545D01*
X115031621Y-125414030D01*
X115012578Y-125419992D01*
X115000976Y-125414912D01*
X114986911Y-125394771D01*
X114961543Y-125350656D01*
X114941074Y-125306647D01*
X114927923Y-125268824D01*
X114924506Y-125243268D01*
X114925321Y-125239842D01*
X114939255Y-125223775D01*
X114959322Y-125228795D01*
G37*
G36*
X113868896Y-124942750D02*
G01*
X113877704Y-124962338D01*
X113872221Y-124982047D01*
X113858200Y-125014850D01*
X113839610Y-125051856D01*
X113811998Y-125095917D01*
X113787351Y-125121097D01*
X113767263Y-125126315D01*
X113753324Y-125110493D01*
X113753270Y-125110351D01*
X113754578Y-125090878D01*
X113764530Y-125058190D01*
X113780086Y-125019392D01*
X113798207Y-124981593D01*
X113815850Y-124951899D01*
X113826238Y-124939784D01*
X113848125Y-124933506D01*
X113868896Y-124942750D01*
G37*
G36*
X114795851Y-124915262D02*
G01*
X114817492Y-124940630D01*
X114840364Y-124975217D01*
X114860778Y-125012733D01*
X114875047Y-125046884D01*
X114879483Y-125071377D01*
X114878641Y-125075210D01*
X114864044Y-125093390D01*
X114843393Y-125089893D01*
X114817736Y-125065382D01*
X114788122Y-125020522D01*
X114785852Y-125016500D01*
X114760710Y-124966004D01*
X114751188Y-124931560D01*
X114757205Y-124911813D01*
X114778680Y-124905410D01*
X114779128Y-124905408D01*
X114795851Y-124915262D01*
G37*
G36*
X114027989Y-124616653D02*
G01*
X114037338Y-124628204D01*
X114039494Y-124641398D01*
X114033285Y-124661712D01*
X114017539Y-124694625D01*
X114006889Y-124715277D01*
X113978413Y-124763139D01*
X113953444Y-124791294D01*
X113933123Y-124798891D01*
X113918587Y-124785079D01*
X113917367Y-124782155D01*
X113918618Y-124762269D01*
X113928745Y-124729268D01*
X113944678Y-124690206D01*
X113963344Y-124652138D01*
X113981670Y-124622118D01*
X113992409Y-124609867D01*
X114009572Y-124604068D01*
X114027989Y-124616653D01*
G37*
G36*
X114617829Y-124582758D02*
G01*
X114638612Y-124604574D01*
X114664890Y-124646482D01*
X114668211Y-124652375D01*
X114693874Y-124701044D01*
X114706805Y-124734003D01*
X114707709Y-124754750D01*
X114697286Y-124766787D01*
X114691704Y-124769360D01*
X114672618Y-124775326D01*
X114661064Y-124770170D01*
X114647291Y-124750101D01*
X114612502Y-124690737D01*
X114589833Y-124642914D01*
X114580228Y-124608949D01*
X114583105Y-124592632D01*
X114600131Y-124579342D01*
X114617829Y-124582758D01*
G37*
G36*
X114192022Y-124288684D02*
G01*
X114200247Y-124303951D01*
X114195212Y-124332620D01*
X114176915Y-124377329D01*
X114170375Y-124391100D01*
X114148323Y-124433835D01*
X114131227Y-124458738D01*
X114115737Y-124469897D01*
X114104334Y-124471721D01*
X114082602Y-124465298D01*
X114077295Y-124447944D01*
X114082968Y-124419226D01*
X114097591Y-124382724D01*
X114117575Y-124344746D01*
X114139326Y-124311599D01*
X114159255Y-124289590D01*
X114170543Y-124284181D01*
X114192022Y-124288684D01*
G37*
G36*
X114662784Y-124042267D02*
G01*
X114663359Y-124049371D01*
X114655726Y-124082125D01*
X114635739Y-124124250D01*
X114607764Y-124168685D01*
X114576168Y-124208370D01*
X114549733Y-124233089D01*
X114519227Y-124255017D01*
X114495208Y-124270478D01*
X114487070Y-124274570D01*
X114483575Y-124287415D01*
X114493793Y-124318700D01*
X114505772Y-124344734D01*
X114525304Y-124393123D01*
X114529861Y-124427175D01*
X114519426Y-124445459D01*
X114506925Y-124448279D01*
X114485329Y-124439935D01*
X114478644Y-124433627D01*
X114467152Y-124415539D01*
X114449823Y-124384211D01*
X114435987Y-124357439D01*
X114417485Y-124322798D01*
X114402448Y-124304395D01*
X114384625Y-124297130D01*
X114360536Y-124295902D01*
X114279459Y-124285462D01*
X114205134Y-124255860D01*
X114141821Y-124209677D01*
X114093779Y-124149492D01*
X114082127Y-124127268D01*
X114067845Y-124094319D01*
X114059660Y-124071176D01*
X114058908Y-124064236D01*
X114071504Y-124063783D01*
X114102361Y-124065757D01*
X114146467Y-124069776D01*
X114185742Y-124073958D01*
X114305915Y-124080212D01*
X114432822Y-124074064D01*
X114555119Y-124056298D01*
X114604792Y-124044939D01*
X114639158Y-124036777D01*
X114656632Y-124035746D01*
X114662784Y-124042267D01*
G37*
G36*
X113530979Y-123763933D02*
G01*
X113668836Y-123763933D01*
X113674036Y-123776525D01*
X113700443Y-123799985D01*
X113741855Y-123815366D01*
X113790978Y-123821833D01*
X113840521Y-123818550D01*
X113883191Y-123804682D01*
X113889272Y-123801190D01*
X113915618Y-123776944D01*
X113919586Y-123757070D01*
X114024550Y-123757070D01*
X114034969Y-123785064D01*
X114062579Y-123806022D01*
X114101911Y-123818909D01*
X114147495Y-123822689D01*
X114193859Y-123816329D01*
X114235535Y-123798792D01*
X114237702Y-123797405D01*
X114260665Y-123773902D01*
X114261601Y-123763933D01*
X114360391Y-123763933D01*
X114365591Y-123776525D01*
X114391998Y-123799985D01*
X114433410Y-123815366D01*
X114482533Y-123821833D01*
X114532076Y-123818550D01*
X114574746Y-123804682D01*
X114580828Y-123801190D01*
X114607173Y-123776944D01*
X114609771Y-123763933D01*
X114688587Y-123763933D01*
X114693786Y-123776525D01*
X114715195Y-123795650D01*
X114750432Y-123812887D01*
X114789986Y-123824155D01*
X114809875Y-123826324D01*
X114836613Y-123823623D01*
X114871678Y-123816215D01*
X114877134Y-123814752D01*
X114916514Y-123797331D01*
X114936418Y-123773924D01*
X114935366Y-123747303D01*
X114922649Y-123729494D01*
X114899344Y-123713793D01*
X114864212Y-123704473D01*
X114823928Y-123700386D01*
X114781210Y-123698792D01*
X114753420Y-123702036D01*
X114732225Y-123712044D01*
X114715261Y-123725477D01*
X114693530Y-123747428D01*
X114688587Y-123763933D01*
X114609771Y-123763933D01*
X114612002Y-123752757D01*
X114597147Y-123730799D01*
X114564438Y-123713239D01*
X114515709Y-123702247D01*
X114495733Y-123700386D01*
X114453014Y-123698792D01*
X114425224Y-123702036D01*
X114404029Y-123712044D01*
X114387065Y-123725477D01*
X114365334Y-123747428D01*
X114360391Y-123763933D01*
X114261601Y-123763933D01*
X114262921Y-123749862D01*
X114246997Y-123727835D01*
X114215425Y-123710372D01*
X114170734Y-123700025D01*
X114139414Y-123698290D01*
X114082576Y-123703886D01*
X114044326Y-123719815D01*
X114026008Y-123745388D01*
X114024550Y-123757070D01*
X113919586Y-123757070D01*
X113920447Y-123752757D01*
X113905591Y-123730799D01*
X113872883Y-123713239D01*
X113824153Y-123702247D01*
X113804178Y-123700386D01*
X113761459Y-123698792D01*
X113733669Y-123702036D01*
X113712474Y-123712044D01*
X113695510Y-123725477D01*
X113673779Y-123747428D01*
X113668836Y-123763933D01*
X113530979Y-123763933D01*
X113499278Y-123736589D01*
X113453983Y-123695541D01*
X113411403Y-123655117D01*
X113374776Y-123618371D01*
X113347344Y-123588358D01*
X113332345Y-123568133D01*
X113331044Y-123561366D01*
X113344611Y-123559865D01*
X113376551Y-123560685D01*
X113421933Y-123563597D01*
X113470047Y-123567804D01*
X113637163Y-123581325D01*
X113822097Y-123591411D01*
X114019473Y-123598041D01*
X114223915Y-123601192D01*
X114430049Y-123600839D01*
X114632498Y-123596961D01*
X114825886Y-123589535D01*
X115004840Y-123578536D01*
X115054266Y-123574591D01*
X115123607Y-123568996D01*
X115184558Y-123564592D01*
X115233418Y-123561604D01*
X115266487Y-123560257D01*
X115280065Y-123560777D01*
X115280154Y-123560843D01*
X115275944Y-123572034D01*
X115257627Y-123595332D01*
X115228631Y-123627287D01*
X115192385Y-123664448D01*
X115152317Y-123703367D01*
X115111858Y-123740594D01*
X115074436Y-123772678D01*
X115052867Y-123789508D01*
X114941282Y-123864147D01*
X114828003Y-123923579D01*
X114705534Y-123971301D01*
X114593031Y-124004140D01*
X114546236Y-124013155D01*
X114483354Y-124021118D01*
X114410883Y-124027634D01*
X114335320Y-124032303D01*
X114263161Y-124034729D01*
X114200905Y-124034514D01*
X114155047Y-124031261D01*
X114153484Y-124031038D01*
X114014230Y-124002435D01*
X113874582Y-123958576D01*
X113742034Y-123902238D01*
X113624079Y-123836200D01*
X113619049Y-123832923D01*
X113585051Y-123808335D01*
X113544047Y-123775205D01*
X113530979Y-123763933D01*
G37*
G36*
X114513061Y-122606872D02*
G01*
X114701693Y-122610844D01*
X114876502Y-122617816D01*
X115042235Y-122628078D01*
X115203641Y-122641918D01*
X115365467Y-122659625D01*
X115516600Y-122679275D01*
X115711364Y-122709539D01*
X115887565Y-122743617D01*
X116044435Y-122781272D01*
X116181206Y-122822270D01*
X116297111Y-122866375D01*
X116391383Y-122913351D01*
X116463254Y-122962963D01*
X116475050Y-122973344D01*
X116515717Y-123021454D01*
X116533571Y-123069222D01*
X116529240Y-123116392D01*
X116503352Y-123162704D01*
X116456535Y-123207902D01*
X116389419Y-123251726D01*
X116302632Y-123293920D01*
X116196802Y-123334224D01*
X116072558Y-123372381D01*
X115930528Y-123408134D01*
X115771342Y-123441223D01*
X115595627Y-123471391D01*
X115404012Y-123498380D01*
X115197126Y-123521932D01*
X115120489Y-123529384D01*
X115057121Y-123534056D01*
X114973792Y-123538325D01*
X114873980Y-123542149D01*
X114761163Y-123545489D01*
X114638820Y-123548305D01*
X114510430Y-123550558D01*
X114379470Y-123552206D01*
X114249420Y-123553211D01*
X114123757Y-123553532D01*
X114005960Y-123553130D01*
X113899508Y-123551964D01*
X113807878Y-123549994D01*
X113734549Y-123547181D01*
X113708075Y-123545603D01*
X113482526Y-123527394D01*
X113268339Y-123504977D01*
X113067243Y-123478656D01*
X112880969Y-123448735D01*
X112711245Y-123415519D01*
X112559802Y-123379313D01*
X112428369Y-123340422D01*
X112325611Y-123302110D01*
X112253477Y-123267367D01*
X112188448Y-123227997D01*
X112135613Y-123187471D01*
X112100062Y-123149264D01*
X112098654Y-123147217D01*
X112078213Y-123099603D01*
X112080486Y-123052225D01*
X112104749Y-123005424D01*
X112150274Y-122959541D01*
X112216335Y-122914918D01*
X112302204Y-122871896D01*
X112407156Y-122830816D01*
X112530463Y-122792019D01*
X112671399Y-122755847D01*
X112829237Y-122722641D01*
X113003251Y-122692742D01*
X113095121Y-122679275D01*
X113261433Y-122657809D01*
X113423019Y-122640474D01*
X113584627Y-122626978D01*
X113751004Y-122617034D01*
X113926897Y-122610353D01*
X114117054Y-122606645D01*
X114305860Y-122605612D01*
X114513061Y-122606872D01*
G37*
G36*
X113229828Y-122381169D02*
G01*
X113318329Y-122381169D01*
X113318922Y-122398572D01*
X113322424Y-122405112D01*
X113352231Y-122434954D01*
X113397811Y-122450481D01*
X113459454Y-122452441D01*
X113508427Y-122446063D01*
X113540490Y-122433048D01*
X113551470Y-122424076D01*
X113566043Y-122399735D01*
X113661843Y-122399735D01*
X113662980Y-122403354D01*
X113683789Y-122427698D01*
X113720333Y-122444394D01*
X113766005Y-122452892D01*
X113814200Y-122452642D01*
X113858309Y-122443095D01*
X113891727Y-122423702D01*
X113892978Y-122422485D01*
X113909469Y-122395806D01*
X113908677Y-122392896D01*
X114008649Y-122392896D01*
X114019135Y-122414904D01*
X114044605Y-122433713D01*
X114080831Y-122447679D01*
X114123584Y-122455156D01*
X114168634Y-122454499D01*
X114210614Y-122444502D01*
X114237998Y-122427132D01*
X114252670Y-122409607D01*
X114256701Y-122383712D01*
X114254988Y-122381169D01*
X114338080Y-122381169D01*
X114338673Y-122398572D01*
X114342175Y-122405112D01*
X114371982Y-122434954D01*
X114417561Y-122450481D01*
X114479204Y-122452441D01*
X114528178Y-122446063D01*
X114560241Y-122433048D01*
X114571221Y-122424076D01*
X114586448Y-122398643D01*
X114582223Y-122375642D01*
X114580163Y-122373613D01*
X114680941Y-122373613D01*
X114713828Y-122402916D01*
X114740199Y-122421485D01*
X114770956Y-122430240D01*
X114809977Y-122432220D01*
X114851963Y-122429753D01*
X114888606Y-122423467D01*
X114902449Y-122418911D01*
X114932660Y-122396678D01*
X114940014Y-122373613D01*
X115009137Y-122373613D01*
X115042024Y-122402916D01*
X115067933Y-122421271D01*
X115098015Y-122430061D01*
X115139306Y-122432220D01*
X115182942Y-122428906D01*
X115222531Y-122420460D01*
X115238284Y-122414337D01*
X115265881Y-122392949D01*
X115272556Y-122370454D01*
X115260582Y-122349133D01*
X115232231Y-122331267D01*
X115189778Y-122319139D01*
X115139306Y-122315007D01*
X115096259Y-122317423D01*
X115066617Y-122326623D01*
X115042024Y-122344310D01*
X115009137Y-122373613D01*
X114940014Y-122373613D01*
X114941016Y-122370470D01*
X114927516Y-122344792D01*
X114902449Y-122328316D01*
X114873840Y-122320622D01*
X114833411Y-122315815D01*
X114809977Y-122315007D01*
X114767014Y-122317569D01*
X114737233Y-122327265D01*
X114713828Y-122344310D01*
X114680941Y-122373613D01*
X114580163Y-122373613D01*
X114562499Y-122356211D01*
X114531232Y-122341484D01*
X114492374Y-122332597D01*
X114449882Y-122330686D01*
X114407708Y-122336886D01*
X114369808Y-122352332D01*
X114355709Y-122362182D01*
X114338080Y-122381169D01*
X114254988Y-122381169D01*
X114242131Y-122362077D01*
X114213540Y-122345487D01*
X114175512Y-122334725D01*
X114132627Y-122330577D01*
X114089468Y-122333827D01*
X114050617Y-122345257D01*
X114020655Y-122365653D01*
X114017376Y-122369335D01*
X114008649Y-122392896D01*
X113908677Y-122392896D01*
X113902880Y-122371602D01*
X113873096Y-122349649D01*
X113850874Y-122339977D01*
X113809361Y-122330880D01*
X113765067Y-122331694D01*
X113723079Y-122340703D01*
X113688487Y-122356191D01*
X113666378Y-122376440D01*
X113661843Y-122399735D01*
X113566043Y-122399735D01*
X113566697Y-122398643D01*
X113562472Y-122375642D01*
X113542748Y-122356211D01*
X113511481Y-122341484D01*
X113472624Y-122332597D01*
X113430131Y-122330686D01*
X113387957Y-122336886D01*
X113350057Y-122352332D01*
X113335958Y-122362182D01*
X113318329Y-122381169D01*
X113229828Y-122381169D01*
X113280537Y-122290176D01*
X113379447Y-122160404D01*
X113438088Y-122097848D01*
X113559819Y-121990354D01*
X113690267Y-121903142D01*
X113831622Y-121835114D01*
X113986075Y-121785175D01*
X114117645Y-121757978D01*
X114280377Y-121743009D01*
X114442582Y-121750073D01*
X114601824Y-121778214D01*
X114755665Y-121826478D01*
X114901669Y-121893907D01*
X115037398Y-121979547D01*
X115160415Y-122082440D01*
X115268283Y-122201633D01*
X115276751Y-122212584D01*
X115313088Y-122263638D01*
X115349718Y-122320742D01*
X115379550Y-122372757D01*
X115383196Y-122379817D01*
X115404344Y-122424472D01*
X115425417Y-122473812D01*
X115444763Y-122523258D01*
X115460730Y-122568231D01*
X115471665Y-122604151D01*
X115475917Y-122626441D01*
X115474009Y-122631481D01*
X115459707Y-122630154D01*
X115426987Y-122626539D01*
X115380703Y-122621188D01*
X115325706Y-122614652D01*
X115325261Y-122614598D01*
X115222542Y-122602797D01*
X115125883Y-122593025D01*
X115031611Y-122585110D01*
X114936049Y-122578880D01*
X114835524Y-122574165D01*
X114726361Y-122570792D01*
X114604886Y-122568591D01*
X114467423Y-122567388D01*
X114310298Y-122567014D01*
X114305860Y-122567014D01*
X114148168Y-122567369D01*
X114010234Y-122568547D01*
X113888384Y-122570720D01*
X113778944Y-122574060D01*
X113678239Y-122578737D01*
X113582594Y-122584925D01*
X113488334Y-122592793D01*
X113391786Y-122602514D01*
X113289273Y-122614260D01*
X113286459Y-122614598D01*
X113231468Y-122621140D01*
X113185205Y-122626501D01*
X113152501Y-122630131D01*
X113138191Y-122631481D01*
X113138160Y-122631481D01*
X113136459Y-122621517D01*
X113141199Y-122596217D01*
X113145755Y-122579685D01*
X113202767Y-122429727D01*
X113229828Y-122381169D01*
G37*
D11*
%TO.C,SW6*%
X147835000Y-104655000D02*
X161805000Y-104655000D01*
X147835000Y-118625000D02*
X147835000Y-104655000D01*
X161805000Y-104655000D02*
X161805000Y-118625000D01*
X161805000Y-118625000D02*
X147835000Y-118625000D01*
%TO.C,U1*%
X175760000Y-77440000D02*
X175760000Y-77740000D01*
X175760000Y-77440000D02*
X196760000Y-77440000D01*
X175760000Y-79840000D02*
X175760000Y-80240000D01*
X175760000Y-80107000D02*
X178767000Y-80107000D01*
X175760000Y-82440000D02*
X175760000Y-82840000D01*
X175760000Y-84940000D02*
X175760000Y-85340000D01*
X175760000Y-87540000D02*
X175760000Y-87940000D01*
X175760000Y-90040000D02*
X175760000Y-90440000D01*
X175760000Y-92540000D02*
X175760000Y-92940000D01*
X175760000Y-95140000D02*
X175760000Y-95540000D01*
X175760000Y-97640000D02*
X175760000Y-98040000D01*
X175760000Y-100240000D02*
X175760000Y-100640000D01*
X175760000Y-102740000D02*
X175760000Y-103140000D01*
X175760000Y-105240000D02*
X175760000Y-105640000D01*
X175760000Y-107840000D02*
X175760000Y-108240000D01*
X175760000Y-110340000D02*
X175760000Y-110740000D01*
X175760000Y-112940000D02*
X175760000Y-113340000D01*
X175760000Y-115440000D02*
X175760000Y-115840000D01*
X175760000Y-118040000D02*
X175760000Y-118440000D01*
X175760000Y-120540000D02*
X175760000Y-120940000D01*
X175760000Y-123040000D02*
X175760000Y-123440000D01*
X175760000Y-125640000D02*
X175760000Y-126040000D01*
X178767000Y-80107000D02*
X178767000Y-77440000D01*
X182560000Y-128440000D02*
X175760000Y-128440000D01*
X184760000Y-128440000D02*
X185160000Y-128440000D01*
X187360000Y-128440000D02*
X187760000Y-128440000D01*
X196760000Y-77440000D02*
X196760000Y-77740000D01*
X196760000Y-79840000D02*
X196760000Y-80240000D01*
X196760000Y-82440000D02*
X196760000Y-82840000D01*
X196760000Y-84940000D02*
X196760000Y-85340000D01*
X196760000Y-87540000D02*
X196760000Y-87940000D01*
X196760000Y-90040000D02*
X196760000Y-90440000D01*
X196760000Y-92540000D02*
X196760000Y-92940000D01*
X196760000Y-95140000D02*
X196760000Y-95540000D01*
X196760000Y-97640000D02*
X196760000Y-98040000D01*
X196760000Y-100240000D02*
X196760000Y-100640000D01*
X196760000Y-102740000D02*
X196760000Y-103140000D01*
X196760000Y-105240000D02*
X196760000Y-105640000D01*
X196760000Y-107840000D02*
X196760000Y-108240000D01*
X196760000Y-110340000D02*
X196760000Y-110740000D01*
X196760000Y-112940000D02*
X196760000Y-113340000D01*
X196760000Y-115440000D02*
X196760000Y-115840000D01*
X196760000Y-118040000D02*
X196760000Y-118440000D01*
X196760000Y-120540000D02*
X196760000Y-120940000D01*
X196760000Y-123040000D02*
X196760000Y-123440000D01*
X196760000Y-125640000D02*
X196760000Y-126040000D01*
X196760000Y-128440000D02*
X189960000Y-128440000D01*
%TO.C,SW5*%
X147835000Y-84455000D02*
X161805000Y-84455000D01*
X147835000Y-98425000D02*
X147835000Y-84455000D01*
X161805000Y-84455000D02*
X161805000Y-98425000D01*
X161805000Y-98425000D02*
X147835000Y-98425000D01*
%TO.C,SW2*%
X107435000Y-104655000D02*
X121405000Y-104655000D01*
X107435000Y-118625000D02*
X107435000Y-104655000D01*
X121405000Y-104655000D02*
X121405000Y-118625000D01*
X121405000Y-118625000D02*
X107435000Y-118625000D01*
%TO.C,SW4*%
X127635000Y-104655000D02*
X141605000Y-104655000D01*
X127635000Y-118625000D02*
X127635000Y-104655000D01*
X141605000Y-104655000D02*
X141605000Y-118625000D01*
X141605000Y-118625000D02*
X127635000Y-118625000D01*
%TO.C,SW3*%
X127635000Y-84455000D02*
X141605000Y-84455000D01*
X127635000Y-98425000D02*
X127635000Y-84455000D01*
X141605000Y-84455000D02*
X141605000Y-98425000D01*
X141605000Y-98425000D02*
X127635000Y-98425000D01*
%TO.C,SW1*%
X107435000Y-84455000D02*
X121405000Y-84455000D01*
X107435000Y-98425000D02*
X107435000Y-84455000D01*
X121405000Y-84455000D02*
X121405000Y-98425000D01*
X121405000Y-98425000D02*
X107435000Y-98425000D01*
%TD*%
M02*
