M48
; DRILL file {KiCad 7.0.1} date Tue Mar 14 08:07:42 2023
; FORMAT={-:-/ absolute / inch / decimal}
; #@! TF.CreationDate,2023-03-14T08:07:42-04:00
; #@! TF.GenerationSoftware,Kicad,Pcbnew,7.0.1
; #@! TF.FileFunction,Plated,1,2,PTH
FMAT,2
INCH
; #@! TA.AperFunction,Plated,PTH,ComponentDrill
T1C0.0402
; #@! TA.AperFunction,Plated,PTH,ComponentDrill
T2C0.0591
%
G90
G05
T1
X6.9831Y-3.1028
X6.9831Y-3.2028
X6.9831Y-3.3028
X6.9831Y-3.4028
X6.9831Y-3.5028
X6.9831Y-3.6028
X6.9831Y-3.7028
X6.9831Y-3.8028
X6.9831Y-3.9028
X6.9831Y-4.0028
X6.9831Y-4.1028
X6.9831Y-4.2028
X6.9831Y-4.3028
X6.9831Y-4.4028
X6.9831Y-4.5028
X6.9831Y-4.6028
X6.9831Y-4.7028
X6.9831Y-4.8028
X6.9831Y-4.9028
X6.9831Y-5.0028
X7.2331Y-4.9937
X7.3331Y-4.9937
X7.4331Y-4.9937
X7.6831Y-3.1028
X7.6831Y-3.2028
X7.6831Y-3.3028
X7.6831Y-3.4028
X7.6831Y-3.5028
X7.6831Y-3.6028
X7.6831Y-3.7028
X7.6831Y-3.8028
X7.6831Y-3.9028
X7.6831Y-4.0028
X7.6831Y-4.1028
X7.6831Y-4.2028
X7.6831Y-4.3028
X7.6831Y-4.4028
X7.6831Y-4.5028
X7.6831Y-4.6028
X7.6831Y-4.7028
X7.6831Y-4.8028
X7.6831Y-4.9028
X7.6831Y-5.0028
T2
X4.3547Y-3.5
X4.3547Y-4.2953
X4.6047Y-3.4
X4.6047Y-4.1953
X5.15Y-3.5
X5.15Y-4.2953
X5.4Y-3.4
X5.4Y-4.1953
X5.9453Y-3.5
X5.9453Y-4.2953
X6.1953Y-3.4
X6.1953Y-4.1953
T0
M30
